<svg width="55" height="55" viewBox="0 0 55 55" fill="none" xmlns="http://www.w3.org/2000/svg">
<g clip-path="url(#clip0_1069_301)">
<path d="M28.6465 52.708C15.3777 52.708 4.58398 41.912 4.58398 28.6455C4.58398 23.9132 5.96586 19.3276 8.57836 15.3813C8.9244 14.8543 9.63711 14.7099 10.1665 15.0582C10.6936 15.4066 10.8379 16.1193 10.4896 16.6463C8.12461 20.2145 6.87565 24.3647 6.87565 28.6455C6.87565 40.6493 16.6427 50.4163 28.6465 50.4163C40.6502 50.4163 50.4173 40.6493 50.4173 28.6455C50.4173 16.6418 40.6502 6.87467 28.6465 6.87467C24.3657 6.87467 20.2154 8.12363 16.6473 10.4886C16.1157 10.8347 15.4075 10.6926 15.0592 10.1632C14.7109 9.63613 14.8552 8.92342 15.3823 8.57509C19.3286 5.96259 23.9142 4.58301 28.6465 4.58301C41.9152 4.58301 52.709 15.3768 52.709 28.6455C52.709 41.9143 41.9152 52.708 28.6465 52.708Z" fill="black"/>
<path d="M28.6452 34.3743C25.4873 34.3743 22.916 31.8031 22.916 28.6452C22.916 25.4873 25.4873 22.916 28.6452 22.916C31.8031 22.916 34.3743 25.4873 34.3743 28.6452C34.3743 31.8031 31.8031 34.3743 28.6452 34.3743ZM28.6452 25.2077C26.75 25.2077 25.2077 26.75 25.2077 28.6452C25.2077 30.5404 26.75 32.0827 28.6452 32.0827C30.5404 32.0827 32.0827 30.5404 32.0827 28.6452C32.0827 26.75 30.5404 25.2077 28.6452 25.2077Z" fill="black"/>
<path d="M28.6469 29.7912C28.3535 29.7912 28.0602 29.6789 27.8356 29.4566L9.83915 11.4579H5.73019C5.4254 11.4579 5.13435 11.3364 4.91894 11.121L0.335604 6.53766C0.00789517 6.20996 -0.0906465 5.71954 0.0881035 5.291C0.264562 4.86246 0.683937 4.58287 1.14685 4.58287H4.58435V1.14537C4.58435 0.682456 4.86394 0.263081 5.29248 0.0866227C5.72102 -0.0921273 6.21144 0.00870604 6.54144 0.334123L11.1248 4.91746C11.3379 5.13287 11.4594 5.42391 11.4594 5.72871V9.83766L29.4581 27.8364C29.905 28.2833 29.905 29.0097 29.4581 29.4566C29.2335 29.6789 28.9402 29.7912 28.6469 29.7912ZM6.20456 9.16621H9.16769V6.20308L6.87602 3.91141V5.72871C6.87602 6.36121 6.36269 6.87454 5.73019 6.87454H3.9129L6.20456 9.16621Z" fill="black"/>
<path d="M28.6458 43.5417C20.4325 43.5417 13.75 36.8592 13.75 28.6458C13.75 26.4229 14.2427 24.2665 15.2144 22.236C15.4871 21.6631 16.17 21.4225 16.7429 21.6975C17.3135 21.9702 17.5542 22.6554 17.2815 23.226C16.4587 24.9448 16.0417 26.769 16.0417 28.6458C16.0417 35.5965 21.6952 41.25 28.6458 41.25C35.5965 41.25 41.25 35.5965 41.25 28.6458C41.25 21.6952 35.5965 16.0417 28.6458 16.0417C26.769 16.0417 24.9448 16.4587 23.2238 17.2837C22.6485 17.5519 21.9679 17.3135 21.6952 16.7429C21.4225 16.1723 21.6654 15.4871 22.236 15.2144C24.2665 14.2427 26.4229 13.75 28.6458 13.75C36.8592 13.75 43.5417 20.4325 43.5417 28.6458C43.5417 36.8592 36.8592 43.5417 28.6458 43.5417Z" fill="black"/>
<path d="M53.8573 54.9996C53.4678 54.9996 53.0896 54.8026 52.8742 54.4428L45.9992 42.9844C45.6738 42.4413 45.8503 41.7378 46.3911 41.4123C46.9342 41.0846 47.6378 41.2634 47.9632 41.8042L54.8382 53.2626C55.1636 53.8057 54.9871 54.5092 54.4463 54.8346C54.2607 54.9469 54.0567 54.9996 53.8573 54.9996Z" fill="black"/>
<path d="M3.43761 54.9993C3.23823 54.9993 3.03427 54.9466 2.84865 54.8366C2.30552 54.5112 2.13136 53.8076 2.45677 53.2645L9.33177 41.8062C9.65719 41.2653 10.3607 41.0866 10.9039 41.4143C11.447 41.7397 11.6211 42.4433 11.2957 42.9864L4.42073 54.4447C4.20531 54.8022 3.8249 54.9993 3.43761 54.9993Z" fill="black"/>
</g>
<defs>
<clipPath id="clip0_1069_301">
<rect width="55" height="55" fill="white"/>
</clipPath>
</defs>
</svg>
