<svg width="58" height="58" viewBox="0 0 58 58" fill="none" xmlns="http://www.w3.org/2000/svg">
<path d="M26.1581 48.4274C25.1648 48.4274 24.3842 48.3476 23.8332 48.1905L8.27475 45.8053C7.93641 45.7545 7.63433 45.5588 7.44825 45.2736C7.25975 44.9884 7.20175 44.6356 7.29116 44.3045L9.96158 34.169C9.98333 34.0893 10.0123 34.0119 10.0486 33.937C11.5082 31.0129 14.3744 29.1399 17.6103 28.9587L23.7366 22.8324C25.2567 21.3124 27.9102 21.3124 29.4278 22.8324C30.7812 24.1858 30.989 26.3221 29.9305 27.9123L26.1291 33.1347C25.6361 33.8114 25.3727 34.6137 25.3727 35.4523C25.3727 37.6249 27.2891 39.3697 29.5124 39.041L34.9451 38.6133L42.2893 38.6109C42.8307 38.6109 43.3043 38.9685 43.4493 39.4881C43.5992 40.0077 43.3841 40.5611 42.9249 40.8463L33.3549 46.7864C31.8735 48.0818 28.0334 48.4274 26.1581 48.4274ZM9.96883 43.623L24.3504 45.8367C24.6162 45.9019 25.0851 46.0131 26.1581 46.0131C28.6883 46.0131 31.2983 45.4428 31.7696 44.9691C31.8348 44.9039 31.9097 44.8459 31.9871 44.7975L38.0529 41.0324H35.0417L29.7782 41.448C29.5632 41.4819 29.2756 41.5012 28.9904 41.5012C25.6651 41.5012 22.9584 38.7897 22.9584 35.4595C22.9584 34.1038 23.3813 32.8084 24.1764 31.7161L27.9512 26.5348C28.3476 25.9403 28.263 25.0848 27.7217 24.5459C27.1127 23.9393 26.0566 23.9393 25.4476 24.5459L18.9806 31.0129C18.7534 31.2352 18.4465 31.3633 18.1251 31.3633C15.6432 31.3633 13.4102 32.7214 12.2647 34.9109L9.96883 43.623Z" fill="black"/>
<path d="M1.20833 48.2795C0.541333 48.2795 0 47.7382 0 47.0712V30.1545C0 29.8186 0.142583 29.4972 0.386667 29.2676C0.635583 29.0404 0.944917 28.9244 1.30258 28.951C2.668 29.0573 9.58933 29.6905 11.7063 31.6939C11.9722 31.9477 12.1123 32.3102 12.0785 32.6775C11.5299 38.956 9.68842 44.7778 9.61108 45.0243C9.51925 45.3118 9.32108 45.5559 9.05767 45.7058C8.874 45.8073 4.51192 48.2795 1.20833 48.2795ZM2.41667 31.4837V45.7348C4.23158 45.3868 6.33408 44.4177 7.44575 43.8304C7.86383 42.4191 9.11083 37.9217 9.60867 33.1391C8.236 32.3778 5.02908 31.7785 2.41667 31.4837Z" fill="black"/>
<path d="M37.453 28.9056C34.205 28.9056 31.67 27.5088 31.4259 25.5851C31.3413 24.9229 31.8101 24.3188 32.4723 24.2342C33.1272 24.1593 33.7386 24.6184 33.8256 25.2806C33.8715 25.631 35.1959 26.4889 37.4555 26.4889C39.918 26.4889 41.0853 25.5198 41.0853 25.2806C41.0853 25.2733 41.0442 24.5218 37.557 24.0916L37.3008 24.0578C35.5318 23.8427 31.4162 23.34 31.4162 20.4473C31.4162 18.381 34.0141 16.8223 37.4627 16.8223C40.7107 16.8223 43.2458 18.2191 43.4899 20.1403C43.5745 20.8025 43.1056 21.4067 42.4435 21.4913C41.7837 21.5686 41.1771 21.107 41.0901 20.4448C41.0442 20.0944 39.7199 19.2389 37.4603 19.2389C35.1161 19.2389 33.8305 20.1452 33.8305 20.4473C33.8305 20.4545 33.8715 21.2061 37.3709 21.6338C37.3781 21.6338 37.6222 21.6653 37.6222 21.6653C39.396 21.8852 43.4995 22.3903 43.4995 25.2806C43.4995 27.3468 40.9016 28.9056 37.453 28.9056Z" fill="black"/>
<path d="M37.4583 31.3219C36.7913 31.3219 36.25 30.7806 36.25 30.1136V15.6136C36.25 14.9466 36.7913 14.4053 37.4583 14.4053C38.1253 14.4053 38.6667 14.9466 38.6667 15.6136V30.1136C38.6667 30.7806 38.1253 31.3219 37.4583 31.3219Z" fill="black"/>
<path d="M51.9577 16.8219H47.1243C46.4573 16.8219 45.916 16.2806 45.916 15.6136C45.916 14.9466 46.4573 14.4053 47.1243 14.4053H51.9577C52.6247 14.4053 53.166 14.9466 53.166 15.6136C53.166 16.2806 52.6247 16.8219 51.9577 16.8219Z" fill="black"/>
<path d="M56.791 36.1556H30.2077C29.5407 36.1556 28.9993 35.6143 28.9993 34.9473C28.9993 34.2803 29.5407 33.7389 30.2077 33.7389H55.5827V11.9889H19.3327V22.8639C19.3327 23.5309 18.7913 24.0723 18.1243 24.0723C17.4573 24.0723 16.916 23.5309 16.916 22.8639V10.7806C16.916 10.1136 17.4573 9.57227 18.1243 9.57227H56.791C57.458 9.57227 57.9994 10.1136 57.9994 10.7806V34.9473C57.9994 35.6143 57.458 36.1556 56.791 36.1556Z" fill="black"/>
</svg>
