<svg width="24" height="24" viewBox="0 0 24 24" fill="none" xmlns="http://www.w3.org/2000/svg">
<g clip-path="url(#clip0_1220_312)">
<path d="M20.5 23.4473H3.5C1.57 23.4473 0 21.8773 0 19.9473V9.94727C0 8.01727 1.57 6.44727 3.5 6.44727H20.5C22.43 6.44727 24 8.01727 24 9.94727V19.9473C24 21.8773 22.43 23.4473 20.5 23.4473ZM3.5 7.44727C2.121 7.44727 1 8.56927 1 9.94727V19.9473C1 21.3253 2.121 22.4473 3.5 22.4473H20.5C21.879 22.4473 23 21.3253 23 19.9473V9.94727C23 8.56927 21.879 7.44727 20.5 7.44727H3.5Z" fill="#007FFF"/>
<path d="M19.5 16.4473C18.673 16.4473 18 15.7743 18 14.9473C18 14.1203 18.673 13.4473 19.5 13.4473C20.327 13.4473 21 14.1203 21 14.9473C21 15.7743 20.327 16.4473 19.5 16.4473ZM19.5 14.4473C19.225 14.4473 19 14.6713 19 14.9473C19 15.2233 19.225 15.4473 19.5 15.4473C19.775 15.4473 20 15.2233 20 14.9473C20 14.6713 19.775 14.4473 19.5 14.4473Z" fill="#007FFF"/>
<path d="M23.5 18.4473H19.5C17.57 18.4473 16 16.8773 16 14.9473C16 13.0173 17.57 11.4473 19.5 11.4473H23.5C23.776 11.4473 24 11.6713 24 11.9473V17.9473C24 18.2233 23.776 18.4473 23.5 18.4473ZM19.5 12.4473C18.121 12.4473 17 13.5693 17 14.9473C17 16.3253 18.121 17.4473 19.5 17.4473H23V12.4473H19.5Z" fill="#007FFF"/>
<path d="M19.9999 7.44741C19.8169 7.44741 19.6409 7.34641 19.5529 7.17141L17.4359 2.93741C17.1309 2.32741 16.6049 1.87741 15.9549 1.67241C15.3069 1.46641 14.6159 1.53141 14.0159 1.85541L3.73691 7.38741C3.49491 7.51841 3.19091 7.42741 3.05991 7.18441C2.92891 6.94141 3.01991 6.63741 3.26291 6.50741L13.5399 0.973412C14.3819 0.521412 15.3459 0.431412 16.2559 0.718412C17.1659 1.00641 17.9029 1.63541 18.3299 2.48941L20.4469 6.72341C20.5699 6.97041 20.4699 7.27041 20.2229 7.39441C20.1509 7.43041 20.0749 7.44741 19.9999 7.44741Z" fill="#007FFF"/>
<path d="M10.5702 7.44768C10.3922 7.44768 10.2202 7.35268 10.1302 7.18468C9.99923 6.94168 10.0902 6.63868 10.3332 6.50768L17.7622 2.50768C18.0042 2.37768 18.3082 2.46768 18.4402 2.71168C18.5712 2.95468 18.4802 3.25768 18.2372 3.38868L10.8082 7.38868C10.7322 7.42868 10.6502 7.44768 10.5702 7.44768Z" fill="#007FFF"/>
<path d="M0.5 10.4473C0.224 10.4473 0 10.2233 0 9.94727V8.94727C0 5.91427 2.468 3.44727 5.5 3.44727H9C9.276 3.44727 9.5 3.67127 9.5 3.94727C9.5 4.22327 9.276 4.44727 9 4.44727H5.5C3.019 4.44727 1 6.46627 1 8.94727V9.94727C1 10.2233 0.776 10.4473 0.5 10.4473Z" fill="#007FFF"/>
<path d="M23.5 10.4473C23.224 10.4473 23 10.2233 23 9.94727V8.94727C23 6.46627 20.981 4.44727 18.5 4.44727C18.224 4.44727 18 4.22327 18 3.94727C18 3.67127 18.224 3.44727 18.5 3.44727C21.532 3.44727 24 5.91427 24 8.94727V9.94727C24 10.2233 23.776 10.4473 23.5 10.4473Z" fill="#007FFF"/>
</g>
<defs>
<clipPath id="clip0_1220_312">
<rect width="24" height="24" fill="white"/>
</clipPath>
</defs>
</svg>
