<svg width="24" height="24" viewBox="0 0 24 24" fill="none" xmlns="http://www.w3.org/2000/svg">
<g clip-path="url(#clip0_1220_342)">
<path d="M23.5101 7.99987C23.5061 7.99987 23.4981 8.00087 23.4901 7.99987H0.490075C0.265075 7.99987 0.0660746 7.84887 0.00807458 7.62987C-0.0519254 7.41187 0.0430746 7.18187 0.238075 7.06687L12.2381 0.0668681C12.4001 -0.0271319 12.6001 -0.0231319 12.7591 0.0768681L23.6861 7.03087C23.8751 7.10287 24.0101 7.28587 24.0101 7.49987C24.0101 7.77587 23.7861 7.99987 23.5101 7.99987ZM2.34007 6.99987H21.7741L12.4791 1.08487L2.34007 6.99987Z" fill="#007FFF"/>
<path d="M23.4902 24H0.490234C0.214234 24 -0.00976562 23.776 -0.00976562 23.5V20.5C-0.00976562 20.224 0.214234 20 0.490234 20H23.4902C23.7662 20 23.9902 20.224 23.9902 20.5V23.5C23.9902 23.776 23.7672 24 23.4902 24ZM0.990234 23H22.9902V21H0.990234V23Z" fill="#007FFF"/>
<path d="M6.49023 19H3.49023C3.21423 19 2.99023 18.776 2.99023 18.5V9.5C2.99023 9.224 3.21423 9 3.49023 9H6.49023C6.76623 9 6.99023 9.224 6.99023 9.5V18.5C6.99023 18.776 6.76723 19 6.49023 19ZM3.99023 18H5.99023V10H3.99023V18Z" fill="#007FFF"/>
<path d="M3.49023 10H2.49023C2.21423 10 1.99023 9.776 1.99023 9.5C1.99023 9.224 2.21423 9 2.49023 9H3.49023C3.76623 9 3.99023 9.224 3.99023 9.5C3.99023 9.776 3.76723 10 3.49023 10Z" fill="#007FFF"/>
<path d="M3.49023 19H2.49023C2.21423 19 1.99023 18.776 1.99023 18.5C1.99023 18.224 2.21423 18 2.49023 18H3.49023C3.76623 18 3.99023 18.224 3.99023 18.5C3.99023 18.776 3.76723 19 3.49023 19Z" fill="#007FFF"/>
<path d="M7.49023 19H6.49023C6.21423 19 5.99023 18.776 5.99023 18.5C5.99023 18.224 6.21423 18 6.49023 18H7.49023C7.76623 18 7.99023 18.224 7.99023 18.5C7.99023 18.776 7.76723 19 7.49023 19Z" fill="#007FFF"/>
<path d="M7.49023 10H6.49023C6.21423 10 5.99023 9.776 5.99023 9.5C5.99023 9.224 6.21423 9 6.49023 9H7.49023C7.76623 9 7.99023 9.224 7.99023 9.5C7.99023 9.776 7.76723 10 7.49023 10Z" fill="#007FFF"/>
<path d="M13.4902 19H10.4902C10.2142 19 9.99023 18.776 9.99023 18.5V9.5C9.99023 9.224 10.2142 9 10.4902 9H13.4902C13.7662 9 13.9902 9.224 13.9902 9.5V18.5C13.9902 18.776 13.7672 19 13.4902 19ZM10.9902 18H12.9902V10H10.9902V18Z" fill="#007FFF"/>
<path d="M10.4902 10H9.49023C9.21423 10 8.99023 9.776 8.99023 9.5C8.99023 9.224 9.21423 9 9.49023 9H10.4902C10.7662 9 10.9902 9.224 10.9902 9.5C10.9902 9.776 10.7672 10 10.4902 10Z" fill="#007FFF"/>
<path d="M10.4902 19H9.49023C9.21423 19 8.99023 18.776 8.99023 18.5C8.99023 18.224 9.21423 18 9.49023 18H10.4902C10.7662 18 10.9902 18.224 10.9902 18.5C10.9902 18.776 10.7672 19 10.4902 19Z" fill="#007FFF"/>
<path d="M14.4902 19H13.4902C13.2142 19 12.9902 18.776 12.9902 18.5C12.9902 18.224 13.2142 18 13.4902 18H14.4902C14.7662 18 14.9902 18.224 14.9902 18.5C14.9902 18.776 14.7672 19 14.4902 19Z" fill="#007FFF"/>
<path d="M14.4902 10H13.4902C13.2142 10 12.9902 9.776 12.9902 9.5C12.9902 9.224 13.2142 9 13.4902 9H14.4902C14.7662 9 14.9902 9.224 14.9902 9.5C14.9902 9.776 14.7672 10 14.4902 10Z" fill="#007FFF"/>
<path d="M20.4902 19H17.4902C17.2142 19 16.9902 18.776 16.9902 18.5V9.5C16.9902 9.224 17.2142 9 17.4902 9H20.4902C20.7662 9 20.9902 9.224 20.9902 9.5V18.5C20.9902 18.776 20.7672 19 20.4902 19ZM17.9902 18H19.9902V10H17.9902V18Z" fill="#007FFF"/>
<path d="M17.4902 10H16.4902C16.2142 10 15.9902 9.776 15.9902 9.5C15.9902 9.224 16.2142 9 16.4902 9H17.4902C17.7662 9 17.9902 9.224 17.9902 9.5C17.9902 9.776 17.7672 10 17.4902 10Z" fill="#007FFF"/>
<path d="M17.4902 19H16.4902C16.2142 19 15.9902 18.776 15.9902 18.5C15.9902 18.224 16.2142 18 16.4902 18H17.4902C17.7662 18 17.9902 18.224 17.9902 18.5C17.9902 18.776 17.7672 19 17.4902 19Z" fill="#007FFF"/>
<path d="M21.4902 19H20.4902C20.2142 19 19.9902 18.776 19.9902 18.5C19.9902 18.224 20.2142 18 20.4902 18H21.4902C21.7662 18 21.9902 18.224 21.9902 18.5C21.9902 18.776 21.7672 19 21.4902 19Z" fill="#007FFF"/>
<path d="M21.4902 10H20.4902C20.2142 10 19.9902 9.776 19.9902 9.5C19.9902 9.224 20.2142 9 20.4902 9H21.4902C21.7662 9 21.9902 9.224 21.9902 9.5C21.9902 9.776 21.7672 10 21.4902 10Z" fill="#007FFF"/>
</g>
<defs>
<clipPath id="clip0_1220_342">
<rect width="24" height="24" fill="white"/>
</clipPath>
</defs>
</svg>
