<svg width="24" height="24" viewBox="0 0 24 24" fill="none" xmlns="http://www.w3.org/2000/svg">
<path d="M5.328 17.843C5.262 17.843 5.195 17.83 5.13 17.802C2.014 16.455 0 13.392 0 10C0 5.313 3.813 1.5 8.5 1.5C13.187 1.5 17 5.313 17 10C17 12.831 15.597 15.467 13.246 17.052C13.017 17.206 12.707 17.146 12.552 16.917C12.398 16.688 12.458 16.377 12.687 16.223C14.761 14.824 16 12.498 16 10C16 5.864 12.636 2.5 8.5 2.5C4.364 2.5 1 5.864 1 10C1 12.993 2.777 15.695 5.526 16.884C5.78 16.994 5.896 17.288 5.787 17.541C5.706 17.73 5.521 17.843 5.328 17.843Z" fill="#007FFF"/>
<path d="M3.50025 22.5002C3.37225 22.5002 3.24425 22.4512 3.14625 22.3542C2.95125 22.1592 2.95125 21.8422 3.14625 21.6472L9.14625 15.6472C9.34125 15.4522 9.65825 15.4522 9.85325 15.6472L13.4992 19.2932L20.6453 12.1472C20.8403 11.9522 21.1572 11.9522 21.3522 12.1472C21.5472 12.3422 21.5472 12.6592 21.3522 12.8542L13.8523 20.3542C13.6573 20.5492 13.3403 20.5492 13.1453 20.3542L9.50025 16.7072L3.85425 22.3532C3.75625 22.4512 3.62825 22.5002 3.50025 22.5002Z" fill="#007FFF"/>
<path d="M23.5004 15.5C23.3704 15.5 23.2424 15.449 23.1464 15.354L18.1464 10.354C18.0034 10.211 17.9604 9.996 18.0384 9.809C18.1154 9.622 18.2984 9.5 18.5004 9.5H23.5004C23.7764 9.5 24.0004 9.724 24.0004 10V15C24.0004 15.202 23.8784 15.385 23.6914 15.462C23.6294 15.488 23.5644 15.5 23.5004 15.5ZM19.7074 10.5L23.0004 13.793V10.5H19.7074Z" fill="#007FFF"/>
<path d="M8.499 13.5C7.165 13.5 6.091 12.699 6.002 11.638C5.979 11.363 6.183 11.121 6.458 11.098C6.735 11.073 6.975 11.279 6.998 11.554C7.042 12.076 7.715 12.5 8.498 12.5C9.312 12.5 9.999 12.042 9.999 11.5C9.999 11.012 9.525 10.698 8.508 10.51L8.4 10.49C6.778 10.191 6 9.527 6 8.5C6 7.397 7.122 6.5 8.501 6.5C9.835 6.5 10.908 7.3 10.998 8.362C11.021 8.637 10.817 8.879 10.542 8.902C10.274 8.929 10.025 8.721 10.002 8.446C9.958 7.924 9.285 7.5 8.501 7.5C7.688 7.5 7 7.958 7 8.5C7 8.988 7.475 9.302 8.493 9.49L8.603 9.511C10.223 9.81 11 10.473 11 11.5C11 12.603 9.878 13.5 8.499 13.5Z" fill="#007FFF"/>
<path d="M8.5 14.5C8.224 14.5 8 14.276 8 14V6C8 5.724 8.224 5.5 8.5 5.5C8.776 5.5 9 5.724 9 6V14C9 14.276 8.776 14.5 8.5 14.5Z" fill="#007FFF"/>
</svg>
