<svg width="24" height="24" viewBox="0 0 24 24" fill="none" xmlns="http://www.w3.org/2000/svg">
<g clip-path="url(#clip0_1220_299)">
<path d="M23.4991 24C23.2751 24 23.0711 23.849 23.0151 23.621L22.4141 21.219C22.2061 20.386 21.5941 19.726 20.7791 19.453L16.3411 17.974C14.5761 17.24 13.9991 14.635 13.9991 14C13.9991 13.851 14.0651 13.709 14.1811 13.615C14.8361 13.073 15.4991 12.174 15.4991 11.5C15.4991 10.753 15.8081 10.338 16.1001 10.143C16.2441 9.751 16.4731 9.04 16.4971 8.576C16.4801 8.536 16.4561 8.496 16.4401 8.482C16.1641 8.481 15.9991 8.276 15.9991 8V5C15.9991 3.528 15.5261 3.228 15.3241 3.1C15.2031 3.022 14.9991 2.894 14.9691 2.619C14.9631 2.56 14.9711 2.492 14.9911 2.424C14.9201 2.028 14.3201 1 11.9991 1C9.5571 1 7.9991 3.369 7.9991 5V8C7.9991 8.276 7.7751 8.5 7.4991 8.5C7.5231 8.5 7.5141 8.534 7.5011 8.572C7.5241 9.037 7.7541 9.751 7.8981 10.142C8.1901 10.338 8.4991 10.753 8.4991 11.5C8.4991 12.173 9.1621 13.073 9.8171 13.615C9.9331 13.709 9.9991 13.851 9.9991 14C9.9991 14.635 9.4221 17.24 7.6911 17.961L3.2191 19.453C2.4041 19.725 1.7921 20.385 1.5841 21.219L0.983096 23.621C0.916096 23.889 0.642096 24.052 0.377096 23.985C0.109096 23.918 -0.0539039 23.647 0.0130961 23.379L0.614096 20.977C0.905096 19.81 1.7611 18.886 2.9031 18.505L7.3411 17.026C8.3841 16.59 8.8721 14.863 8.9771 14.208C8.2121 13.506 7.4991 12.45 7.4991 11.5C7.4991 11.146 7.3941 11 7.3381 10.973C7.1821 10.934 7.0941 10.835 7.0341 10.686C6.9801 10.549 6.4991 9.323 6.4991 8.5C6.4991 8.459 6.5041 8.418 6.5141 8.379C6.5691 8.16 6.7221 7.839 6.9991 7.651V5C6.9991 2.912 8.9011 0 11.9991 0C15.0591 0 15.8901 1.569 15.9891 2.345C16.5071 2.728 16.9991 3.389 16.9991 5V7.651C17.2761 7.839 17.4291 8.159 17.4841 8.379C17.4941 8.419 17.4991 8.459 17.4991 8.5C17.4991 9.323 17.0181 10.549 16.9631 10.686C16.9031 10.835 16.7751 10.947 16.6201 10.985C16.6041 11 16.4991 11.146 16.4991 11.5C16.4991 12.45 15.7861 13.506 15.0211 14.208C15.1261 14.863 15.6181 16.591 16.6911 17.039L21.0941 18.505C22.2361 18.886 23.0921 19.81 23.3831 20.977L23.9841 23.379C24.0511 23.647 23.8881 23.918 23.6201 23.985C23.5801 23.995 23.5391 24 23.4991 24Z" fill="#007FFF"/>
</g>
<defs>
<clipPath id="clip0_1220_299">
<rect width="24" height="24" fill="white"/>
</clipPath>
</defs>
</svg>
