<svg width="55" height="55" viewBox="0 0 55 55" fill="none" xmlns="http://www.w3.org/2000/svg">
<path d="M42.3965 23.0335V14.8958C42.3965 6.6825 35.714 0 27.5007 0C19.2873 0 12.6048 6.6825 12.6048 14.8958V23.0335C9.99232 23.5652 8.02148 25.8821 8.02148 28.6458V49.2708C8.02148 52.4288 10.5904 55 13.7507 55H41.2507C44.4109 55 46.9798 52.4288 46.9798 49.2708V28.6458C46.9798 25.8798 45.009 23.5652 42.3965 23.0335ZM14.8965 14.8958C14.8965 7.94521 20.5523 2.29167 27.5007 2.29167C34.449 2.29167 40.1048 7.94521 40.1048 14.8958V22.9167H37.8132V14.8958C37.8132 9.21021 33.1863 4.58333 27.5007 4.58333C21.815 4.58333 17.1882 9.21021 17.1882 14.8958V22.9167H14.8965V14.8958ZM35.5215 14.8958V22.9167H19.4798V14.8958C19.4798 10.4729 23.0777 6.875 27.5007 6.875C31.9236 6.875 35.5215 10.4729 35.5215 14.8958ZM44.6882 49.2708C44.6882 51.166 43.1459 52.7083 41.2507 52.7083H13.7507C11.8554 52.7083 10.3132 51.166 10.3132 49.2708V28.6458C10.3132 26.7506 11.8554 25.2083 13.7507 25.2083H41.2507C43.1459 25.2083 44.6882 26.7506 44.6882 28.6458V49.2708ZM27.5007 29.7917C24.3404 29.7917 21.7715 32.3629 21.7715 35.5208C21.7715 37.6979 23.0434 39.6756 24.9592 40.6335L24.0746 46.8188C24.0265 47.1465 24.125 47.481 24.3427 47.7308C24.5604 47.9806 24.8767 48.125 25.209 48.125H29.7923C30.1246 48.125 30.4409 47.9783 30.6586 47.7285C30.8763 47.4788 30.9748 47.1465 30.9267 46.8165L30.0421 40.6312C31.9579 39.6756 33.2298 37.6979 33.2298 35.5208C33.2298 32.3629 30.6609 29.7917 27.5007 29.7917ZM28.4586 38.8002C27.9132 38.9606 27.5671 39.4992 27.6473 40.0629L28.4723 45.8333H26.529L27.354 40.0629C27.4365 39.4992 27.0882 38.9606 26.5427 38.8002C25.06 38.3671 24.0632 37.0494 24.0632 35.5208C24.0632 33.6256 25.6054 32.0833 27.5007 32.0833C29.3959 32.0833 30.9382 33.6256 30.9382 35.5208C30.9382 37.0494 29.9413 38.3671 28.4586 38.8002Z" fill="black"/>
</svg>
