<svg width="55" height="55" viewBox="0 0 55 55" fill="none" xmlns="http://www.w3.org/2000/svg">
<g clip-path="url(#clip0_1069_273)">
<path d="M27.4993 54.9997C15.4956 54.9997 5.72852 47.2905 5.72852 37.8122C5.72852 31.1343 17.0218 19.1924 17.5031 18.6882C17.7185 18.4613 18.0187 18.333 18.3327 18.333H36.666C36.98 18.333 37.2802 18.4613 37.4956 18.6882C37.9768 19.1924 49.2702 31.1343 49.2702 37.8122C49.2702 47.2905 39.5031 54.9997 27.4993 54.9997ZM18.8277 20.6247C15.5208 24.1722 8.02018 33.1922 8.02018 37.8122C8.02018 46.0255 16.7583 52.708 27.4993 52.708C38.2404 52.708 46.9785 46.0255 46.9785 37.8122C46.9785 33.1876 39.4779 24.1699 36.171 20.6247H18.8277Z" fill="black"/>
<path d="M36.6667 16.0417H18.3333C17.7008 16.0417 17.1875 15.5306 17.1875 14.8958C17.1875 14.261 17.7008 13.75 18.3333 13.75H36.6667C37.2992 13.75 37.8125 14.2633 37.8125 14.8958C37.8125 15.5283 37.2992 16.0417 36.6667 16.0417Z" fill="black"/>
<path d="M36.6667 11.4579H18.3333C17.9002 11.4579 17.5038 11.2127 17.309 10.8254L12.7256 1.65874C12.5033 1.21645 12.5904 0.684779 12.9388 0.336446C13.2871 -0.0118878 13.8188 -0.101263 14.2633 0.121029L22.6921 4.3354L26.6911 0.336446C27.1379 -0.110429 27.8644 -0.110429 28.3113 0.336446L32.3102 4.3354L40.739 0.121029C41.179 -0.101263 41.7152 -0.0141795 42.0613 0.336446C42.4096 0.684779 42.4967 1.21874 42.2767 1.65874L37.6933 10.8254C37.4963 11.2127 37.0998 11.4579 36.6667 11.4579ZM19.0415 9.16624H35.9608L38.6879 3.70749L32.5967 6.75311C32.1567 6.9754 31.6204 6.88832 31.2744 6.5377L27.5 2.76561L23.7279 6.5377C23.3796 6.88603 22.8479 6.97311 22.4056 6.75311L16.3121 3.70749L19.0415 9.16624Z" fill="black"/>
<path d="M27.4941 45.8327C24.4393 45.8327 21.9804 43.9993 21.7741 41.5656C21.7214 40.9354 22.1889 40.3808 22.8191 40.3281C23.3966 40.2502 24.0039 40.7406 24.0566 41.3731C24.1574 42.5671 25.6997 43.541 27.4941 43.541C29.3595 43.541 30.9362 42.4914 30.9362 41.2493C30.9362 40.131 29.8499 39.4114 27.5216 38.9829L27.2695 38.9348C23.5524 38.2496 21.7695 36.7279 21.7695 34.3743C21.7695 31.8466 24.3408 29.791 27.5033 29.791C30.5581 29.791 33.017 31.6243 33.2233 34.0558C33.276 34.686 32.8085 35.2429 32.1783 35.2956C31.5893 35.3552 30.9912 34.8831 30.9408 34.2506C30.8399 33.0566 29.2977 32.0827 27.5033 32.0827C25.6379 32.0827 24.0612 33.1323 24.0612 34.3743C24.0612 35.4927 25.1497 36.2123 27.4849 36.6431L27.7347 36.6912C31.4472 37.3764 33.2256 38.8981 33.2256 41.2516C33.2279 43.7771 30.6566 45.8327 27.4941 45.8327Z" fill="black"/>
<path d="M27.4993 48.125C26.8668 48.125 26.3535 47.6117 26.3535 46.9792V28.6458C26.3535 28.0133 26.8668 27.5 27.4993 27.5C28.1318 27.5 28.6452 28.0133 28.6452 28.6458V46.9792C28.6452 47.614 28.1318 48.125 27.4993 48.125Z" fill="black"/>
</g>
<defs>
<clipPath id="clip0_1069_273">
<rect width="55" height="55" fill="white"/>
</clipPath>
</defs>
</svg>
