<svg width="21" height="25" viewBox="0 0 21 25" fill="none" xmlns="http://www.w3.org/2000/svg">
<g clip-path="url(#clip0_453_8)">
<path d="M0.794576 16.9281C1.78782 11.6308 5.9907 8.37515 7.968 7.4095C7.83735 6.83795 7.82385 6.18525 8.09305 5.7541C7.82145 5.01835 7.1679 3.43651 6.72645 2.99507C6.17465 2.44327 5.4849 0.649911 6.3126 0.511961C7.1403 0.374013 9.3475 1.47762 10.5891 1.33967C11.8306 1.20172 13.2101 0.374015 14.3137 0.649916C15.4173 0.925816 15.1414 1.75352 14.7276 2.44327C14.3137 3.13302 13.2101 4.65048 12.9342 5.06435C12.7135 5.3954 13.1182 6.7657 13.3481 7.4095C19.8318 12.2378 19.4179 15.5486 20.3836 18.7214C21.3492 21.8943 18.5902 24.3774 16.7968 24.3774C15.0035 24.3774 8.5198 24.6533 5.4849 24.3774C2.44998 24.1015 -0.446975 23.5497 0.794576 16.9281Z" fill="#AF379C"/>
<path d="M13.3481 7.4095C19.8318 12.2378 19.4179 15.5486 20.3836 18.7214C21.3492 21.8943 18.5902 24.3774 16.7968 24.3774C15.0035 24.3774 8.5198 24.6533 5.4849 24.3774C2.44998 24.1015 -0.446975 23.5497 0.794576 16.9281C1.78782 11.6308 5.9907 8.37515 7.968 7.4095C7.83735 6.83795 7.82385 6.18525 8.09305 5.7541M13.3481 7.4095C10.0031 4.91851 8.5819 4.97102 8.09305 5.7541M13.3481 7.4095C13.1182 6.7657 12.7135 5.3954 12.9342 5.06435C13.2101 4.65048 14.3137 3.13302 14.7276 2.44327C15.1414 1.75352 15.4173 0.925816 14.3137 0.649916C13.2101 0.374015 11.8306 1.20172 10.5891 1.33967C9.3475 1.47762 7.1403 0.374013 6.3126 0.511961C5.4849 0.649911 6.17465 2.44327 6.72645 2.99507C7.1679 3.43651 7.82145 5.01835 8.09305 5.7541" stroke="#C456B2" stroke-width="0.3"/>
<path d="M20.1854 18.6191C21.1438 21.7681 18.4055 24.2325 16.6256 24.2325C16.1403 24.2325 15.3092 24.2529 14.2957 24.2769C13.5121 24.3976 12.6053 24.4228 11.5596 24.3338C12.5333 24.3183 13.4744 24.2964 14.2957 24.2769C22.4263 23.0248 17.3078 11.4938 16.6839 10.5072C16.6646 10.4854 16.6451 10.4636 16.6256 10.4418C16.6312 10.4331 16.6515 10.4559 16.6839 10.5072C19.5208 13.7045 19.4498 16.2021 20.1854 18.6191Z" fill="#A80F8F"/>
<path d="M13.0725 5.06445H7.83042C7.14473 5.06445 6.58887 5.62031 6.58887 6.30601C6.58887 6.9917 7.14473 7.54756 7.83042 7.54756H13.0725C13.7582 7.54756 14.3141 6.9917 14.3141 6.30601C14.3141 5.62031 13.7582 5.06445 13.0725 5.06445Z" fill="white"/>
<mask id="mask0_453_8" style="mask-type:luminance" maskUnits="userSpaceOnUse" x="7" y="11" width="7" height="11">
<path d="M13.4863 11.686H7.69238V21.0667H13.4863V11.686Z" fill="white"/>
</mask>
<g mask="url(#mask0_453_8)">
<path d="M10.3866 20.8659V11.8364H10.965V20.8659H10.3866ZM12.0549 14.7251C12.022 14.4171 11.8832 14.1773 11.6387 14.0056C11.3965 13.834 11.0814 13.7481 10.6934 13.7481C10.4207 13.7481 10.1867 13.7893 9.99151 13.8716C9.79636 13.9539 9.64701 14.0656 9.54356 14.2067C9.44011 14.3477 9.38721 14.5088 9.38486 14.6899C9.38486 14.8404 9.41896 14.9709 9.48716 15.0814C9.55766 15.1919 9.65291 15.286 9.77281 15.3635C9.89276 15.4388 10.0256 15.5023 10.1714 15.554C10.3172 15.6058 10.4642 15.6493 10.6123 15.6845L11.2895 15.8538C11.5623 15.9173 11.8245 16.0031 12.0761 16.1113C12.33 16.2195 12.5569 16.3558 12.7568 16.5204C12.959 16.6851 13.1189 16.8838 13.2365 17.1165C13.3541 17.3493 13.4129 17.6221 13.4129 17.9348C13.4129 18.3581 13.3047 18.7308 13.0884 19.0529C12.872 19.3727 12.5593 19.6232 12.1501 19.8042C11.7433 19.9829 11.2507 20.0723 10.6723 20.0723C10.1103 20.0723 9.62236 19.9853 9.20851 19.8113C8.79701 19.6373 8.47486 19.3833 8.24206 19.0494C8.01161 18.7155 7.88701 18.3087 7.86816 17.829H9.15561C9.17441 18.0806 9.25201 18.2899 9.38836 18.4569C9.52476 18.6238 9.70231 18.7484 9.92096 18.8307C10.142 18.913 10.3889 18.9542 10.6617 18.9542C10.9462 18.9542 11.1955 18.9118 11.4094 18.8272C11.6258 18.7402 11.7951 18.6203 11.9174 18.4674C12.0396 18.3122 12.1019 18.1312 12.1043 17.9243C12.1019 17.7362 12.0467 17.581 11.9385 17.4587C11.8304 17.3341 11.6787 17.2306 11.4835 17.1483C11.2907 17.0636 11.065 16.9884 10.8063 16.9225L9.98446 16.7109C9.38956 16.5581 8.91926 16.3265 8.57361 16.0161C8.23031 15.7033 8.05866 15.2883 8.05866 14.771C8.05866 14.3454 8.17386 13.9727 8.40431 13.6529C8.63711 13.3331 8.95336 13.085 9.35311 12.9087C9.75286 12.73 10.2055 12.6406 10.7111 12.6406C11.2237 12.6406 11.6728 12.73 12.0584 12.9087C12.4464 13.085 12.7509 13.3307 12.972 13.6458C13.193 13.9586 13.307 14.3183 13.3141 14.7251H12.0549Z" fill="white"/>
</g>
<path d="M5.94495 11.2078C5.243 11.42 5.0225 12.313 5 12.733C5.135 13.6613 5.6075 14.0592 5.94495 13.9929C6.28245 13.9266 7.56495 11.8046 7.49745 11.3404C7.42995 10.8762 6.82245 10.9425 5.94495 11.2078Z" fill="#C456B2"/>
</g>
<defs>
<clipPath id="clip0_453_8">
<rect width="21" height="25" fill="white"/>
</clipPath>
</defs>
</svg>
