<svg width="22" height="27" viewBox="0 0 22 27" fill="none" xmlns="http://www.w3.org/2000/svg">
<g clip-path="url(#clip0_440_109)">
<path d="M21.0581 9.42867C21.2651 11.1103 21.0884 12.8189 20.5432 14.4143L17.4769 13.234C17.8411 12.1557 17.9584 11.0022 17.8186 9.86691C17.6754 8.70366 17.2667 7.59379 16.627 6.63152C15.9874 5.6692 15.1358 4.88286 14.1444 4.33919C13.153 3.79553 12.0511 3.51059 10.9323 3.50854C9.81343 3.5065 8.71064 3.78743 7.71747 4.32748C6.72431 4.86753 5.87006 5.65075 5.22722 6.61071C4.58439 7.57067 4.17195 8.67902 4.02489 9.84177C3.88137 10.9766 3.99479 12.1305 4.35547 13.2101L1.28529 14.3792C0.745317 12.7818 0.574339 11.0725 0.786918 9.39171C1.00302 7.683 1.60914 6.05417 2.55384 4.64343C3.49854 3.23268 4.75394 2.08164 6.21353 1.28799C7.6731 0.494335 9.29374 0.0814913 10.9379 0.0844889C12.5822 0.0874864 14.2015 0.506237 15.6584 1.3052C17.1153 2.10418 18.3669 3.25978 19.3069 4.67398C20.247 6.08815 20.8477 7.71917 21.0581 9.42867Z" fill="#FFB547" stroke="#FA9703" stroke-width="0.3"/>
<path d="M20.9326 9.46116C21.1417 11.1525 20.9569 12.8715 20.3936 14.4723L17.2214 13.2566C18.1139 11.737 19.3633 7.90956 17.2214 4.75703C15.0796 1.6045 8.96849 1.21014 6.18066 1.40703C7.63111 0.621813 9.24167 0.213359 10.8757 0.216325C12.5096 0.219291 14.1188 0.633592 15.5667 1.42407C17.0145 2.21454 18.2582 3.35787 19.1924 4.75703C20.1265 6.15619 20.7235 7.76989 20.9326 9.46116Z" fill="#FA9703"/>
<path d="M21.7603 12.6123H0.0800781V26.9156H21.7603V12.6123Z" fill="#F3AB3F" stroke="#FA9703" stroke-width="0.3"/>
<path d="M21.6344 27.0001V12.7441H8.03516L14.1136 27.0001H21.6344Z" fill="#FA9703"/>
<path fill-rule="evenodd" clip-rule="evenodd" d="M11.332 20.4823C11.9227 20.3361 12.3622 19.7798 12.3622 19.1159C12.3622 18.3405 11.7626 17.7119 11.0229 17.7119C10.2832 17.7119 9.68359 18.3405 9.68359 19.1159C9.68359 19.7798 10.1232 20.3361 10.7138 20.4823V22.0319H11.332V20.4823Z" fill="white"/>
</g>
<defs>
<clipPath id="clip0_440_109">
<rect width="22" height="27" fill="white"/>
</clipPath>
</defs>
</svg>
