<svg width="119" height="107" viewBox="0 0 119 107" fill="none" xmlns="http://www.w3.org/2000/svg">
<path d="M6.26798 46.5499C8.06873 54.3059 16.2384 61.4048 21.9625 66.424C29.4453 72.9855 37.6362 79.2767 48.2138 76.7979C56.0373 74.9646 61.7474 68.6126 65.1501 61.5902C67.6936 56.3411 72.9314 41.25 65.4636 37.632C60.2596 35.1108 53.3816 39.1334 50.7166 43.6705C46.229 51.3103 50.1289 60.7223 56.1389 66.2082C63.7233 73.1312 74.39 75.8831 84.264 72.7543C96.9936 68.7207 106.065 58.6509 113.607 48.1541" stroke="#C6C4C4" stroke-width="3" stroke-linecap="round" stroke-linejoin="round"/>
<path d="M114.033 48.7079C113.886 48.6403 113.642 48.6369 113.551 48.4857C113.514 48.424 113.569 48.0545 113.66 48.1982C113.923 48.613 113.833 49.5096 113.853 50.0103C113.974 52.9891 114.009 55.9831 114.149 58.9571" stroke="#C6C4C4" stroke-width="3" stroke-linecap="round" stroke-linejoin="round"/>
<path d="M113.607 48.154C113.434 48.257 113.322 48.2871 113.128 48.284C112.522 48.2744 111.873 48.638 111.307 48.8239C108.25 49.8284 105.168 50.721 102.126 51.7837" stroke="#C6C4C4" stroke-width="3" stroke-linecap="round" stroke-linejoin="round"/>
</svg>
