<svg width="276" height="276" viewBox="0 0 276 276" fill="none" xmlns="http://www.w3.org/2000/svg">
<path d="M95.9851 139.98C95.0637 147.952 95.315 176.104 96.2887 180.176C106.529 181.126 132.089 180.775 136.036 179.641V139.98H95.9851ZM90.5716 185.652C81.4515 184.679 54.2796 184.98 50.2483 186.04C49.3059 197.924 49.6933 221.988 50.8662 225.756H90.5716V185.652ZM50.2064 180.082C59.4103 181.037 86.5194 180.734 90.5611 179.679V140.021H50.2064V180.082ZM95.6082 225.091C99.6185 226.348 130.267 226.531 135.9 225.358C136.759 217.382 136.497 189.592 135.533 185.516C124.393 184.572 99.6185 184.951 95.6082 186.154V225.091ZM50.2168 90.1029C58.9496 90.995 86.4147 90.728 90.5716 89.7469V48.9838H50.2168V90.1029ZM50.1959 135.657C60.6982 136.546 86.488 136.238 90.5402 135.238V94.507H50.1959V135.657ZM185.72 225.617C194.966 226.619 223.175 226.292 227.07 225.195C227.939 212.085 227.583 189.431 226.484 185.529H185.72V225.617ZM181.501 225.86C182.443 213.226 182.077 189.398 180.988 185.519H140.329V225.86H181.501ZM185.993 139.842C185.019 148.236 185.291 176.228 186.296 180.195H226.85C227.782 172.011 227.531 144.064 226.504 139.842H185.993ZM95.6291 135.558C104.686 136.519 132.089 136.232 136.308 135.144C136.308 121.665 136.319 108.131 136.298 94.6756C127.042 93.6881 99.7232 93.9876 95.6291 95.0703V135.558ZM181.354 180.388C182.338 171.32 182.045 143.903 180.914 139.714C167.449 139.718 153.92 139.706 140.465 139.722C139.502 149.184 139.795 176.29 140.842 180.388H181.354ZM95.6395 90.0547C104.613 91.0495 132.13 90.75 136.308 89.6181C136.308 76.1494 136.319 62.62 136.298 49.166C126.926 48.2047 99.7441 48.4948 95.6395 49.545V90.0547ZM226.829 135.904C227.792 127.415 227.531 98.4817 226.536 94.5102H185.993C185.019 102.5 185.281 131.808 186.359 135.904H226.829ZM181.323 135.91C182.297 127.648 182.035 98.4555 181.019 94.5028H140.486C139.544 102.525 139.795 131.764 140.832 135.91H181.323ZM181.71 49.1712C172.569 48.1911 144.141 48.4916 140.319 49.5126V90.0883C149.366 91.0747 177.689 90.7574 181.71 89.6339V49.1712ZM185.626 90.0631C195.029 91.0966 223.227 90.7689 226.997 89.682V49.1231C217.499 48.1639 189.626 48.4843 185.626 49.5744V90.0631ZM140.005 44.8792H181.302C182.38 40.0312 181.679 35.1978 181.804 30.42C181.93 25.5583 181.836 20.6915 181.836 15.8257V1.33398C183.972 0.298396 185.197 0.52984 185.427 2.67536C185.595 4.21455 185.49 5.7841 185.49 7.34111V44.0415C189.584 45.2531 217.835 45.586 227.3 44.5138V1.45962C229.394 0.244005 230.557 0.508912 230.881 2.28162C231.122 3.603 231.007 4.99351 231.007 6.35372C231.017 17.057 231.007 27.7593 231.007 38.4616V44.6039C232.777 44.7567 234.253 44.9934 235.74 44.9975C247.027 45.029 258.315 45.007 269.603 45.0227C271.152 45.0248 272.775 44.8845 274.22 45.3159C274.828 45.497 275.027 46.9986 275.665 48.4771H232.054C230.787 52.7209 230.462 81.3472 231.499 90.2768C232.923 90.3627 234.42 90.5259 235.918 90.5291C247.205 90.5511 258.493 90.5375 269.77 90.5458C271.131 90.5469 272.576 90.3479 273.822 90.7479C274.576 90.9887 275.005 92.2075 276 93.5457C270.472 94.6986 265.634 94.0515 260.859 94.1676C255.99 94.287 251.122 94.1949 246.263 94.1949H231.321C230.714 101.251 231.091 108.003 231.028 114.736C230.954 121.542 231.007 128.349 231.007 135.602C232.619 135.753 234.096 136.006 235.572 136.009C246.86 136.044 258.147 136.027 269.425 136.03C270.786 136.031 272.199 135.861 273.498 136.155C274.22 136.318 274.765 137.276 275.393 137.876C274.765 138.474 274.21 139.427 273.477 139.59C272.178 139.885 270.775 139.713 269.414 139.713C258.713 139.715 248.012 139.715 237.3 139.715H231.311V180.113C232.724 180.247 234.19 180.504 235.666 180.508C247.143 180.543 258.629 180.53 270.105 180.524C272.22 180.523 274.43 180.278 275.382 182.785C274.325 185.687 271.99 185.177 269.927 185.183C259.226 185.21 248.525 185.195 237.824 185.195H231.29V225.663C232.735 225.798 234.211 226.055 235.687 226.058C246.975 226.092 258.252 226.06 269.54 226.091C271.613 226.098 273.938 225.514 275.529 228.469C274.681 229.154 273.854 230.24 272.786 230.578C271.54 230.973 270.084 230.734 268.723 230.734C258.221 230.74 247.708 230.738 237.206 230.738H231.007V268.533C231.007 269.895 230.996 271.256 230.996 272.619C230.986 273.876 230.703 275.061 229.206 275.095C227.698 275.127 227.353 273.961 227.353 272.696C227.332 266.275 227.332 259.854 227.332 253.432C227.321 246.077 227.321 238.72 227.321 231.055H185.626C185.584 235.825 185.511 240.612 185.49 245.4C185.469 250.264 185.49 255.129 185.49 259.994V274.608C183.333 275.339 182.056 275.24 181.878 273.029C181.763 271.48 181.836 269.917 181.836 268.361V231.697C177.668 230.523 148.308 230.236 140.005 231.301V236.889C140.005 247.786 140.005 258.684 139.994 269.581C139.994 270.94 140.182 272.389 139.764 273.622C139.523 274.357 138.266 274.751 137.041 275.584C135.712 270.169 136.476 265.326 136.34 260.545C136.204 255.683 136.308 250.816 136.308 245.951V231.545C131.408 230.519 101.744 230.426 95.5034 231.422V237.012C95.5034 247.91 95.5034 258.807 95.4929 269.705C95.4929 271.789 95.8802 274.064 93.2732 275.087C90.383 274.199 90.8439 271.867 90.8439 269.803C90.8229 258.906 90.8334 248.009 90.8334 237.112V231.072H50.3845C50.2483 232.366 49.976 233.832 49.976 235.3C49.9341 246.781 49.9551 258.262 49.9446 269.742C49.9446 271.826 50.3112 274.086 47.7877 275.074C45.1071 274.308 45.2956 272.268 45.2956 270.325C45.2851 261.763 45.2851 253.201 45.2851 244.64V230.974C43.2956 230.88 41.7879 230.75 40.2905 230.748C29.0028 230.73 17.7153 230.753 6.42759 230.725C4.37534 230.719 2.01939 231.285 0.982789 228.477C1.5797 225.957 3.6005 226.079 5.5482 226.078C13.726 226.076 21.8932 226.077 30.0709 226.077H44.4683C45.4945 221.303 45.62 191.761 44.6464 185.195H39.0655C28.1651 185.195 17.2755 185.201 6.37531 185.19C4.30223 185.188 2.0194 185.6 0.940992 183.038C1.76811 180.099 4.10322 180.54 6.17656 180.536C16.2913 180.517 26.4166 180.527 36.5315 180.527H45.2641C45.2746 173.552 45.2851 167.005 45.2851 160.46C45.2956 153.848 45.2851 147.236 45.2851 140.162C43.6726 140.004 42.2067 139.738 40.7302 139.734C29.4427 139.698 18.155 139.715 6.87789 139.713C5.50627 139.713 4.10321 139.887 2.80471 139.593C2.08228 139.43 1.5273 138.474 0.899068 137.875C1.5273 137.273 2.08227 136.314 2.81519 136.15C4.11369 135.856 5.51677 136.031 6.87789 136.03C17.5792 136.027 28.2804 136.028 38.9921 136.028H44.9919V94.2725C30.4898 94.0798 15.9981 94.2871 1.7681 94.1562C0.543096 92.262 0.647778 91.0641 2.4697 90.6903C3.77856 90.4212 5.18163 90.5458 6.54288 90.5458C17.2441 90.5375 27.9453 90.5417 38.6466 90.5417H44.3531C45.505 86.2675 45.7562 56.3888 44.6883 48.7011H39.0968C28.3957 48.7011 17.6944 48.7063 6.98271 48.6949C5.43291 48.6927 3.81 48.8592 2.35453 48.4603C1.65294 48.2687 1.25504 46.9431 0.469727 45.7347C5.87286 44.4258 10.7207 45.1797 15.4955 45.0446C20.3644 44.9075 25.2334 45.0143 30.0919 45.0143H44.9501C45.0757 43.1337 45.2746 41.6447 45.2746 40.1547C45.3061 29.064 45.2851 17.9722 45.2956 6.88039C45.2956 5.71402 45.1804 4.51819 45.3793 3.38629C45.7458 1.4178 46.7928 0.201063 49.421 0.957039C50.552 5.56424 49.7772 10.3987 49.9236 15.166C50.0599 20.0266 49.9551 24.8946 49.9551 29.7593V44.184C54.5518 45.2111 83.6923 45.3828 90.8334 44.4195V40.0249C90.8334 28.7384 90.8124 17.4529 90.8439 6.16736C90.8439 4.10879 90.3203 1.77165 93.0532 0.687918C95.5348 1.3026 95.5034 3.2847 95.5034 5.25844C95.4929 12.654 95.5034 20.0476 95.5034 27.4431V44.1965C100.215 45.2206 129.576 45.3598 136.308 44.3871V38.7946C136.308 27.8965 136.308 16.9994 136.319 6.10243C136.319 4.74337 136.13 3.28892 136.549 2.06279C136.801 1.3497 138.099 1.00213 139.722 0C140.245 8.21647 139.931 15.5504 139.984 22.8685C140.046 30.0327 140.005 37.1988 140.005 44.8792Z" fill="#0094FF" fill-opacity="0.19"/>
</svg>
