<svg width="39" height="39" viewBox="0 0 39 39" fill="none" xmlns="http://www.w3.org/2000/svg">
<g clip-path="url(#clip0_726_106)">
<path fill-rule="evenodd" clip-rule="evenodd" d="M4.96618 17.2497C6.70618 16.6297 8.53721 15.8056 9.94921 14.6126C11.6262 13.1956 12.3082 11.3707 12.7662 9.44967C13.3542 6.98167 13.5892 4.35264 14.3022 1.88064C14.5662 0.962636 15.0742 0.61563 15.2922 0.46163C15.8432 0.0726299 16.4002 -0.0313496 16.9242 0.00765042C17.5452 0.0526504 18.3982 0.287634 18.9592 1.32863C19.0392 1.47763 19.1432 1.70465 19.2132 2.01565C19.2642 2.24365 19.2972 2.95663 19.3512 3.25063C19.4862 3.97463 19.5992 4.69866 19.7052 5.42666C20.0582 7.84966 20.2612 9.90763 21.3762 12.1336C22.8892 15.1556 24.4052 17.0046 26.4612 17.8236C28.4492 18.6156 30.8262 18.4667 33.8632 17.8457C34.1522 17.7757 34.4382 17.7157 34.7212 17.6667C36.0602 17.4327 37.3402 18.3117 37.6032 19.6457C37.8662 20.9787 37.0152 22.2776 35.6882 22.5706C35.4112 22.6316 35.1382 22.6896 34.8682 22.7426C30.7642 23.7586 26.0132 27.3847 23.2522 30.5597C22.4012 31.5387 21.1552 34.2756 19.8842 36.0216C18.9462 37.3096 17.8922 38.1586 17.0072 38.4586C16.4142 38.6607 15.9142 38.6297 15.5012 38.5277C14.9012 38.3797 14.4032 38.0546 14.0212 37.5376C13.8132 37.2546 13.6202 36.8756 13.5282 36.3916C13.4842 36.1586 13.4792 35.5667 13.4802 35.2987C13.2212 34.4077 12.9042 33.5376 12.6732 32.6386C12.1222 30.4936 11.0412 29.1356 9.7572 27.3416C8.5562 25.6626 7.26624 24.6077 5.37524 23.7657C5.12924 23.7057 3.14423 23.2196 2.44323 22.9406C1.41923 22.5316 0.931209 21.8466 0.754209 21.4776C0.453209 20.8516 0.422237 20.3047 0.482237 19.8487C0.571237 19.1757 0.873239 18.5997 1.40924 18.1347C1.74124 17.8457 2.23724 17.5646 2.90124 17.4276C3.41424 17.3206 4.77518 17.2587 4.96618 17.2497ZM16.6112 13.7536C16.7032 13.9586 16.8012 14.1646 16.9052 14.3726C19.1212 18.7986 21.5992 21.2697 24.6112 22.4687L24.7122 22.5077C22.6972 24.0037 20.8732 25.6757 19.4792 27.2787C18.9052 27.9387 18.1452 29.3097 17.3242 30.7157C16.5782 28.2907 15.3582 26.5767 13.8242 24.4317C12.6522 22.7947 11.4242 21.5627 9.91522 20.5587C11.0862 19.9577 12.2032 19.2537 13.1762 18.4317C14.7962 17.0627 15.8672 15.4766 16.6112 13.7536Z" fill="#C6C4C4"/>
</g>
<defs>
<clipPath id="clip0_726_106">
<rect width="39" height="39" fill="white"/>
</clipPath>
</defs>
</svg>
