<svg width="66" height="31" viewBox="0 0 66 31" fill="none" xmlns="http://www.w3.org/2000/svg">
<path d="M6.88672 7.9707C8.54267 8.64948 9.78915 10.2164 10.8464 11.3179C14.5406 15.1669 18.1729 19.0478 21.9011 22.8784" stroke="#0094FF" stroke-width="3" stroke-linecap="round" stroke-linejoin="round"/>
<path d="M22.7555 9.12082C22.7822 8.94414 22.4489 7.57438 22.6985 8.10527C24.2097 11.3203 25.5088 14.6599 27.1093 17.8799" stroke="#0094FF" stroke-width="3" stroke-linecap="round" stroke-linejoin="round"/>
<path d="M1.54274 23.5547C1.90058 21.1804 14.2782 28.4181 15.674 29.1642" stroke="#0094FF" stroke-width="3" stroke-linecap="round" stroke-linejoin="round"/>
<path d="M44.0842 20.2048C43.6544 20.1459 44.807 19.7377 45.2102 19.5856C50.8747 17.4489 56.4862 15.3445 62.2293 13.4094" stroke="#0094FF" stroke-width="3" stroke-linecap="round" stroke-linejoin="round"/>
<path d="M36.7521 18.4873C37.9986 11.6681 40.9388 7.1618 45.2572 1.80409" stroke="#0094FF" stroke-width="3" stroke-linecap="round" stroke-linejoin="round"/>
<path d="M48.0657 27.89C53.2448 28.1744 58.8326 26.9201 64.0002 26.5033" stroke="#0094FF" stroke-width="3" stroke-linecap="round" stroke-linejoin="round"/>
</svg>
