<svg width="142" height="120" viewBox="0 0 142 120" fill="none" xmlns="http://www.w3.org/2000/svg">
<path d="M94.9159 91.2941C95.7935 83.6252 90.9916 72.8506 87.6414 65.2626C83.2619 55.3431 78.1891 45.247 68.3227 41.2756C61.0252 38.3382 54.1311 40.4816 49.0106 44.5269C45.1831 47.5507 35.9621 57.4386 41.2492 64.8325C44.9336 69.9851 52.1031 70.506 55.8124 68.1611C62.0585 64.2125 61.6497 53.9188 58.1997 45.767C53.8458 35.48 45.5385 26.9847 36.0735 23.9742C23.8712 20.093 12.9259 23.4801 3.16073 28.1125" stroke="#0094FF" stroke-width="3" stroke-linecap="round" stroke-linejoin="round"/>
<path d="M3.03762 27.4251C3.1369 27.5526 3.35148 27.6677 3.36258 27.8437C3.36711 27.9156 3.14866 28.2185 3.13386 28.049C3.09115 27.5597 3.58349 26.805 3.79589 26.3511C5.05966 23.651 6.40554 20.9763 7.65037 18.2717" stroke="#0094FF" stroke-width="3" stroke-linecap="round" stroke-linejoin="round"/>
<path d="M3.16036 28.1127C3.36194 28.1011 3.47496 28.1258 3.64557 28.2177C4.17954 28.5052 4.92317 28.481 5.51099 28.5763C8.68786 29.0913 11.8344 29.7166 15.0244 30.1729" stroke="#0094FF" stroke-width="3" stroke-linecap="round" stroke-linejoin="round"/>
<path d="M64.272 108.464C64.4107 108.464 64.5173 108.533 64.592 108.672C64.6773 108.8 64.72 108.965 64.72 109.168C64.72 109.413 64.6827 109.605 64.608 109.744C64.5333 109.883 64.416 110.005 64.256 110.112C63.6267 110.528 62.624 111.211 61.248 112.16C60.832 114.368 60.2933 116.107 59.632 117.376C58.9707 118.645 58.1333 119.28 57.12 119.28C56.576 119.28 56.1333 119.109 55.792 118.768C55.4507 118.437 55.28 118 55.28 117.456C55.28 116.955 55.392 116.448 55.616 115.936C55.84 115.424 56.256 114.832 56.864 114.16C57.4827 113.488 58.352 112.72 59.472 111.856L59.52 111.552C58.6773 111.904 57.8507 112.08 57.04 112.08C55.8453 112.08 54.7947 111.851 53.888 111.392C52.9813 110.923 52.2773 110.261 51.776 109.408C51.2747 108.555 51.024 107.563 51.024 106.432C51.024 104.853 51.3227 103.461 51.92 102.256C52.5173 101.04 53.3387 100.101 54.384 99.44C55.44 98.768 56.6187 98.432 57.92 98.432C59.168 98.432 60.1013 98.7253 60.72 99.312C61.3493 99.888 61.664 100.656 61.664 101.616C61.664 102.245 61.5467 102.752 61.312 103.136C61.088 103.509 60.7627 103.696 60.336 103.696C60.048 103.696 59.8133 103.627 59.632 103.488C59.4613 103.349 59.376 103.157 59.376 102.912C59.376 102.805 59.3973 102.624 59.44 102.368C59.504 102.069 59.536 101.835 59.536 101.664C59.536 101.216 59.3973 100.869 59.12 100.624C58.8533 100.379 58.4 100.256 57.76 100.256C56.9813 100.256 56.256 100.48 55.584 100.928C54.9227 101.376 54.3893 102.048 53.984 102.944C53.5787 103.829 53.376 104.896 53.376 106.144C53.376 107.424 53.7227 108.416 54.416 109.12C55.12 109.813 56.1333 110.16 57.456 110.16C58.192 110.16 58.96 109.995 59.76 109.664L59.984 107.712H58.352C58.0533 107.712 57.824 107.643 57.664 107.504C57.504 107.355 57.424 107.115 57.424 106.784C57.424 106.485 57.504 106.251 57.664 106.08C57.824 105.909 58.0373 105.824 58.304 105.824H61.296C61.5307 105.824 61.7227 105.904 61.872 106.064C62.032 106.213 62.096 106.432 62.064 106.72C62.032 107.061 61.9253 107.835 61.744 109.04L61.568 110.256C62.4213 109.616 63.2 109.061 63.904 108.592C64.0427 108.507 64.1653 108.464 64.272 108.464ZM57.296 117.728C57.5733 117.728 57.8773 117.413 58.208 116.784C58.5387 116.155 58.848 115.141 59.136 113.744C58.3253 114.437 57.7387 115.061 57.376 115.616C57.024 116.181 56.848 116.677 56.848 117.104C56.848 117.52 56.9973 117.728 57.296 117.728ZM64.7009 112.08C64.2955 112.08 64.0075 111.867 63.8369 111.44C63.6769 111.013 63.5969 110.331 63.5969 109.392C63.5969 108.005 63.7942 106.688 64.1889 105.44C64.2849 105.131 64.4395 104.907 64.6529 104.768C64.8769 104.619 65.1862 104.544 65.5809 104.544C65.7942 104.544 65.9435 104.571 66.0289 104.624C66.1142 104.677 66.1569 104.779 66.1569 104.928C66.1569 105.099 66.0769 105.483 65.9169 106.08C65.8102 106.507 65.7249 106.88 65.6609 107.2C65.5969 107.52 65.5435 107.915 65.5009 108.384C65.8529 107.467 66.2475 106.72 66.6849 106.144C67.1222 105.568 67.5489 105.157 67.9649 104.912C68.3915 104.667 68.7809 104.544 69.1329 104.544C69.8262 104.544 70.1729 104.891 70.1729 105.584C70.1729 105.723 70.1249 106.059 70.0289 106.592C69.9435 107.019 69.9009 107.285 69.9009 107.392C69.9009 107.765 70.0342 107.952 70.3009 107.952C70.5995 107.952 70.9835 107.717 71.4529 107.248C71.5915 107.109 71.7355 107.04 71.8849 107.04C72.0235 107.04 72.1302 107.104 72.2049 107.232C72.2902 107.349 72.3329 107.509 72.3329 107.712C72.3329 108.107 72.2262 108.416 72.0129 108.64C71.7142 108.949 71.3622 109.216 70.9569 109.44C70.5622 109.653 70.1409 109.76 69.6929 109.76C69.1275 109.76 68.6955 109.616 68.3969 109.328C68.1089 109.04 67.9649 108.651 67.9649 108.16C67.9649 108 67.9809 107.84 68.0129 107.68C68.0342 107.467 68.0449 107.323 68.0449 107.248C68.0449 107.077 67.9862 106.992 67.8689 106.992C67.7089 106.992 67.4955 107.173 67.2289 107.536C66.9729 107.888 66.7169 108.357 66.4609 108.944C66.2049 109.531 65.9969 110.149 65.8369 110.8C65.7195 111.301 65.5809 111.643 65.4209 111.824C65.2715 111.995 65.0315 112.08 64.7009 112.08ZM72.8141 112.08C72.1528 112.08 71.6248 111.84 71.2301 111.36C70.8355 110.88 70.6381 110.251 70.6381 109.472C70.6381 108.619 70.8355 107.813 71.2301 107.056C71.6248 106.288 72.1475 105.675 72.7981 105.216C73.4595 104.747 74.1581 104.512 74.8941 104.512C75.1288 104.512 75.2835 104.56 75.3581 104.656C75.4435 104.741 75.5128 104.901 75.5661 105.136C75.7901 105.093 76.0248 105.072 76.2701 105.072C76.7928 105.072 77.0541 105.259 77.0541 105.632C77.0541 105.856 76.9741 106.389 76.8141 107.232C76.5688 108.459 76.4461 109.312 76.4461 109.792C76.4461 109.952 76.4835 110.08 76.5581 110.176C76.6435 110.272 76.7501 110.32 76.8781 110.32C77.0808 110.32 77.3261 110.192 77.6141 109.936C77.9021 109.669 78.2915 109.243 78.7821 108.656C78.9101 108.507 79.0541 108.432 79.2141 108.432C79.3528 108.432 79.4595 108.496 79.5341 108.624C79.6195 108.752 79.6621 108.928 79.6621 109.152C79.6621 109.579 79.5608 109.909 79.3581 110.144C78.9208 110.688 78.4568 111.147 77.9661 111.52C77.4755 111.893 77.0008 112.08 76.5421 112.08C76.1901 112.08 75.8648 111.963 75.5661 111.728C75.2781 111.483 75.0595 111.152 74.9101 110.736C74.3555 111.632 73.6568 112.08 72.8141 112.08ZM73.3901 110.464C73.6248 110.464 73.8488 110.325 74.0621 110.048C74.2755 109.771 74.4301 109.403 74.5261 108.944L75.1181 106C74.6701 106.011 74.2541 106.181 73.8701 106.512C73.4968 106.832 73.1981 107.259 72.9741 107.792C72.7501 108.325 72.6381 108.891 72.6381 109.488C72.6381 109.819 72.7021 110.064 72.8301 110.224C72.9688 110.384 73.1555 110.464 73.3901 110.464ZM85.4978 108.432C85.6364 108.432 85.7431 108.496 85.8177 108.624C85.9031 108.752 85.9458 108.928 85.9458 109.152C85.9458 109.579 85.8444 109.909 85.6418 110.144C85.1831 110.709 84.6818 111.173 84.1378 111.536C83.5938 111.899 82.9698 112.08 82.2658 112.08C80.0898 112.08 79.0018 110.549 79.0018 107.488C79.0018 107.019 79.0178 106.544 79.0498 106.064H78.4258C78.1058 106.064 77.8871 106.005 77.7698 105.888C77.6631 105.771 77.6098 105.584 77.6098 105.328C77.6098 104.731 77.8498 104.432 78.3298 104.432H79.2418C79.4231 103.259 79.7004 102.187 80.0738 101.216C80.4471 100.245 80.8951 99.472 81.4178 98.896C81.9511 98.32 82.5218 98.032 83.1298 98.032C83.5778 98.032 83.9298 98.2293 84.1858 98.624C84.4418 99.0187 84.5698 99.5147 84.5698 100.112C84.5698 101.765 83.8764 103.205 82.4898 104.432H84.2818C84.4524 104.432 84.5751 104.469 84.6498 104.544C84.7244 104.619 84.7618 104.757 84.7618 104.96C84.7618 105.696 84.1591 106.064 82.9538 106.064H81.0018C80.9804 106.597 80.9698 107.013 80.9698 107.312C80.9698 108.421 81.0978 109.2 81.3538 109.648C81.6204 110.096 82.0364 110.32 82.6018 110.32C83.0604 110.32 83.4658 110.181 83.8178 109.904C84.1698 109.627 84.5858 109.211 85.0658 108.656C85.1938 108.507 85.3378 108.432 85.4978 108.432ZM82.6978 99.568C82.5378 99.568 82.3564 99.7707 82.1538 100.176C81.9618 100.571 81.7751 101.125 81.5938 101.84C81.4231 102.544 81.2791 103.328 81.1618 104.192C81.7911 103.648 82.2604 103.04 82.5698 102.368C82.8898 101.685 83.0498 101.067 83.0498 100.512C83.0498 99.8827 82.9324 99.568 82.6978 99.568ZM86.275 112.08C85.795 112.08 85.4003 111.861 85.091 111.424C84.7923 110.976 84.643 110.421 84.643 109.76C84.643 108.96 84.6963 108.229 84.803 107.568C84.9097 106.896 85.0857 106.187 85.331 105.44C85.4377 105.12 85.587 104.891 85.779 104.752C85.971 104.613 86.275 104.544 86.691 104.544C86.9257 104.544 87.0857 104.581 87.171 104.656C87.267 104.731 87.315 104.843 87.315 104.992C87.315 105.077 87.2563 105.365 87.139 105.856C87.0323 106.251 86.947 106.608 86.883 106.928C86.6697 108.048 86.563 108.795 86.563 109.168C86.563 109.392 86.5897 109.552 86.643 109.648C86.6963 109.733 86.7817 109.776 86.899 109.776C87.059 109.776 87.2563 109.616 87.491 109.296C87.7363 108.976 87.9923 108.491 88.259 107.84C88.5363 107.189 88.803 106.389 89.059 105.44C89.1443 105.12 89.2723 104.891 89.443 104.752C89.6243 104.613 89.891 104.544 90.243 104.544C90.4883 104.544 90.659 104.576 90.755 104.64C90.851 104.693 90.899 104.8 90.899 104.96C90.899 105.227 90.7657 105.957 90.499 107.152C90.2003 108.517 90.051 109.36 90.051 109.68C90.051 109.883 90.0937 110.043 90.179 110.16C90.2643 110.267 90.3763 110.32 90.515 110.32C90.7283 110.32 90.979 110.192 91.267 109.936C91.5657 109.669 91.9603 109.243 92.451 108.656C92.579 108.507 92.723 108.432 92.883 108.432C93.0217 108.432 93.1283 108.496 93.203 108.624C93.2883 108.752 93.331 108.928 93.331 109.152C93.331 109.579 93.2297 109.909 93.027 110.144C92.5683 110.709 92.0723 111.173 91.539 111.536C91.0163 111.899 90.419 112.08 89.747 112.08C89.235 112.08 88.8563 111.883 88.611 111.488C88.3763 111.093 88.259 110.539 88.259 109.824C88.0777 110.549 87.8057 111.109 87.443 111.504C87.0803 111.888 86.691 112.08 86.275 112.08ZM94.1296 103.488C93.6816 103.488 93.3456 103.387 93.1216 103.184C92.8976 102.971 92.7856 102.677 92.7856 102.304C92.7856 101.931 92.9296 101.621 93.2176 101.376C93.5163 101.12 93.8843 100.992 94.3216 100.992C94.7163 100.992 95.0363 101.088 95.2816 101.28C95.527 101.472 95.6496 101.744 95.6496 102.096C95.6496 102.523 95.511 102.864 95.2336 103.12C94.9563 103.365 94.5883 103.488 94.1296 103.488ZM94.0016 112.08C93.3083 112.08 92.8016 111.835 92.4816 111.344C92.1723 110.853 92.0176 110.203 92.0176 109.392C92.0176 108.912 92.0763 108.299 92.1936 107.552C92.3216 106.795 92.4816 106.091 92.6736 105.44C92.7696 105.099 92.8976 104.864 93.0576 104.736C93.2176 104.608 93.4736 104.544 93.8256 104.544C94.3696 104.544 94.6416 104.725 94.6416 105.088C94.6416 105.355 94.5403 105.973 94.3376 106.944C94.0816 108.117 93.9536 108.912 93.9536 109.328C93.9536 109.648 93.9963 109.893 94.0816 110.064C94.167 110.235 94.311 110.32 94.5136 110.32C94.7056 110.32 94.9456 110.187 95.2336 109.92C95.5216 109.653 95.9056 109.232 96.3856 108.656C96.5136 108.507 96.6576 108.432 96.8176 108.432C96.9563 108.432 97.063 108.496 97.1376 108.624C97.223 108.752 97.2656 108.928 97.2656 109.152C97.2656 109.579 97.1643 109.909 96.9616 110.144C95.9056 111.435 94.919 112.08 94.0016 112.08ZM103.107 108.432C103.246 108.432 103.352 108.496 103.427 108.624C103.512 108.752 103.555 108.928 103.555 109.152C103.555 109.579 103.454 109.909 103.251 110.144C102.792 110.709 102.291 111.173 101.747 111.536C101.203 111.899 100.579 112.08 99.8751 112.08C97.6991 112.08 96.6111 110.549 96.6111 107.488C96.6111 107.019 96.6271 106.544 96.6591 106.064H96.0351C95.7151 106.064 95.4965 106.005 95.3791 105.888C95.2725 105.771 95.2191 105.584 95.2191 105.328C95.2191 104.731 95.4591 104.432 95.9391 104.432H96.8511C97.0325 103.259 97.3098 102.187 97.6831 101.216C98.0565 100.245 98.5045 99.472 99.0271 98.896C99.5605 98.32 100.131 98.032 100.739 98.032C101.187 98.032 101.539 98.2293 101.795 98.624C102.051 99.0187 102.179 99.5147 102.179 100.112C102.179 101.765 101.486 103.205 100.099 104.432H101.891C102.062 104.432 102.184 104.469 102.259 104.544C102.334 104.619 102.371 104.757 102.371 104.96C102.371 105.696 101.768 106.064 100.563 106.064H98.6111C98.5898 106.597 98.5791 107.013 98.5791 107.312C98.5791 108.421 98.7071 109.2 98.9631 109.648C99.2298 110.096 99.6458 110.32 100.211 110.32C100.67 110.32 101.075 110.181 101.427 109.904C101.779 109.627 102.195 109.211 102.675 108.656C102.803 108.507 102.947 108.432 103.107 108.432ZM100.307 99.568C100.147 99.568 99.9658 99.7707 99.7631 100.176C99.5711 100.571 99.3845 101.125 99.2031 101.84C99.0325 102.544 98.8885 103.328 98.7711 104.192C99.4005 103.648 99.8698 103.04 100.179 102.368C100.499 101.685 100.659 101.067 100.659 100.512C100.659 99.8827 100.542 99.568 100.307 99.568ZM109.388 108.432C109.527 108.432 109.634 108.496 109.708 108.624C109.794 108.752 109.836 108.928 109.836 109.152C109.836 109.579 109.735 109.909 109.532 110.144C109.138 110.624 108.578 111.067 107.852 111.472C107.138 111.877 106.37 112.08 105.548 112.08C104.428 112.08 103.559 111.776 102.94 111.168C102.322 110.56 102.012 109.728 102.012 108.672C102.012 107.936 102.167 107.253 102.476 106.624C102.786 105.984 103.212 105.477 103.756 105.104C104.311 104.731 104.935 104.544 105.628 104.544C106.247 104.544 106.743 104.731 107.116 105.104C107.49 105.467 107.676 105.963 107.676 106.592C107.676 107.328 107.41 107.963 106.876 108.496C106.354 109.019 105.463 109.435 104.204 109.744C104.471 110.235 104.978 110.48 105.724 110.48C106.204 110.48 106.748 110.315 107.356 109.984C107.975 109.643 108.508 109.2 108.956 108.656C109.084 108.507 109.228 108.432 109.388 108.432ZM105.356 106.112C104.962 106.112 104.626 106.341 104.348 106.8C104.082 107.259 103.948 107.813 103.948 108.464V108.496C104.578 108.347 105.074 108.123 105.436 107.824C105.799 107.525 105.98 107.179 105.98 106.784C105.98 106.581 105.922 106.421 105.804 106.304C105.698 106.176 105.548 106.112 105.356 106.112ZM109.67 112.08C109.264 112.08 108.976 111.867 108.806 111.44C108.646 111.013 108.566 110.331 108.566 109.392C108.566 108.005 108.763 106.688 109.158 105.44C109.254 105.131 109.408 104.907 109.622 104.768C109.846 104.619 110.155 104.544 110.55 104.544C110.763 104.544 110.912 104.571 110.998 104.624C111.083 104.677 111.126 104.779 111.126 104.928C111.126 105.099 111.046 105.483 110.886 106.08C110.779 106.507 110.694 106.88 110.63 107.2C110.566 107.509 110.512 107.899 110.47 108.368C110.758 107.536 111.099 106.832 111.494 106.256C111.899 105.68 112.31 105.253 112.726 104.976C113.152 104.688 113.552 104.544 113.926 104.544C114.299 104.544 114.56 104.629 114.71 104.8C114.87 104.971 114.95 105.232 114.95 105.584C114.95 105.925 114.848 106.544 114.646 107.44C114.56 107.824 114.502 108.112 114.47 108.304C115.003 106.992 115.595 106.037 116.246 105.44C116.896 104.843 117.504 104.544 118.07 104.544C118.763 104.544 119.11 104.891 119.11 105.584C119.11 106 118.992 106.752 118.758 107.84C118.555 108.768 118.454 109.381 118.454 109.68C118.454 110.107 118.608 110.32 118.918 110.32C119.131 110.32 119.382 110.192 119.67 109.936C119.968 109.669 120.363 109.243 120.854 108.656C120.982 108.507 121.126 108.432 121.286 108.432C121.424 108.432 121.531 108.496 121.606 108.624C121.691 108.752 121.734 108.928 121.734 109.152C121.734 109.579 121.632 109.909 121.43 110.144C120.971 110.709 120.475 111.173 119.942 111.536C119.419 111.899 118.822 112.08 118.15 112.08C117.606 112.08 117.195 111.925 116.918 111.616C116.64 111.296 116.502 110.837 116.502 110.24C116.502 109.941 116.576 109.408 116.726 108.64C116.864 107.968 116.934 107.504 116.934 107.248C116.934 107.077 116.875 106.992 116.758 106.992C116.619 106.992 116.422 107.173 116.166 107.536C115.91 107.888 115.654 108.357 115.398 108.944C115.142 109.531 114.934 110.149 114.774 110.8C114.656 111.312 114.518 111.653 114.358 111.824C114.208 111.995 113.963 112.08 113.622 112.08C113.27 112.08 113.003 111.915 112.822 111.584C112.651 111.243 112.566 110.832 112.566 110.352C112.566 109.947 112.619 109.36 112.726 108.592C112.811 107.909 112.854 107.461 112.854 107.248C112.854 107.077 112.795 106.992 112.678 106.992C112.518 106.992 112.315 107.184 112.07 107.568C111.824 107.952 111.584 108.443 111.35 109.04C111.126 109.637 110.944 110.224 110.806 110.8C110.688 111.301 110.55 111.643 110.39 111.824C110.24 111.995 110 112.08 109.67 112.08ZM127.576 108.432C127.715 108.432 127.821 108.496 127.896 108.624C127.981 108.752 128.024 108.928 128.024 109.152C128.024 109.579 127.923 109.909 127.72 110.144C127.325 110.624 126.765 111.067 126.04 111.472C125.325 111.877 124.557 112.08 123.736 112.08C122.616 112.08 121.747 111.776 121.128 111.168C120.509 110.56 120.2 109.728 120.2 108.672C120.2 107.936 120.355 107.253 120.664 106.624C120.973 105.984 121.4 105.477 121.944 105.104C122.499 104.731 123.123 104.544 123.816 104.544C124.435 104.544 124.931 104.731 125.304 105.104C125.677 105.467 125.864 105.963 125.864 106.592C125.864 107.328 125.597 107.963 125.064 108.496C124.541 109.019 123.651 109.435 122.392 109.744C122.659 110.235 123.165 110.48 123.912 110.48C124.392 110.48 124.936 110.315 125.544 109.984C126.163 109.643 126.696 109.2 127.144 108.656C127.272 108.507 127.416 108.432 127.576 108.432ZM123.544 106.112C123.149 106.112 122.813 106.341 122.536 106.8C122.269 107.259 122.136 107.813 122.136 108.464V108.496C122.765 108.347 123.261 108.123 123.624 107.824C123.987 107.525 124.168 107.179 124.168 106.784C124.168 106.581 124.109 106.421 123.992 106.304C123.885 106.176 123.736 106.112 123.544 106.112ZM127.857 112.08C127.452 112.08 127.164 111.867 126.993 111.44C126.833 111.013 126.753 110.331 126.753 109.392C126.753 108.005 126.95 106.688 127.345 105.44C127.441 105.131 127.596 104.907 127.809 104.768C128.033 104.619 128.342 104.544 128.737 104.544C128.95 104.544 129.1 104.571 129.185 104.624C129.27 104.677 129.313 104.779 129.313 104.928C129.313 105.099 129.233 105.483 129.073 106.08C128.966 106.507 128.881 106.88 128.817 107.2C128.753 107.52 128.7 107.915 128.657 108.384C129.009 107.467 129.404 106.72 129.841 106.144C130.278 105.568 130.705 105.157 131.121 104.912C131.548 104.667 131.937 104.544 132.289 104.544C132.982 104.544 133.329 104.891 133.329 105.584C133.329 106 133.212 106.752 132.977 107.84C132.774 108.768 132.673 109.381 132.673 109.68C132.673 110.107 132.828 110.32 133.137 110.32C133.35 110.32 133.601 110.192 133.889 109.936C134.188 109.669 134.582 109.243 135.073 108.656C135.201 108.507 135.345 108.432 135.505 108.432C135.644 108.432 135.75 108.496 135.825 108.624C135.91 108.752 135.953 108.928 135.953 109.152C135.953 109.579 135.852 109.909 135.649 110.144C135.19 110.709 134.694 111.173 134.161 111.536C133.638 111.899 133.041 112.08 132.369 112.08C131.825 112.08 131.414 111.925 131.137 111.616C130.86 111.296 130.721 110.837 130.721 110.24C130.721 109.941 130.796 109.408 130.945 108.64C131.084 107.968 131.153 107.504 131.153 107.248C131.153 107.077 131.094 106.992 130.977 106.992C130.838 106.992 130.641 107.173 130.385 107.536C130.14 107.888 129.884 108.357 129.617 108.944C129.361 109.531 129.153 110.149 128.993 110.8C128.876 111.301 128.737 111.643 128.577 111.824C128.428 111.995 128.188 112.08 127.857 112.08ZM137.299 106.064C137.277 106.597 137.267 107.013 137.267 107.312C137.267 108.08 137.304 108.683 137.379 109.12C137.464 109.547 137.597 109.856 137.779 110.048C137.971 110.229 138.232 110.32 138.563 110.32C138.733 110.32 138.936 110.267 139.171 110.16C139.405 110.053 139.619 109.915 139.811 109.744C139.928 109.637 140.045 109.584 140.163 109.584C140.291 109.584 140.392 109.659 140.467 109.808C140.552 109.947 140.595 110.117 140.595 110.32C140.595 110.523 140.552 110.72 140.467 110.912C140.392 111.104 140.275 111.264 140.115 111.392C139.56 111.851 138.931 112.08 138.227 112.08C137.213 112.08 136.472 111.659 136.003 110.816C135.533 109.963 135.299 108.853 135.299 107.488C135.299 107.019 135.315 106.544 135.347 106.064H134.723C134.403 106.064 134.184 106.005 134.067 105.888C133.96 105.771 133.907 105.584 133.907 105.328C133.907 104.731 134.147 104.432 134.627 104.432H135.539C135.72 103.259 135.997 102.187 136.371 101.216C136.744 100.245 137.192 99.472 137.715 98.896C138.248 98.32 138.819 98.032 139.427 98.032C139.875 98.032 140.227 98.2293 140.483 98.624C140.739 99.0187 140.867 99.5147 140.867 100.112C140.867 101.765 140.173 103.205 138.787 104.432H140.579C140.749 104.432 140.872 104.469 140.947 104.544C141.021 104.619 141.059 104.757 141.059 104.96C141.059 105.696 140.456 106.064 139.251 106.064H137.299ZM138.995 99.568C138.835 99.568 138.653 99.7707 138.451 100.176C138.259 100.571 138.072 101.125 137.891 101.84C137.72 102.544 137.576 103.328 137.459 104.192C138.088 103.648 138.557 103.04 138.867 102.368C139.187 101.685 139.347 101.067 139.347 100.512C139.347 99.8827 139.229 99.568 138.995 99.568Z" fill="#636363"/>
</svg>
