<svg width="35" height="24" viewBox="0 0 35 24" fill="none" xmlns="http://www.w3.org/2000/svg">
<g clip-path="url(#clip0_440_116)">
<path d="M4.49913 7.93675C3.76956 8.96319 1.66196 9.12479 0.699351 9.07725C-0.364583 12.2137 1.76329 16.063 2.52324 16.6332C3.1312 17.0894 4.49913 17.0134 5.10708 16.9183C5.83662 18.1729 8.75485 20.0072 10.1228 20.7676V23.6189H13.7706V22.0507H21.2181V23.6189H24.8659V20.7676C24.8659 20.4825 25.4738 20.1973 28.3616 18.4865C30.088 17.4638 30.9453 15.0655 31.1608 12.784C31.5957 12.5939 32.6782 11.9286 33.5294 10.788C34.3805 9.64753 34.5933 7.65161 34.5933 6.79622C34.4919 7.03382 34.1981 7.6801 33.8333 8.36445C33.4686 9.04875 31.7944 9.40989 31.0028 9.50494C30.9443 9.24597 30.8743 9.00677 30.7935 8.79214C29.8816 6.36852 26.8418 2.23414 20.1541 1.37875C13.4666 0.523358 10.5788 2.66183 8.60288 3.65979C6.62697 4.65774 5.41105 6.65367 4.49913 7.93675Z" fill="#189D15" stroke="#198617" stroke-width="0.3"/>
<path d="M28.362 18.4865C25.4742 20.1973 24.8663 20.4825 24.8663 20.7676C24.8663 20.9957 24.7143 22.7635 24.7143 23.6189H23.9543H21.2185V22.0507C21.001 21.9487 15.2908 21.9081 13.771 21.9081V22.6209V23.6189H12.707V21.9081H13.771C16.8801 21.6609 20.4561 21.2993 22.2824 20.5439C22.8975 20.2895 23.4521 20.0067 23.9543 19.6955C26.2618 18.266 27.4651 16.2399 28.362 13.6393C30.0025 8.88323 26.0822 4.17256 23.0424 2.00537C27.7448 3.49101 30.0252 6.74928 30.7939 8.7921C30.9035 9.08349 30.9934 9.42018 31.0616 9.79008C31.7323 9.69504 33.165 9.41942 33.5298 9.07725C33.8945 8.73511 34.087 8.45946 34.1377 8.36441C33.9857 8.88715 33.5298 10.1322 32.9218 10.9306C32.3138 11.729 31.5105 12.3087 31.1849 12.4988C31.0158 14.8628 30.1605 17.4211 28.362 18.4865Z" fill="#198617"/>
<path d="M8.45117 0.380859V3.94497L10.2751 4.37267C10.1737 4.08756 9.94067 3.26067 9.8191 2.2342C9.6975 1.20774 8.85648 0.570947 8.45117 0.380859Z" fill="#189D15" stroke="#198617" stroke-width="0.3"/>
<path d="M9.05859 0.523438L9.36256 4.23013L11.7944 5.51321C11.7944 5.27561 11.7336 4.45824 11.4904 3.08961C11.2473 1.72098 9.76787 0.808565 9.05859 0.523438Z" fill="#189D15" stroke="#198617" stroke-width="0.3"/>
<path d="M8.45083 3.80225L8.29883 3.9448L8.45083 4.94278L11.7946 6.36842L12.2506 5.51303L10.7307 4.37249L8.45083 3.80225Z" fill="#189D15"/>
<path d="M7.69089 9.79034C8.27848 9.79034 8.75482 9.34354 8.75482 8.79239C8.75482 8.24123 8.27848 7.79443 7.69089 7.79443C7.10329 7.79443 6.62695 8.24123 6.62695 8.79239C6.62695 9.34354 7.10329 9.79034 7.69089 9.79034Z" fill="#198617"/>
<path d="M13.6182 3.42423C13.6182 3.25913 13.7435 3.11687 13.9168 3.08617C17.2291 2.49934 19.0507 2.54329 21.8452 3.08398C22.0112 3.1161 22.1296 3.2534 22.1296 3.41208C22.1296 3.63402 21.9029 3.79473 21.6732 3.73985C18.7661 3.04539 17.1079 3.16028 14.0671 3.76256C13.8368 3.80817 13.6182 3.64455 13.6182 3.42423Z" fill="#198617"/>
</g>
<defs>
<clipPath id="clip0_440_116">
<rect width="35" height="24" fill="white"/>
</clipPath>
</defs>
</svg>
