<svg width="30" height="22" viewBox="0 0 30 22" fill="none" xmlns="http://www.w3.org/2000/svg">
<g clip-path="url(#clip0_440_69)">
<path d="M24.153 0H3.2C1.43269 0 0 1.51534 0 3.38462V18.5804C0 20.4496 1.43269 21.965 3.2 21.965H24.153C25.9203 21.965 27.353 20.4496 27.353 18.5804V3.38462C27.353 1.51534 25.9203 0 24.153 0Z" fill="#007FFF"/>
<path d="M26.8 1.56885H3.2C1.43269 1.56885 0 3.08419 0 4.95346V18.5803C0 20.4496 1.43269 21.9649 3.2 21.9649H26.8C28.5673 21.9649 30 20.4496 30 18.5803V4.95346C30 3.08419 28.5673 1.56885 26.8 1.56885Z" fill="#0094FF"/>
<path d="M29.706 18.2683V5.24269C29.706 3.38374 28.2885 1.87271 26.531 1.85818L10.7354 1.72754L17.353 21.6529H26.506C28.2733 21.6529 29.706 20.1376 29.706 18.2683Z" fill="#007FFF"/>
<path d="M21.4707 10.9826C21.4707 9.2496 22.7989 7.84473 24.4374 7.84473H30.0001V14.1204H24.4374C22.7989 14.1204 21.4707 12.7156 21.4707 10.9826Z" fill="#01468C"/>
<path d="M25.5878 12.5514C26.4 12.5514 27.0584 11.849 27.0584 10.9825C27.0584 10.116 26.4 9.41357 25.5878 9.41357C24.7756 9.41357 24.1172 10.116 24.1172 10.9825C24.1172 11.849 24.7756 12.5514 25.5878 12.5514Z" fill="white"/>
</g>
<defs>
<clipPath id="clip0_440_69">
<rect width="30" height="22" fill="white"/>
</clipPath>
</defs>
</svg>
