<svg width="813" height="936" viewBox="0 0 813 936" fill="none" xmlns="http://www.w3.org/2000/svg">
<path d="M285.958 71.2082C285.958 71.2082 226.914 253.779 277.678 324.804C352.067 428.882 641.039 330.705 678.101 456.647C710.539 566.876 566.147 821.694 566.147 821.694" stroke="white" stroke-opacity="0.32"/>
<path d="M87.8387 193.408C87.8387 193.408 28.7942 375.979 79.5588 447.004C153.948 551.082 507.06 438.922 544.122 564.865C576.56 675.094 517.676 851.591 517.676 851.591" stroke="white" stroke-opacity="0.32"/>
<path d="M162.408 147.414C162.408 147.414 119.798 313.757 170.563 384.782C244.952 488.86 573.397 400.442 610.459 526.384C642.897 636.614 545.328 829.663 545.328 829.663" stroke="white" stroke-opacity="0.32"/>
</svg>
