<svg width="308" height="52" viewBox="0 0 308 52" fill="none" xmlns="http://www.w3.org/2000/svg">
<path d="M84.9841 32H82.7441L77.6721 24.336V32H75.4321V20.816H77.6721L82.7441 28.496V20.816H84.9841V32ZM91.1338 32.144C90.2804 32.144 89.5124 31.9573 88.8298 31.584C88.1471 31.2 87.6084 30.6613 87.2138 29.968C86.8298 29.2747 86.6378 28.4747 86.6378 27.568C86.6378 26.6613 86.8351 25.8613 87.2298 25.168C87.6351 24.4747 88.1844 23.9413 88.8778 23.568C89.5711 23.184 90.3444 22.992 91.1978 22.992C92.0511 22.992 92.8244 23.184 93.5178 23.568C94.2111 23.9413 94.7551 24.4747 95.1498 25.168C95.5551 25.8613 95.7578 26.6613 95.7578 27.568C95.7578 28.4747 95.5498 29.2747 95.1337 29.968C94.7284 30.6613 94.1738 31.2 93.4698 31.584C92.7764 31.9573 91.9978 32.144 91.1338 32.144ZM91.1338 30.192C91.5391 30.192 91.9178 30.096 92.2698 29.904C92.6324 29.7013 92.9204 29.4027 93.1338 29.008C93.3471 28.6133 93.4538 28.1333 93.4538 27.568C93.4538 26.7253 93.2298 26.08 92.7818 25.632C92.3444 25.1733 91.8058 24.944 91.1658 24.944C90.5258 24.944 89.9871 25.1733 89.5498 25.632C89.1231 26.08 88.9098 26.7253 88.9098 27.568C88.9098 28.4107 89.1178 29.0613 89.5338 29.52C89.9604 29.968 90.4938 30.192 91.1338 30.192ZM105.769 23.136V32H103.513V30.88C103.225 31.264 102.846 31.568 102.377 31.792C101.918 32.0053 101.417 32.112 100.873 32.112C100.18 32.112 99.5662 31.968 99.0329 31.68C98.4995 31.3813 98.0782 30.9493 97.7689 30.384C97.4702 29.808 97.3209 29.1253 97.3209 28.336V23.136H99.5609V28.016C99.5609 28.72 99.7369 29.264 100.089 29.648C100.441 30.0213 100.921 30.208 101.529 30.208C102.148 30.208 102.633 30.0213 102.985 29.648C103.337 29.264 103.513 28.72 103.513 28.016V23.136H105.769ZM111.371 32.144C110.646 32.144 109.995 32.016 109.419 31.76C108.843 31.4933 108.384 31.136 108.043 30.688C107.712 30.24 107.531 29.744 107.499 29.2H109.755C109.798 29.5413 109.963 29.824 110.251 30.048C110.55 30.272 110.918 30.384 111.355 30.384C111.782 30.384 112.112 30.2987 112.347 30.128C112.592 29.9573 112.715 29.7387 112.715 29.472C112.715 29.184 112.566 28.9707 112.267 28.832C111.979 28.6827 111.515 28.5227 110.875 28.352C110.214 28.192 109.67 28.0267 109.243 27.856C108.827 27.6853 108.464 27.424 108.155 27.072C107.856 26.72 107.707 26.2453 107.707 25.648C107.707 25.1573 107.846 24.7093 108.123 24.304C108.411 23.8987 108.816 23.5787 109.339 23.344C109.872 23.1093 110.496 22.992 111.211 22.992C112.267 22.992 113.11 23.2587 113.739 23.792C114.368 24.3147 114.715 25.024 114.779 25.92H112.635C112.603 25.568 112.454 25.2907 112.187 25.088C111.931 24.8747 111.584 24.768 111.147 24.768C110.742 24.768 110.427 24.8427 110.203 24.992C109.99 25.1413 109.883 25.3493 109.883 25.616C109.883 25.9147 110.032 26.144 110.331 26.304C110.63 26.4533 111.094 26.608 111.723 26.768C112.363 26.928 112.891 27.0933 113.307 27.264C113.723 27.4347 114.08 27.7013 114.379 28.064C114.688 28.416 114.848 28.8853 114.859 29.472C114.859 29.984 114.715 30.4427 114.427 30.848C114.15 31.2533 113.744 31.5733 113.211 31.808C112.688 32.032 112.075 32.144 111.371 32.144ZM128.75 27.376C128.75 27.696 128.729 27.984 128.686 28.24H122.206C122.26 28.88 122.484 29.3813 122.878 29.744C123.273 30.1067 123.758 30.288 124.334 30.288C125.166 30.288 125.758 29.9307 126.11 29.216H128.526C128.27 30.0693 127.78 30.7733 127.054 31.328C126.329 31.872 125.438 32.144 124.382 32.144C123.529 32.144 122.761 31.9573 122.078 31.584C121.406 31.2 120.878 30.6613 120.494 29.968C120.121 29.2747 119.934 28.4747 119.934 27.568C119.934 26.6507 120.121 25.8453 120.494 25.152C120.868 24.4587 121.39 23.9253 122.062 23.552C122.734 23.1787 123.508 22.992 124.382 22.992C125.225 22.992 125.977 23.1733 126.638 23.536C127.31 23.8987 127.828 24.416 128.19 25.088C128.564 25.7493 128.75 26.512 128.75 27.376ZM126.43 26.736C126.42 26.16 126.212 25.7013 125.806 25.36C125.401 25.008 124.905 24.832 124.318 24.832C123.764 24.832 123.294 25.0027 122.91 25.344C122.537 25.6747 122.308 26.1387 122.222 26.736H126.43ZM141.393 23.008C142.481 23.008 143.356 23.344 144.017 24.016C144.689 24.6773 145.025 25.6053 145.025 26.8V32H142.785V27.104C142.785 26.4107 142.609 25.8827 142.257 25.52C141.905 25.1467 141.425 24.96 140.817 24.96C140.209 24.96 139.724 25.1467 139.361 25.52C139.009 25.8827 138.833 26.4107 138.833 27.104V32H136.593V27.104C136.593 26.4107 136.417 25.8827 136.065 25.52C135.713 25.1467 135.233 24.96 134.625 24.96C134.007 24.96 133.516 25.1467 133.153 25.52C132.801 25.8827 132.625 26.4107 132.625 27.104V32H130.385V23.136H132.625V24.208C132.913 23.8347 133.281 23.5413 133.729 23.328C134.188 23.1147 134.689 23.008 135.233 23.008C135.927 23.008 136.545 23.1573 137.089 23.456C137.633 23.744 138.055 24.16 138.353 24.704C138.641 24.192 139.057 23.7813 139.601 23.472C140.156 23.1627 140.753 23.008 141.393 23.008ZM149.391 24.432C149.679 24.0053 150.074 23.6587 150.575 23.392C151.087 23.1253 151.668 22.992 152.319 22.992C153.076 22.992 153.759 23.1787 154.367 23.552C154.986 23.9253 155.471 24.4587 155.823 25.152C156.186 25.8347 156.367 26.6293 156.367 27.536C156.367 28.4427 156.186 29.248 155.823 29.952C155.471 30.6453 154.986 31.184 154.367 31.568C153.759 31.952 153.076 32.144 152.319 32.144C151.658 32.144 151.076 32.016 150.575 31.76C150.084 31.4933 149.69 31.152 149.391 30.736V32H147.151V20.16H149.391V24.432ZM154.079 27.536C154.079 27.0027 153.967 26.544 153.743 26.16C153.53 25.7653 153.242 25.4667 152.879 25.264C152.527 25.0613 152.143 24.96 151.727 24.96C151.322 24.96 150.938 25.0667 150.575 25.28C150.223 25.4827 149.935 25.7813 149.711 26.176C149.498 26.5707 149.391 27.0347 149.391 27.568C149.391 28.1013 149.498 28.5653 149.711 28.96C149.935 29.3547 150.223 29.6587 150.575 29.872C150.938 30.0747 151.322 30.176 151.727 30.176C152.143 30.176 152.527 30.0693 152.879 29.856C153.242 29.6427 153.53 29.3387 153.743 28.944C153.967 28.5493 154.079 28.08 154.079 27.536ZM157.419 27.536C157.419 26.64 157.595 25.8453 157.947 25.152C158.309 24.4587 158.795 23.9253 159.403 23.552C160.021 23.1787 160.709 22.992 161.467 22.992C162.128 22.992 162.704 23.1253 163.195 23.392C163.696 23.6587 164.096 23.9947 164.395 24.4V23.136H166.651V32H164.395V30.704C164.107 31.12 163.707 31.4667 163.195 31.744C162.693 32.0107 162.112 32.144 161.451 32.144C160.704 32.144 160.021 31.952 159.403 31.568C158.795 31.184 158.309 30.6453 157.947 29.952C157.595 29.248 157.419 28.4427 157.419 27.536ZM164.395 27.568C164.395 27.024 164.288 26.56 164.075 26.176C163.861 25.7813 163.573 25.4827 163.211 25.28C162.848 25.0667 162.459 24.96 162.043 24.96C161.627 24.96 161.243 25.0613 160.891 25.264C160.539 25.4667 160.251 25.7653 160.027 26.16C159.813 26.544 159.707 27.0027 159.707 27.536C159.707 28.0693 159.813 28.5387 160.027 28.944C160.251 29.3387 160.539 29.6427 160.891 29.856C161.253 30.0693 161.637 30.176 162.043 30.176C162.459 30.176 162.848 30.0747 163.211 29.872C163.573 29.6587 163.861 29.36 164.075 28.976C164.288 28.5813 164.395 28.112 164.395 27.568ZM177.206 23.136V32H174.95V30.88C174.662 31.264 174.284 31.568 173.814 31.792C173.356 32.0053 172.854 32.112 172.31 32.112C171.617 32.112 171.004 31.968 170.47 31.68C169.937 31.3813 169.516 30.9493 169.206 30.384C168.908 29.808 168.758 29.1253 168.758 28.336V23.136H170.998V28.016C170.998 28.72 171.174 29.264 171.526 29.648C171.878 30.0213 172.358 30.208 172.966 30.208C173.585 30.208 174.07 30.0213 174.422 29.648C174.774 29.264 174.95 28.72 174.95 28.016V23.136H177.206ZM178.84 27.568C178.84 26.6507 179.027 25.8507 179.401 25.168C179.774 24.4747 180.291 23.9413 180.953 23.568C181.614 23.184 182.371 22.992 183.225 22.992C184.323 22.992 185.23 23.2693 185.945 23.824C186.67 24.368 187.155 25.136 187.401 26.128H184.985C184.857 25.744 184.638 25.4453 184.329 25.232C184.03 25.008 183.657 24.896 183.209 24.896C182.569 24.896 182.062 25.1307 181.689 25.6C181.315 26.0587 181.129 26.7147 181.129 27.568C181.129 28.4107 181.315 29.0667 181.689 29.536C182.062 29.9947 182.569 30.224 183.209 30.224C184.115 30.224 184.707 29.8187 184.985 29.008H187.401C187.155 29.968 186.67 30.7307 185.945 31.296C185.219 31.8613 184.313 32.144 183.225 32.144C182.371 32.144 181.614 31.9573 180.953 31.584C180.291 31.2 179.774 30.6667 179.401 29.984C179.027 29.2907 178.84 28.4853 178.84 27.568ZM194.034 23.008C194.706 23.008 195.303 23.1573 195.826 23.456C196.348 23.744 196.754 24.176 197.042 24.752C197.34 25.3173 197.49 26 197.49 26.8V32H195.25V27.104C195.25 26.4 195.074 25.8613 194.722 25.488C194.37 25.104 193.89 24.912 193.282 24.912C192.663 24.912 192.172 25.104 191.81 25.488C191.458 25.8613 191.282 26.4 191.282 27.104V32H189.042V20.16H191.282V24.24C191.57 23.856 191.954 23.5573 192.434 23.344C192.914 23.12 193.447 23.008 194.034 23.008ZM203.556 32.144C202.702 32.144 201.934 31.9573 201.252 31.584C200.569 31.2 200.03 30.6613 199.636 29.968C199.252 29.2747 199.06 28.4747 199.06 27.568C199.06 26.6613 199.257 25.8613 199.652 25.168C200.057 24.4747 200.606 23.9413 201.3 23.568C201.993 23.184 202.766 22.992 203.62 22.992C204.473 22.992 205.246 23.184 205.94 23.568C206.633 23.9413 207.177 24.4747 207.572 25.168C207.977 25.8613 208.18 26.6613 208.18 27.568C208.18 28.4747 207.972 29.2747 207.556 29.968C207.15 30.6613 206.596 31.2 205.892 31.584C205.198 31.9573 204.42 32.144 203.556 32.144ZM203.556 30.192C203.961 30.192 204.34 30.096 204.692 29.904C205.054 29.7013 205.342 29.4027 205.556 29.008C205.769 28.6133 205.876 28.1333 205.876 27.568C205.876 26.7253 205.652 26.08 205.204 25.632C204.766 25.1733 204.228 24.944 203.588 24.944C202.948 24.944 202.409 25.1733 201.972 25.632C201.545 26.08 201.332 26.7253 201.332 27.568C201.332 28.4107 201.54 29.0613 201.956 29.52C202.382 29.968 202.916 30.192 203.556 30.192ZM214.735 23.008C215.791 23.008 216.644 23.344 217.295 24.016C217.945 24.6773 218.271 25.6053 218.271 26.8V32H216.031V27.104C216.031 26.4 215.855 25.8613 215.503 25.488C215.151 25.104 214.671 24.912 214.063 24.912C213.444 24.912 212.953 25.104 212.591 25.488C212.239 25.8613 212.063 26.4 212.063 27.104V32H209.823V23.136H212.063V24.24C212.361 23.856 212.74 23.5573 213.199 23.344C213.668 23.12 214.18 23.008 214.735 23.008ZM223.793 32.144C223.068 32.144 222.417 32.016 221.841 31.76C221.265 31.4933 220.806 31.136 220.465 30.688C220.134 30.24 219.953 29.744 219.921 29.2H222.177C222.22 29.5413 222.385 29.824 222.673 30.048C222.972 30.272 223.34 30.384 223.777 30.384C224.204 30.384 224.534 30.2987 224.769 30.128C225.014 29.9573 225.137 29.7387 225.137 29.472C225.137 29.184 224.988 28.9707 224.689 28.832C224.401 28.6827 223.937 28.5227 223.297 28.352C222.636 28.192 222.092 28.0267 221.665 27.856C221.249 27.6853 220.886 27.424 220.577 27.072C220.278 26.72 220.129 26.2453 220.129 25.648C220.129 25.1573 220.268 24.7093 220.545 24.304C220.833 23.8987 221.238 23.5787 221.761 23.344C222.294 23.1093 222.918 22.992 223.633 22.992C224.689 22.992 225.532 23.2587 226.161 23.792C226.79 24.3147 227.137 25.024 227.201 25.92H225.057C225.025 25.568 224.876 25.2907 224.609 25.088C224.353 24.8747 224.006 24.768 223.569 24.768C223.164 24.768 222.849 24.8427 222.625 24.992C222.412 25.1413 222.305 25.3493 222.305 25.616C222.305 25.9147 222.454 26.144 222.753 26.304C223.052 26.4533 223.516 26.608 224.145 26.768C224.785 26.928 225.313 27.0933 225.729 27.264C226.145 27.4347 226.502 27.7013 226.801 28.064C227.11 28.416 227.27 28.8853 227.281 29.472C227.281 29.984 227.137 30.4427 226.849 30.848C226.572 31.2533 226.166 31.5733 225.633 31.808C225.11 32.032 224.497 32.144 223.793 32.144ZM232.016 20.64L231.76 28.368H229.872L229.6 20.64H232.016ZM230.864 32.112C230.458 32.112 230.122 31.9893 229.856 31.744C229.6 31.488 229.472 31.1733 229.472 30.8C229.472 30.4267 229.6 30.1173 229.856 29.872C230.122 29.616 230.458 29.488 230.864 29.488C231.258 29.488 231.584 29.616 231.84 29.872C232.096 30.1173 232.224 30.4267 232.224 30.8C232.224 31.1733 232.096 31.488 231.84 31.744C231.584 31.9893 231.258 32.112 230.864 32.112Z" fill="#007FFF"/>
<path d="M178.419 9.20059C166.576 5.78476 152.615 1.61143 135.79 1.0957C105.246 0.15944 80.3762 6.22589 63.232 13.4614C50.0314 19.0327 37.2778 26.9926 40.5065 34.1405C44.9629 44.0061 76.9418 48.334 104.747 49.8639C155.167 52.6383 260.314 51.8338 266.722 29.8565C269.759 19.4413 247.532 10.4836 219.191 5.81969C204.012 3.32165 187.251 1.94767 170.101 1.74409C152.374 1.53365 138.618 3.40158 122.274 5.03236" stroke="#007FFF" stroke-linecap="round" stroke-linejoin="round"/>
</svg>
