<svg width="1440" height="1257" viewBox="0 0 1440 1257" fill="none" xmlns="http://www.w3.org/2000/svg">
<path d="M87.9008 119.371C87.9008 119.371 263.142 376.821 436.283 460.835C690 583.948 961.943 389.2 1193.57 549.768C1396.31 690.303 1552.66 1063.2 1552.66 1063.2" stroke="white" stroke-opacity="0.38"/>
<path d="M-20.5854 326.405C-20.5854 326.405 154.655 583.855 327.797 667.87C581.514 790.983 924.909 563.468 1156.54 724.035C1359.27 864.57 1526.11 1113.85 1526.11 1113.85" stroke="white" stroke-opacity="0.38"/>
<path d="M20.246 248.48C20.246 248.48 195.836 480.599 368.978 564.613C622.695 687.726 964.693 497.408 1196.32 657.976C1399.06 798.511 1534.33 1078.43 1534.33 1078.43" stroke="white" stroke-opacity="0.38"/>
</svg>
