<svg width="240" height="57" viewBox="0 0 240 57" fill="none" xmlns="http://www.w3.org/2000/svg">
<path d="M78.8044 24.1668C79.1911 23.8482 79.5376 23.4837 79.836 23.0813C80.9644 21.7106 81.7555 20.0942 82.1455 18.3621C82.4252 16.9976 82.3726 15.5859 81.9921 14.246C81.6115 12.9061 80.9143 11.6775 79.9592 10.6637C78.1346 8.76985 75.8251 8 71.9759 8H56.4943L54.0539 21.8572H47.3408L49.1269 29.0168H52.7913L49.9968 44.8602H67.9496C72.2684 44.8602 75.4864 43.7978 78.1654 41.5191C80.5383 39.4489 82.0921 36.598 82.5459 33.4819C82.8404 31.9972 82.7724 30.4633 82.3476 29.0105C81.9227 27.5577 81.1536 26.2288 80.1054 25.1368C79.7301 24.7418 79.2901 24.4137 78.8044 24.1668ZM64.0619 15.1673H69.9666C72.0683 15.1673 72.7534 15.6831 73.1768 16.2373C73.3986 16.5483 73.5553 16.901 73.6373 17.2741C73.7193 17.6471 73.7251 18.033 73.6541 18.4083C73.4716 19.2853 73.0097 20.0794 72.3377 20.6717C71.6756 21.2721 70.798 21.8264 68.6193 21.8264H62.884L64.0619 15.1673ZM74.016 33.2509C73.8034 34.4127 73.2038 35.4683 72.3146 36.2456C71.2445 37.2464 69.8434 37.6929 67.7802 37.6929H60.0818L61.3366 30.5873L61.6138 28.986H69.4893C72.1144 28.986 72.9767 29.7558 73.4078 30.364C73.7103 30.7734 73.9211 31.2432 74.0261 31.7413C74.131 32.2394 74.1276 32.7543 74.016 33.2509V33.2509Z" fill="#08272E"/>
<path d="M29.866 8L5 44.8602H14.9079L20.7818 36.1533H35.2934L37.4644 44.8602H47.3415L38.1034 8H29.866ZM25.6165 28.986L31.3826 20.4407L33.4843 28.986H25.6165Z" fill="#08272E"/>
<path d="M129.23 8H94.7255L93.6631 14.0048H107.52L102.093 44.8756H108.837L114.318 14.0048H128.175L129.23 8Z" fill="#08272E"/>
<path d="M144.035 21.7722C142.028 18.3849 138.846 16.6912 134.489 16.6912C132.349 16.6541 130.225 17.0768 128.262 17.9308C126.299 18.7847 124.543 20.0501 123.111 21.6413C120.089 24.8427 118.432 29.0949 118.492 33.4969C118.35 36.7306 119.452 39.8958 121.571 42.3425C123.627 44.5596 126.521 45.6605 130.209 45.6605C132.211 45.7139 134.199 45.3048 136.017 44.465C137.836 43.6251 139.436 42.3772 140.694 40.8182L140.17 44.8599H146.46L151.287 17.4842H144.805L144.035 21.7722ZM139.647 36.8689C138.696 37.8572 137.548 38.635 136.278 39.1522C135.007 39.6694 133.643 39.9143 132.272 39.8713C127.691 39.8713 125.058 37.1845 125.058 32.704C125.028 31.3731 125.264 30.0497 125.752 28.811C126.24 27.5724 126.97 26.4436 127.899 25.4905C128.85 24.5022 129.998 23.7244 131.268 23.2072C132.539 22.6901 133.903 22.4451 135.274 22.4882C139.893 22.4882 142.596 25.275 142.596 29.6477C142.612 30.9874 142.36 32.3169 141.854 33.5574C141.347 34.7978 140.597 35.9239 139.647 36.8689Z" fill="#08272E"/>
<path d="M168.431 21.6415C172.888 21.6415 174.589 22.7886 174.643 25.2367V25.5523L180.44 22.9733C179.878 18.5005 175.736 16.6914 168.954 16.6914C160.101 16.6914 154.62 19.7708 154.62 26.276C154.62 30.7026 157.306 32.8659 162.995 33.3355L168.738 33.8667C171.425 34.0745 172.588 34.8136 172.588 36.6535C172.588 39.3403 170.055 40.6567 164.943 40.6567C160.324 40.6567 158.469 39.602 158.307 37.0769V36.8152C158.307 36.8152 152.487 39.3711 152.487 39.4018C152.995 43.9593 157.26 45.6607 164.035 45.6607C173.519 45.6607 179.432 42.5043 179.432 35.7605C179.432 31.3339 176.907 29.4939 170.963 28.9089L165.228 28.3854C162.587 28.1775 161.271 27.2306 161.271 25.4907C161.317 22.9041 163.688 21.6415 168.431 21.6415Z" fill="#08272E"/>
<path d="M229.025 17.4848L216.053 38.1705L210.549 17.4848H196.692L198.077 9.60156L190.879 12.7733L190.048 17.4848H184.821L183.774 23.12H189.055L186.961 34.9449C185.86 41.2114 188.793 45.6303 195.96 45.6303H201.542L199.863 39.6024H197.885C194.174 39.6024 192.989 38.0628 193.628 34.4137C194.267 30.7646 195.629 23.0893 195.629 23.0893H205.391L211.427 45.6303L206.553 53.4366H213.521L236 17.4617L229.025 17.4848Z" fill="#08272E"/>
<g style="mix-blend-mode:multiply">
<path d="M36.6489 41.5812L45.5098 37.6396L45.1403 36.1538H35.2939L36.6489 41.5812Z" fill="#08272E"/>
</g>
<g style="mix-blend-mode:multiply">
<path d="M51.7605 34.8598L61.3451 30.5871L61.6222 28.9858H52.7921L51.7605 34.8598Z" fill="#08272E"/>
</g>
</svg>
