<svg width="95" height="53" viewBox="0 0 95 53" fill="none" xmlns="http://www.w3.org/2000/svg">
<path fill-rule="evenodd" clip-rule="evenodd" d="M69.3 8V38.1H62.2V9.5L69.3 8ZM48.9 40.9C50.9 40.9 52.5 42.5 52.5 44.4C52.5 46.4 50.9 47.9 48.9 47.9C46.9 47.9 45.3 46.3 45.3 44.4C45.4 42.5 47 40.9 48.9 40.9ZM48.9 16.5C55 16.5 59.9 21.4 59.9 27.4C59.9 33.4 55 38.3 48.9 38.3C42.8 38.3 37.9 33.4 37.9 27.4C37.9 21.4 42.9 16.5 48.9 16.5ZM48.9 31C50.9 31 52.5 29.4 52.5 27.5C52.5 25.5 50.9 24 48.9 24C46.9 24 45.3 25.6 45.3 27.5C45.4 29.4 47 31 48.9 31ZM26.5 31C27.7 31 28.7 30 28.7 28.8C28.7 27.6 27.7 26.6 26.5 26.6H21.1V31H26.5ZM21.1 15.1V19.5H25.1C26.3 19.5 27.3 18.5 27.3 17.3C27.3 16.1 26.3 15.1 25.1 15.1H21.1ZM33.1 22.2C34.8 23.9 35.9 26.2 35.9 28.8C35.9 33.9 31.7 38.1 26.5 38.1H14V8H25.1C30.3 8 34.5 12.2 34.5 17.3C34.5 19.1 34 20.8 33.1 22.2ZM82.7 24H79.1V29.6C79.1 31.3 79.6 32.5 81.1 32.5C82 32.5 82.7 32.3 82.7 32.3V37.5C82.7 37.5 81.2 38.4 79.2 38.4H79.1C79 38.4 78.9 38.4 78.8 38.4H78.7H78.6C74.6 38.2 71.9 35.7 71.9 31.4V13L79 11.5V16.9H82.6V24H82.7Z" fill="#073742"/>
</svg>
