<svg width="80" height="27" viewBox="0 0 80 27" fill="none" xmlns="http://www.w3.org/2000/svg">
<path d="M31.6405 14.0354C31.6405 17.541 28.9012 20.1242 25.5393 20.1242C22.1775 20.1242 19.4381 17.541 19.4381 14.0354C19.4381 10.5051 22.1775 7.94653 25.5393 7.94653C28.9012 7.94653 31.6405 10.5051 31.6405 14.0354ZM28.9697 14.0354C28.9697 11.8447 27.382 10.3458 25.5393 10.3458C23.6966 10.3458 22.1089 11.8447 22.1089 14.0354C22.1089 16.2041 23.6966 17.7249 25.5393 17.7249C27.382 17.7249 28.9697 16.2013 28.9697 14.0354Z" fill="white"/>
<path d="M44.8021 14.0354C44.8021 17.541 42.0628 20.1242 38.7009 20.1242C35.3391 20.1242 32.5997 17.541 32.5997 14.0354C32.5997 10.5078 35.3391 7.94653 38.7009 7.94653C42.0628 7.94653 44.8021 10.5051 44.8021 14.0354ZM42.1313 14.0354C42.1313 11.8447 40.5436 10.3458 38.7009 10.3458C36.8582 10.3458 35.2706 11.8447 35.2706 14.0354C35.2706 16.2041 36.8582 17.7249 38.7009 17.7249C40.5436 17.7249 42.1313 16.2013 42.1313 14.0354Z" fill="white"/>
<path d="M57.4168 8.31439V19.2457C57.4168 23.7424 54.7679 25.5789 51.6364 25.5789C48.6886 25.5789 46.9145 23.6051 46.2454 21.9909L48.5707 21.0219C48.9848 22.0129 49.9994 23.1823 51.6337 23.1823C53.6382 23.1823 54.8803 21.9443 54.8803 19.6136V18.7379H54.7871C54.1893 19.4763 53.0376 20.1215 51.5843 20.1215C48.5433 20.1215 45.7573 17.4696 45.7573 14.0573C45.7573 10.6203 48.5433 7.94653 51.5843 7.94653C53.0349 7.94653 54.1866 8.59165 54.7871 9.30815H54.8803V8.31713H57.4168V8.31439ZM55.0696 14.0573C55.0696 11.9133 53.6409 10.3458 51.8229 10.3458C49.9802 10.3458 48.4364 11.9133 48.4364 14.0573C48.4364 16.1794 49.9802 17.7249 51.8229 17.7249C53.6409 17.7249 55.0696 16.1794 55.0696 14.0573Z" fill="white"/>
<path d="M61.5992 1.90698V19.7507H58.9941V1.90698H61.5992Z" fill="white"/>
<path d="M71.7512 16.0394L73.8243 17.423C73.1552 18.414 71.5428 20.1215 68.7568 20.1215C65.3018 20.1215 62.7214 17.4477 62.7214 14.0327C62.7214 10.4118 65.3237 7.94385 68.4579 7.94385C71.6141 7.94385 73.1579 10.4584 73.6625 11.8173L73.9394 12.5091L65.8091 15.8802C66.4315 17.1018 67.3995 17.725 68.7568 17.725C70.1169 17.725 71.0602 17.0551 71.7512 16.0394ZM65.3703 13.8488L70.8052 11.5895C70.5063 10.829 69.6069 10.2992 68.5484 10.2992C67.1911 10.2992 65.3018 11.4989 65.3703 13.8488V13.8488Z" fill="white"/>
<path d="M9.57821 12.451V9.86774H18.2735C18.3585 10.318 18.4023 10.8505 18.4023 11.427C18.4023 13.3651 17.8731 15.7617 16.1675 17.4692C14.5085 19.1986 12.3889 20.121 9.58095 20.121C4.37642 20.121 0 15.877 0 10.6666C0 5.45622 4.37642 1.21216 9.58095 1.21216C12.4602 1.21216 14.5113 2.34318 16.0523 3.81734L14.2316 5.64015C13.1265 4.60247 11.6293 3.79538 9.57821 3.79538C5.77764 3.79538 2.80519 6.86176 2.80519 10.6666C2.80519 14.4714 5.77764 17.5378 9.57821 17.5378C12.0434 17.5378 13.4473 16.5468 14.3468 15.6464C15.0762 14.9161 15.556 13.873 15.7452 12.4482L9.57821 12.451V12.451Z" fill="white"/>
</svg>
