<svg width="269" height="89" viewBox="0 0 269 89" fill="none" xmlns="http://www.w3.org/2000/svg">
<g clip-path="url(#clip0_641_18)">
<path d="M115.377 46.8232C115.377 59.5556 105.416 68.9379 93.1923 68.9379C80.9684 68.9379 71.0078 59.5556 71.0078 46.8232C71.0078 34.0011 80.9684 24.7085 93.1923 24.7085C105.416 24.7085 115.377 34.0011 115.377 46.8232ZM105.665 46.8232C105.665 38.8667 99.8925 33.4228 93.1923 33.4228C86.4921 33.4228 80.7191 38.8667 80.7191 46.8232C80.7191 54.6999 86.4921 60.2236 93.1923 60.2236C99.8925 60.2236 105.665 54.69 105.665 46.8232Z" fill="#073742"/>
<path d="M163.236 46.8232C163.236 59.5556 153.276 68.9379 141.052 68.9379C128.828 68.9379 118.867 59.5556 118.867 46.8232C118.867 34.011 128.828 24.7085 141.052 24.7085C153.276 24.7085 163.236 34.0011 163.236 46.8232ZM153.525 46.8232C153.525 38.8667 147.752 33.4228 141.052 33.4228C134.351 33.4228 128.579 38.8667 128.579 46.8232C128.579 54.6999 134.351 60.2236 141.052 60.2236C147.752 60.2236 153.525 54.69 153.525 46.8232Z" fill="#073742"/>
<path d="M209.1 26.0446V65.7473C209.1 82.0791 199.468 88.7494 188.082 88.7494C177.364 88.7494 170.913 81.5806 168.48 75.7179L176.935 72.1983C178.44 75.7976 182.13 80.0451 188.072 80.0451C195.36 80.0451 199.877 75.5484 199.877 67.0834V63.9028H199.538C197.365 66.5848 193.177 68.9279 187.893 68.9279C176.835 68.9279 166.705 59.2964 166.705 46.903C166.705 34.4198 176.835 24.7085 187.893 24.7085C193.167 24.7085 197.355 27.0516 199.538 29.6539H199.877V26.0545H209.1V26.0446ZM200.565 46.903C200.565 39.116 195.37 33.4228 188.76 33.4228C182.06 33.4228 176.446 39.116 176.446 46.903C176.446 54.6102 182.06 60.2236 188.76 60.2236C195.37 60.2236 200.565 54.6102 200.565 46.903Z" fill="#073742"/>
<path d="M224.306 2.77319V67.5818H214.834V2.77319H224.306Z" fill="#073742"/>
<path d="M261.216 54.1017L268.754 59.1268C266.321 62.7262 260.458 68.9279 250.328 68.9279C237.765 68.9279 228.383 59.2166 228.383 46.8132C228.383 33.662 237.845 24.6985 249.241 24.6985C260.717 24.6985 266.331 33.8315 268.165 38.7669L269.172 41.2795L239.61 53.5234C241.873 57.9603 245.393 60.2236 250.328 60.2236C255.273 60.2236 258.703 57.7908 261.216 54.1017ZM238.014 46.1452L257.776 37.9394C256.689 35.1775 253.419 33.2532 249.57 33.2532C244.635 33.2532 237.765 37.6104 238.014 46.1452V46.1452Z" fill="#073742"/>
<path d="M35.1533 41.07V31.6877H66.77C67.0791 33.3228 67.2386 35.2571 67.2386 37.3509C67.2386 44.3902 65.3143 53.0945 59.1126 59.2961C53.0804 65.5776 45.3732 68.9277 35.1633 68.9277C16.2392 68.9277 0.326172 53.5132 0.326172 34.5891C0.326172 15.665 16.2392 0.250488 35.1633 0.250488C45.6324 0.250488 53.0904 4.35836 58.6938 9.71255L52.0734 16.333C48.0552 12.5641 42.6113 9.63278 35.1533 9.63278C21.3341 9.63278 10.5261 20.7699 10.5261 34.5891C10.5261 48.4083 21.3341 59.5454 35.1533 59.5454C44.1169 59.5454 49.2218 55.946 52.4921 52.6757C55.1443 50.0235 56.8892 46.2347 57.5771 41.06L35.1533 41.07Z" fill="#073742"/>
</g>
<defs>
<clipPath id="clip0_641_18">
<rect width="269" height="89" fill="white"/>
</clipPath>
</defs>
</svg>
