<svg width="239" height="57" viewBox="0 0 239 57" fill="none" xmlns="http://www.w3.org/2000/svg">
<path d="M98.7354 26.2956C96.815 30.6582 94.8919 35.0208 92.9744 39.3834C91.8142 42.0214 90.6768 44.6707 89.4939 47.3002C89.1989 47.9554 89.0543 48.8404 88.0331 48.7893C87.0375 48.7383 86.5581 48.0348 86.2177 47.2207C84.6009 43.3375 82.9954 39.4515 81.3871 35.5654C80.0568 32.3544 78.7264 29.1463 77.172 25.9892C77.0557 27.9464 76.8969 29.9037 76.8316 31.8637C76.7011 35.8292 76.3778 39.7862 76.4685 43.763C76.5026 45.2238 77.0273 45.9727 78.4825 46.0918C78.9931 46.1343 79.532 46.1457 79.9773 46.4662C80.6297 46.9371 81.0864 47.5271 80.9134 48.3809C80.7234 49.3311 79.9206 49.0957 79.3051 49.1014C76.3267 49.1212 73.3484 49.1014 70.37 49.1184C69.5644 49.124 68.8638 48.9709 68.4014 48.2504C67.7944 47.3058 68.1376 46.418 69.2184 46.123C71.4933 45.5018 72.0946 44.8437 72.3584 42.5319C73.1158 35.9143 73.5838 29.2711 73.9298 22.6223C74.0518 20.2906 73.9384 20.1403 71.5727 19.6808C70.8664 19.5418 70.3246 19.2383 69.9473 18.6681C69.241 17.6044 69.6921 16.7024 70.9628 16.6854C73.3257 16.657 75.6913 16.7024 78.0542 16.6684C79.3817 16.6485 79.9887 17.4825 80.4567 18.5206C82.9529 24.0292 85.4434 29.5434 87.9395 35.052C88.3281 35.9058 88.7422 36.7482 89.1819 37.6729C89.7861 37.3836 89.8854 36.8418 90.0868 36.4107C92.8496 30.4511 95.6322 24.5001 98.3241 18.5093C98.9254 17.1676 99.6658 16.6315 101.192 16.6315C104.947 16.6315 105.353 16.8783 105.401 20.77C105.495 28.1876 105.75 35.5994 105.94 43.017C106 45.3259 106.695 46.2052 108.553 46.3244C110.337 46.4378 112.076 45.0111 112.359 43.1815C112.41 42.8553 112.41 42.5206 112.41 42.1915C112.41 35.4803 112.373 28.7662 112.436 22.055C112.45 20.5232 111.948 19.7432 110.394 19.6978C109.77 19.6808 109.197 19.5248 108.757 18.9943C108.297 18.4412 108.065 17.8427 108.334 17.1676C108.584 16.5436 109.199 16.6882 109.699 16.6854C113.48 16.674 117.261 16.6854 121.045 16.674C121.785 16.674 122.452 16.7818 122.94 17.4144C123.703 18.41 123.348 19.4312 122.137 19.7035C119.522 20.2935 119.292 20.5459 119.286 23.2038C119.272 29.7732 119.275 36.3454 119.283 42.9149C119.283 45.3061 120.012 46.2308 121.918 46.3244C123.705 46.4123 125.433 44.9685 125.688 43.1361C125.759 42.6255 125.736 42.0979 125.736 41.5789C125.742 33.9684 125.745 26.358 125.753 18.7476C125.753 16.8244 125.85 16.7138 127.733 16.7251C131.183 16.745 134.629 16.6514 138.075 16.9265C142.775 17.2981 146.554 20.5516 147.226 24.9681C147.731 28.2783 146.137 31.4779 142.858 33.1458C141.468 33.8521 141.519 34.4478 142.211 35.5966C143.799 38.2261 145.3 40.9066 146.789 43.5928C147.337 44.5799 147.986 45.3231 149.203 45.1841C150.383 45.0479 151.143 44.3984 151.586 43.2524C154.822 34.8761 158.124 26.5253 161.321 18.1349C161.794 16.8925 162.47 16.1833 163.737 16.189C164.949 16.1918 165.343 17.1903 165.692 18.1377C168.602 26.029 171.504 33.923 174.417 41.8143C174.729 42.6567 175.118 43.468 175.43 44.3104C175.912 45.6181 176.862 46.3329 178.221 46.313C179.667 46.2932 180.896 45.7344 181.588 44.3473C182.022 43.4822 182.141 42.5518 182.138 41.593C182.135 35.4009 182.138 29.2087 182.132 23.0165C182.132 22.5939 182.053 22.1684 182.059 21.7458C182.079 20.4211 181.455 19.7432 180.116 19.6978C179.5 19.6751 178.907 19.5588 178.445 19.0539C177.94 18.5036 177.818 17.8739 178.042 17.2158C178.258 16.5861 178.876 16.6911 179.381 16.6882C183.114 16.6797 186.85 16.6996 190.582 16.674C191.499 16.6684 192.131 17.0541 192.534 17.8228C193.016 18.7504 192.667 19.4425 191.646 19.6751C189.107 20.2594 188.832 20.5856 188.798 23.2151C188.773 25.2007 188.776 27.1863 188.793 29.1718C188.795 29.5689 188.6 30.1164 189.093 30.3093C189.471 30.4539 189.771 30.0398 190.049 29.8044C192.543 27.6855 194.647 25.1865 196.848 22.7839C197.2 22.401 197.523 21.9926 197.861 21.5983C199.001 20.2651 198.993 20.285 197.441 19.5106C196.593 19.0879 196.182 18.3646 196.378 17.4059C196.57 16.4556 197.382 16.6967 197.992 16.6911C201.157 16.6655 204.326 16.6911 207.494 16.6712C208.353 16.6655 209.094 16.8329 209.565 17.6158C210.149 18.5915 209.792 19.5588 208.665 19.6893C205.568 20.0467 203.236 21.7316 201.115 23.8306C199.234 25.6942 197.382 27.5862 195.458 29.4044C194.661 30.159 194.528 30.7376 195.237 31.6623C198.511 35.9426 201.943 40.0982 205.42 44.2112C206.541 45.5358 208.067 46.174 209.783 46.3102C212.047 46.4917 213.78 44.8664 213.887 42.3901C213.967 40.5492 213.916 38.7026 213.916 36.8617C213.916 30.7631 213.916 24.6674 213.916 18.5689C213.916 16.7194 213.953 16.6882 215.842 16.6826C218.111 16.6769 220.38 16.6967 222.65 16.674C223.475 16.6655 224.142 16.9066 224.576 17.6243C225.168 18.6029 224.785 19.4453 223.662 19.6779C221.004 20.2311 220.621 20.6282 220.61 23.3456C220.579 30.0115 220.585 36.6745 220.607 43.3403C220.613 45.4309 220.982 45.7599 223.101 45.862C223.43 45.879 223.764 45.8478 224.093 45.879C227.906 46.2677 230.461 44.699 231.738 41.0513C231.999 40.3024 232.146 39.2869 233.434 39.7124C234.597 40.0982 235.19 40.9633 234.946 42.1915C234.594 43.9502 234.143 45.6918 233.828 47.459C233.607 48.7042 233.011 49.1581 231.718 49.1411C226.519 49.0787 221.319 49.1155 216.12 49.1155C212.007 49.1155 207.891 49.0163 203.784 49.1609C201.991 49.2233 200.876 48.5454 199.852 47.2122C196.772 43.2014 193.626 39.2444 190.506 35.2647C190.361 35.0775 190.228 34.8818 190.069 34.7059C189.817 34.4308 189.567 34.0677 189.13 34.2351C188.756 34.3797 188.798 34.7768 188.798 35.1002C188.801 38.2204 188.827 41.3406 188.818 44.4579C188.815 45.5358 189.414 45.967 190.375 46.106C190.977 46.1939 191.618 46.1485 192.137 46.557C192.767 47.0505 193.235 47.649 192.982 48.5C192.738 49.3198 191.998 49.1014 191.425 49.1014C183.624 49.1155 175.827 49.1042 168.026 49.1184C167.181 49.1184 166.427 49.0049 165.896 48.2646C165.23 47.3314 165.516 46.4577 166.605 46.1088C168.616 45.4649 168.75 45.1898 168.032 43.1531C167.609 41.9504 167.158 40.7534 166.758 39.5422C166.486 38.7196 166.018 38.3253 165.099 38.348C162.926 38.3991 160.751 38.3906 158.578 38.348C157.724 38.331 157.279 38.6487 157.066 39.477C156.711 40.8499 156.292 42.2029 155.883 43.5616C154.89 46.8718 152.996 49.3169 149.399 49.9438C145.555 50.6161 142.889 48.6759 140.688 45.811C138.759 43.3006 137.777 40.3052 136.453 37.4914C135.834 36.1781 134.89 35.7072 133.528 35.7413C132.782 35.7583 132.38 36.0022 132.388 36.8106C132.411 39.1735 132.402 41.5363 132.414 43.8991C132.419 45.2805 132.975 46.1599 134.496 46.1684C134.924 46.1684 135.344 46.2762 135.693 46.5485C136.325 47.042 136.788 47.6405 136.535 48.4915C136.291 49.3113 135.548 49.0928 134.975 49.0928C123.064 49.107 111.151 49.1042 99.2403 49.1042C98.4829 49.1042 97.7284 49.1099 96.971 49.09C96.0435 49.0673 95.462 48.5596 95.2464 47.6916C95.0479 46.8945 95.2663 46.3556 96.208 46.157C98.724 45.6266 99.0616 45.1954 99.0701 42.6312C99.0871 37.2021 99.0758 31.7758 99.0758 26.3466L98.7382 26.2927L98.7354 26.2956ZM132.399 26.5622H132.388C132.388 28.1223 132.425 29.6824 132.374 31.2397C132.343 32.2154 132.709 32.5615 133.696 32.57C137.596 32.5984 140.078 30.1504 140.18 26.0857C140.293 21.6777 138.436 19.7035 134.436 19.8907C133.094 19.9531 132.419 20.5658 132.405 21.8876C132.388 23.4477 132.402 25.005 132.402 26.5651L132.399 26.5622ZM162.163 26.5055L161.786 26.4629C160.864 28.9789 159.939 31.495 159.017 34.011C158.796 34.618 159.131 34.774 159.644 34.7768C161.063 34.7768 162.481 34.774 163.899 34.7768C164.665 34.7797 164.932 34.4676 164.668 33.7131C163.823 31.3134 162.997 28.908 162.163 26.5055Z" fill="#073742"/>
<path d="M31.695 54.6412C26.6828 55.4298 22.9528 53.0272 19.5858 49.8588C11.0081 41.7889 6.03567 31.929 5.03153 20.1404C4.94927 19.1816 5.01168 18.2115 5.41447 17.3549C7.67519 12.5753 10.3188 8.32904 15.8898 6.5477C27.6699 2.77794 39.1182 3.02755 50.3566 8.39996C51.7805 9.08073 52.8698 10.0565 53.5874 11.4521C53.6526 11.5769 53.7094 11.7102 53.7973 11.8237C57.6777 16.8472 57.5841 22.3444 55.8907 28.1139C53.0825 37.6986 48.0023 45.7288 40.0968 51.921C37.595 53.881 34.9797 55.3645 31.6978 54.6412H31.695ZM30.6965 17.0457C26.8984 17.0542 22.8847 17.874 19.7645 19.1448C18.576 19.6298 18.1647 20.3531 18.4512 21.553C18.8228 23.1159 19.1008 24.7044 19.5716 26.2361C21.4437 32.3176 24.788 37.4092 29.8427 41.3492C30.7362 42.0441 31.3886 42.1463 32.2793 41.3463C33.8621 39.9252 35.4591 38.524 36.832 36.893C40.6953 32.3006 43.2227 27.1183 43.9006 21.0878C44.0084 20.1404 43.7106 19.7206 42.871 19.4057C38.9395 17.9364 34.9003 17.0741 30.6937 17.0429L30.6965 17.0457Z" fill="#073742"/>
</svg>
