<svg width="469" height="97" viewBox="0 0 469 97" fill="none" xmlns="http://www.w3.org/2000/svg">
<g clip-path="url(#clip0_3524_134674)">
<path d="M68.15 29.2698C64.32 9.24981 47.99 0.519815 31.45 2.66981C-13.32 6.87981 -8.83 79.4298 35.67 76.3298C61.2 75.4698 72.49 52.2098 68.15 29.2698ZM35.58 72.0698C18.15 73.1598 19.8 47.0798 19.77 35.2698C19.82 28.8198 19.89 22.3098 22.16 16.0898C24.53 9.55981 27.9 6.92981 34.15 6.89981C40.52 6.86981 44.51 9.69982 46.73 16.0898C49.44 23.8998 49.25 32.0898 49.64 40.4098C48.91 51.0498 50.55 71.6198 35.58 72.0698Z" fill="#073742"/>
<path d="M299.78 8.49C299.77 5.76 300.76 2.5 300.29 0L283.36 3.17C283.64 7.96 283.33 12.79 283.62 17.58C283.81 20.67 283.05 21.11 280.01 20.56C264.72 17.81 251.37 26.19 247.63 40.9C243.17 58.16 251.08 80.49 271.96 75.85C276.24 74.98 279.86 72.63 285.07 68.86C281.01 79.77 289.73 75.18 294.87 75.23C299.38 75.59 299.85 73.18 299.83 69.45C299.7 49.13 299.84 28.81 299.78 8.49ZM283.46 62.52C283.65 65.75 282.17 66.95 279.45 67.71C271.75 69.85 266.55 67.14 264.6 59.47C262.3 50.42 262.55 41.35 265.18 32.38C266.46 28.02 269.3 25.23 273.81 24.31C279.08 23.25 283.38 26.68 283.44 32.03C283.49 37.03 283.45 42.03 283.45 47.03H283.38C283.38 52.19 283.16 57.37 283.46 62.52Z" fill="#073742"/>
<path d="M128.83 37.62C125.7 18.8 105.96 15.08 93.38 26.67C91.09 25.15 93.02 22.22 91.89 20.94L76.65 22.77C76.36 23.38 76.33 24.17 76.34 25C76.36 48.32 76.37 71.65 76.3 94.97C76.3 95.62 76.37 96.14 76.51 96.55L92.24 93.61C92.58 91.77 92.6 89.16 92.61 85.49C92.61 84.32 92.77 83.13 92.58 82C91.75 76.93 93.5 75.64 98.74 76.12C112.92 77.43 123.29 70.83 127.51 58.82C129.95 51.87 130.04 44.6 128.83 37.62ZM111.07 64.56C109.19 71.11 103.37 73.96 96.98 71.72C94.3 70.79 92.39 69.16 92.56 65.88C92.7 60.58 92.5 55.25 92.57 49.93H92.55C92.55 44.78 92.65 39.63 92.5 34.48C92.42 31.65 93.51 30.4 96.28 29.69C104.37 27.63 109.78 30.38 111.73 38.49C113.83 47.18 113.54 55.96 111.07 64.56Z" fill="#073742"/>
<path d="M206.59 20.88C207.63 22.22 206.64 25.16 207.36 27.26C212.47 23.99 217.43 21.37 223.03 20.32C233.07 18.43 239.89 23.6501 240.04 33.8101C240.23 46.47 240.05 59.12 240.02 71.78C240.02 72.45 240.25 73.5101 239.93 73.7201C235.59 76.5701 230.74 74.53 226.13 74.95C223.19 75.22 223.89 72.6901 223.88 71.0101C223.85 60.5201 223.91 50.02 223.86 39.53C223.83 30.52 216.54 26.49 208.56 30.9C206.5 32.03 207.18 33.7501 207.17 35.2401C207.08 47.2301 206.99 59.2301 207.17 71.2201C207.22 74.3301 206.34 75.1001 203.27 75.1201C191.15 75.1901 191.15 75.3101 191.15 63.34C191.15 51.37 191.34 38.69 191.05 26.37C191 24.63 191.3 23.44 191.94 22.64L206.59 20.88Z" fill="#073742"/>
<path d="M333.57 20.08C297.33 19.91 296.71 77.17 333.97 76.38C350.88 76.29 361.29 65.37 361.27 47.73C361.25 30.85 350.45 20.06 333.57 20.08ZM342.24 66.46C340.81 70.41 338.31 72.29 334.01 72.24C329.81 72.19 326.84 70.63 325.74 66.51C322.56 54.58 322.32 42.56 325.41 30.59C326.46 26.51 329.39 24.08 333.81 24.1C345.31 24.13 344.05 40.7 344.23 48.73C344.27 54.72 344.33 60.69 342.24 66.46Z" fill="#073742"/>
<path d="M394.33 20.0799C378.01 20.0099 367.13 31.2799 367.04 48.3099C366.96 65.4599 377.58 76.3699 394.35 76.3499C431.41 77.0199 431.53 19.4799 394.33 20.0799ZM402.64 66.7099C401.54 70.5599 398.62 72.4499 394.3 72.3099C390.05 72.1699 387.46 70.3399 386.14 66.3899C384.12 60.3199 383.95 54.0399 384.13 48.1499C384.01 41.7599 384.03 35.8099 386.09 30.0599C387.5 26.1399 390.19 24.1299 394.3 24.0899C398.43 24.0499 401.46 26.0599 402.59 29.9599C406.11 42.1799 406.12 54.4999 402.64 66.7099Z" fill="#073742"/>
<path d="M154.61 45.9502C159.1 46.0602 163.6 45.9802 168.09 45.9802C172.58 45.9802 177.41 45.8902 182.07 46.0102C184.52 46.0802 185.18 45.1302 185.05 42.7602C183.99 24.2102 167.17 14.6002 150.4 22.8302C135.5 30.1502 131.89 48.9702 138.71 63.4902C145.12 77.1602 164.58 80.8002 178.44 71.2102C180.19 70.0102 183.58 69.0002 182.47 66.4202C181.12 63.2802 178.29 66.0102 176.38 66.5202C161.34 70.5902 152.5 64.3902 151.72 49.1702C151.59 46.6902 152.2 45.8902 154.61 45.9502ZM152.13 36.2202C152.51 30.5602 155.95 22.6002 162.85 24.1702C169.03 25.5002 168.1 32.7102 168.97 37.5302C169.35 39.9802 168.69 41.2102 165.92 41.2002C163.11 41.2002 160.31 41.6602 158.46 41.8302C151.56 42.2502 151.54 42.2402 152.13 36.2202Z" fill="#073742"/>
<path d="M429.69 22.5199C429.1 23.1999 428.78 24.2499 428.88 25.8499C429.14 33.3299 428.97 40.8199 428.97 48.3099H428.93V63.7799C428.93 69.2299 428.94 72.0299 430.21 73.4799H444.76C445.1 72.7699 445.23 71.7899 445.2 70.4599C444.95 58.8199 445.17 47.1699 445.03 35.5299C445 32.8199 445.78 31.0999 448.36 30.1799C450.9 29.2699 452.45 30.2799 453.68 32.4399C456.21 37.1899 463.93 37.2099 466.64 32.5499C471.1 25.9399 464.93 18.3699 457.57 20.2599C453.6 21.0599 450.22 23.2099 447.17 25.8999C446.16 26.7899 444.03 28.5199 444.51 25.2999C444.87 22.8999 444.61 21.5299 443.89 20.8299L429.69 22.5199Z" fill="#073742"/>
</g>
<defs>
<clipPath id="clip0_3524_134674">
<rect width="468.14" height="96.55" fill="white"/>
</clipPath>
</defs>
</svg>
