<svg width="80" height="24" viewBox="0 0 80 24" fill="none" xmlns="http://www.w3.org/2000/svg">
<g clip-path="url(#clip0_189_16144)">
<path fill-rule="evenodd" clip-rule="evenodd" d="M29.9695 8.28166C30.8068 7.63941 31.8535 7.26758 33.0048 7.26758C35.7261 7.26758 37.9939 9.36335 37.9939 12.0338C37.9939 14.7042 35.7959 16.8338 33.0746 16.8338C31.9232 16.8338 30.8766 16.4281 30.0392 15.8197V20.045C30.0392 20.5521 29.6206 20.9577 29.0972 20.9577H29.0624C28.539 20.9577 28.1204 20.5521 28.1204 20.045V12.3042V12.0676V11.831V8.18025C28.1204 7.67321 28.539 7.26758 29.0624 7.26758C29.5857 7.26758 30.0044 7.70701 30.0044 8.18025V8.28166H29.9695ZM29.0275 7.26758C29.0624 7.26758 29.0624 7.26758 29.0275 7.26758ZM30.0044 12.0676C30.0044 13.6563 31.3301 14.9746 33.0048 14.9746C34.6795 14.9746 36.0052 13.6563 36.0052 12.0676C36.0052 10.4788 34.6446 9.16054 33.0048 9.16054C31.365 9.16054 30.0044 10.445 30.0044 12.0676Z" fill="#073742"/>
<path fill-rule="evenodd" clip-rule="evenodd" d="M46.6463 8.18037C46.6463 7.67332 47.065 7.26769 47.5883 7.26769C48.1116 7.26769 48.5303 7.67332 48.5303 8.18037V12.0339V15.8874C48.5303 16.3945 48.1116 16.8001 47.5883 16.8001C47.065 16.8001 46.6463 16.3945 46.6463 15.8874V15.8198C45.809 16.4621 44.7623 16.8339 43.611 16.8339C40.8896 16.8339 38.6917 14.7043 38.6917 12.0339C38.6917 9.36346 40.8896 7.23389 43.611 7.23389C44.7623 7.23389 45.809 7.60572 46.6463 8.24797V8.18037ZM40.6105 12.0677C40.6105 13.6564 41.9363 14.9747 43.611 14.9747C45.2856 14.9747 46.6114 13.6564 46.6114 12.0677C46.6114 10.479 45.2507 9.16065 43.611 9.16065C41.9712 9.16065 40.6105 10.4452 40.6105 12.0677Z" fill="#073742"/>
<path d="M62.3463 8.01121C62.3463 7.50417 61.9277 7.09853 61.4043 7.09853H59.311V3.81966C59.311 3.31262 58.8923 2.90698 58.369 2.90698C57.8457 2.90698 57.427 3.31262 57.427 3.81966V7.9774V15.8873C57.427 16.3943 57.8457 16.7999 58.369 16.7999C58.8923 16.7999 59.311 16.3943 59.311 15.8873V8.95769H61.3694C61.8928 8.95769 62.3463 8.51825 62.3463 8.01121Z" fill="#073742"/>
<path d="M55.4034 7.26758C54.1823 7.26758 53.2054 7.80842 52.4378 8.45068V8.21406C52.4378 7.70701 52.0192 7.30138 51.4958 7.30138C50.9725 7.30138 50.5538 7.70701 50.5538 8.21406V11.4929V11.7295V15.9549C50.5538 16.4619 50.9725 16.8676 51.4958 16.8676C52.0192 16.8676 52.4378 16.4619 52.4378 15.9549V11.7634C52.6472 11.2563 53.624 9.12673 55.4034 9.12673C55.9267 9.12673 56.3454 8.7211 56.3454 8.21406C56.3454 7.70701 55.9267 7.26758 55.4034 7.26758Z" fill="#073742"/>
<path fill-rule="evenodd" clip-rule="evenodd" d="M75.0806 7.26758C73.3711 7.26758 71.836 8.14645 70.9289 9.46476C70.0567 8.14645 68.5564 7.26758 66.7771 7.26758C64.0907 7.26758 61.8578 9.39716 61.8578 12.0676C61.8578 14.738 64.0558 16.8676 66.7771 16.8676C68.4867 16.8676 70.0218 15.9887 70.9289 14.6704C71.8011 15.9887 73.3013 16.8676 75.0806 16.8676C77.802 16.8676 80 14.738 80 12.0676C80 9.39716 77.802 7.26758 75.0806 7.26758ZM66.812 14.9746C65.1373 14.9746 63.8116 13.6563 63.8116 12.0676C63.8116 10.4788 65.1722 9.16054 66.812 9.16054C68.4518 9.16054 69.8124 10.4788 69.8124 12.0676C69.8124 13.6563 68.4867 14.9746 66.812 14.9746ZM72.0802 12.0676C72.0802 13.6563 73.406 14.9746 75.0806 14.9746C76.7553 14.9746 78.0811 13.6563 78.0811 12.0676C78.0811 10.4788 76.7204 9.16054 75.0806 9.16054C73.4409 9.16054 72.0802 10.445 72.0802 12.0676Z" fill="#073742"/>
<path d="M66.812 10.614C66.6375 10.614 66.498 10.6478 66.3235 10.6816C66.3933 10.783 66.4282 10.9182 66.4282 11.0535C66.4282 11.4253 66.1491 11.6957 65.7653 11.6957C65.6258 11.6957 65.5211 11.6619 65.3815 11.5943C65.3118 11.7295 65.3118 11.8985 65.3118 12.0675C65.3118 12.845 65.9747 13.4873 66.7771 13.4873C67.5795 13.4873 68.2424 12.845 68.2424 12.0675C68.2773 11.2563 67.6144 10.614 66.812 10.614Z" fill="#073742"/>
<path d="M75.0807 10.614C74.9062 10.614 74.7667 10.6478 74.5922 10.6816C74.662 10.783 74.6969 10.9182 74.6969 11.0535C74.6969 11.4253 74.4178 11.6957 74.034 11.6957C73.8944 11.6957 73.7898 11.6619 73.6502 11.5943C73.5804 11.7295 73.5804 11.8985 73.5804 12.0675C73.5804 12.845 74.2433 13.4873 75.0458 13.4873C75.8482 13.4873 76.5111 12.845 76.5111 12.0675C76.5809 11.2563 75.918 10.614 75.0807 10.614Z" fill="#073742"/>
<path d="M9.07109 17.6113C14.0602 17.6113 18.1422 13.6563 18.1422 8.78873C18.1073 3.95493 14.0602 0 9.07109 0C4.0471 0 0 3.95493 0 8.82254C0 13.6901 4.0471 17.6113 9.07109 17.6113Z" fill="#073742"/>
<path d="M9.07109 23.9999C14.0602 23.9999 18.1422 20.045 18.1422 15.1774C18.1422 10.3098 14.0602 6.38867 9.07109 6.38867C4.08199 6.38867 0 10.3436 0 15.2112C0 20.0788 4.0471 23.9999 9.07109 23.9999Z" fill="#073742"/>
<path d="M14.758 20.8226C19.7471 20.8226 23.8291 16.8676 23.8291 12C23.8291 7.13242 19.7471 3.17749 14.758 3.17749C9.76888 3.17749 5.68689 7.13242 5.68689 12C5.68689 16.8676 9.76888 20.8226 14.758 20.8226Z" fill="#073742"/>
<path d="M7.67556 17.51C6.45446 15.9888 5.6869 14.0959 5.6869 12.0001C5.6869 9.90432 6.41957 8.01136 7.67556 6.49023C4.4658 6.96347 1.77936 9.12685 0.59314 12.0001C1.77936 14.8733 4.4658 17.0367 7.67556 17.51Z" fill="#08272E"/>
<path d="M7.67554 6.49022C8.12909 6.42261 8.58265 6.38881 9.07109 6.38881C12.9089 6.38881 16.1884 8.7212 17.5142 12.0001C17.9328 11.0198 18.1073 9.93811 18.1073 8.82261C18.1073 6.76064 17.3746 4.83388 16.1186 3.31275C15.6651 3.24515 15.2115 3.21134 14.7231 3.21134C11.8971 3.17754 9.3502 4.46205 7.67554 6.49022Z" fill="#08272E"/>
<path d="M17.4793 12C16.1535 15.2789 12.874 17.6113 9.07109 17.6113C8.61753 17.6113 8.16398 17.5775 7.67554 17.5099C9.3502 19.538 11.8622 20.8225 14.758 20.8225C15.2115 20.8225 15.6651 20.7887 16.1535 20.7211C17.3746 19.2 18.1422 17.307 18.1422 15.2113C18.1073 14.062 17.898 12.9803 17.4793 12Z" fill="#08272E"/>
<path d="M9.0711 6.38867C8.61755 6.38867 8.16399 6.42248 7.67555 6.49008C6.45444 8.01121 5.68689 9.90416 5.68689 11.9999C5.68689 14.0957 6.41955 15.9887 7.67555 17.5098C8.12911 17.5774 8.58266 17.6112 9.0711 17.6112C12.9089 17.6112 16.1884 15.2788 17.5142 11.9999C16.1535 8.72107 12.874 6.38867 9.0711 6.38867Z" fill="#073742"/>
<path fill-rule="evenodd" clip-rule="evenodd" d="M5.68689 12C5.68689 9.16054 8.05933 6.89575 10.9551 6.89575C13.8509 6.89575 16.2233 9.19434 16.2233 12C16.2233 14.8056 13.8509 17.1042 10.9551 17.1042C8.05933 17.1042 5.68689 14.8394 5.68689 12ZM8.19888 12C8.19888 13.4873 9.41999 14.6704 10.9551 14.6704C12.4902 14.6704 13.6764 13.4535 13.6764 12C13.6764 10.5127 12.4553 9.32955 10.9202 9.32955C10.6062 9.32955 10.3271 9.39716 10.0131 9.46477C10.1178 9.63378 10.2224 9.8704 10.2224 10.107C10.2224 10.7831 9.66421 11.3239 9.00133 11.3239C8.7571 11.3239 8.54777 11.2563 8.33844 11.1211C8.26866 11.4253 8.19888 11.6958 8.19888 12Z" fill="#FDFFAD"/>
</g>
<defs>
<clipPath id="clip0_189_16144">
<rect width="80" height="24" fill="white"/>
</clipPath>
</defs>
</svg>
