<svg width="495" height="152" viewBox="0 0 495 152" fill="none" xmlns="http://www.w3.org/2000/svg">
<g clip-path="url(#clip0_3524_134700)">
<path d="M265.31 45.56C262.61 44.16 259.37 43.27 256.33 43.13C246.85 42.7 238.54 46.4999 230.44 50.9399C228.53 51.9899 226.19 52.7199 224.02 52.7799C209.71 53.1899 197.5 58.3399 187.28 68.2799C186.29 69.2499 185.25 70.17 183.69 71.61C184.21 67.54 185.21 64.23 184.82 61.08C184.55 58.83 182.87 55.88 180.98 54.99C179.39 54.23 176.22 55.4699 174.45 56.7599C172.54 58.1599 171.39 60.6199 170 62.6699C160.18 77.1199 149.17 90.5899 136.03 102.17C131.99 105.74 127.16 108.52 122.44 111.22C119.99 112.63 117.03 112.93 115.03 109.5C115.88 108.79 116.58 108.11 117.37 107.58C130.85 98.3999 141.08 86.29 148.46 71.97C151.12 66.83 152.86 60.82 153.35 55.06C154.02 47.09 147.4 41.7599 139.63 43.8399C135.19 45.0299 130.5 47.48 127.32 50.72C113.99 64.28 106.75 80.92 104.03 99.6399C103.77 101.44 102.67 104.03 101.28 104.61C95.6 106.95 89.66 107.63 84.08 104.04C81.02 102.07 77.94 101.46 75.94 104.99C73.94 108.53 76.3 110.86 79.28 112.63C86.51 116.91 94.17 116.85 101.94 114.69C104.41 114 105.99 113.81 107.74 116.34C111.09 121.17 116.34 123.04 121.81 121.41C126.8 119.92 131.79 117.62 136.03 114.63C149.2 105.35 159.24 92.9199 169.22 80.4899C169.97 79.5599 170.81 78.6899 172.53 76.7399C172.09 78.9199 171.94 79.7 171.77 80.47C169.15 92.26 166.54 104.05 163.87 115.83C163.12 119.14 163.55 122.08 167.21 122.96C171.23 123.94 172.81 121.26 173.49 117.75C173.96 115.31 174.54 112.89 175.2 110.5C179.35 95.3699 185.83 81.5799 198.51 71.5299C203.83 67.3199 209.77 64.29 217.14 63.5C215.92 70.17 219.83 72.94 224.79 74.97C229.55 76.91 234.42 78.6299 239.02 80.8899C242.94 82.8299 245.4 86.01 245.26 90.79C244.9 103.04 232.26 117.16 220.04 118.8C211.98 119.88 207.15 116.01 208.08 107.9C208.78 101.78 211.07 95.79 213.03 89.87C214.07 86.74 214.03 84.23 210.95 82.69C207.7 81.06 205.16 82.7199 204.23 85.6999C201.96 92.8999 198.97 100.16 198.4 107.55C197.24 122.72 208.71 131.55 223.67 128.02C238.01 124.63 246.9 115.18 252.35 102.06C258.51 87.2399 254.23 76.5999 239.53 70.1699C235.81 68.5399 231.98 67.1699 228.06 65.6299C235.84 56.6899 251.79 50.8099 259.62 54.1199C257.82 56.1899 256.1 58.1399 254.42 60.1199C252.43 62.4799 252.16 65.0199 254.48 67.1999C256.83 69.4099 259.48 69.0299 261.51 66.7099C264.11 63.7399 266.83 60.74 268.76 57.33C271.5 52.5 270.2 48.12 265.31 45.56ZM133.31 58.4999C135.65 56.0399 139.66 55.1499 142.9 53.5299C142.52 56.9399 142.96 60.71 141.62 63.68C135.63 76.99 126.73 88.1499 114.76 96.8099C117.5 82.2899 123.14 69.1899 133.31 58.4999Z" fill="#073742"/>
<path d="M405.02 116.35C397.02 111.48 397.75 104.07 399.27 96.92C400.98 88.86 403.83 81.05 406.14 73.11C407.3 69.15 410.55 64.5 405.46 61.52C400.44 58.59 397.66 63.39 394.9 66.51C387.12 75.34 379.62 84.42 371.76 93.18C368.49 96.81 364.6 99.88 360.99 103.21C360.41 102.91 359.83 102.61 359.25 102.31C360.55 96.89 361.64 91.41 363.17 86.06C366.04 76.04 369.38 66.15 372 56.07C372.6 53.77 371.92 49.65 370.36 48.66C368.41 47.42 364.4 47.62 362.25 48.86C358.76 50.87 355.41 53.8 353.14 57.11C346.3 67.07 340.01 77.4 333.5 87.58C332.89 88.54 332.23 89.47 331.59 90.41C333.72 78.83 336.86 67.71 340.1 56.63C341.05 53.38 341.48 50.31 338.09 48.29C334.87 46.36 332.34 48.25 330.11 50.36C327.22 53.1 324.68 56.23 321.63 58.76C316.38 63.1 310.84 67.11 305.26 71.39C303.62 67.48 302.99 64.35 301.2 62.13C299.49 60 296.16 57.07 294.28 57.53C288.4 58.96 281.11 60.34 277.57 64.46C271.12 71.98 266.21 81.13 262.15 90.26C259.87 95.38 259.65 101.91 260.16 107.65C260.84 115.24 267.5 119.96 274.87 117.96C280.04 116.55 285.33 113.56 289.23 109.88C296.29 103.22 300.76 94.6 303.62 85.26C304.03 83.92 304.56 82.19 305.6 81.53C312.25 77.32 319.05 73.36 325.84 69.29C324.05 76.94 322 84.74 320.46 92.63C319.49 97.64 318.87 102.79 318.93 107.87C318.95 109.85 320.92 112.97 322.64 113.48C324.65 114.08 327.82 112.99 329.61 111.56C331.85 109.76 333.36 106.96 334.91 104.43C341.97 92.83 348.93 81.17 355.96 69.55C356.55 68.57 357.4 67.73 358.12 66.82C358.28 68.77 357.66 70.27 357.28 71.83C354.8 81.93 352.13 91.99 350.05 102.18C349.21 106.27 349.88 110.73 354.22 113.03C358.38 115.24 362.61 113.85 365.88 111.17C371.64 106.46 377.04 101.3 382.4 96.15C385.26 93.4 387.75 90.26 390.39 87.3C389.86 94.04 388.85 100.44 388.97 106.81C389.11 114.16 392.22 120.46 399.3 123.62C400.98 124.37 404.32 123.55 405.64 122.21C406.57 121.27 406.13 117.02 405.02 116.35ZM278.26 106.55C276.38 107.85 272.94 108.55 271.09 107.68C269.72 107.04 268.81 103.14 269.36 101.15C271.27 94.23 273.9 87.5 276.09 81.19C282.69 82.98 287.7 84.35 293.16 85.84C289.69 93.58 285.76 101.4 278.26 106.55ZM286.47 74.53C286.25 74.05 286.02 73.56 285.8 73.07C288.02 71.13 290.24 69.18 293.33 66.49C294.08 69.85 294.56 71.97 295.13 74.53H286.47Z" fill="#073742"/>
<path d="M481.04 142.75H11.28V151.76H481.04V142.75Z" fill="#073742"/>
<path d="M141.92 23.06C138.96 29.02 134.66 34.59 129.96 39.36C113.98 55.57 94.85 67.63 75.15 78.77C71.83 80.65 70.03 82.93 69.1 86.58C66.2 97.96 62.9 109.24 59.9 120.6C58.97 124.12 57.72 127.33 53.36 126.15C49.04 124.97 49.47 121.48 50.42 118.01C53.12 108.17 55.75 98.3 58.59 87.76C53.8 89.49 49.96 91.1 45.98 92.23C43.81 92.85 41.01 93.49 39.22 92.62C37.27 91.68 35.32 89.11 35.05 87.04C34.9 85.92 38.08 83.88 40.08 83.06C47.07 80.22 54.27 77.89 61.21 74.95C62.44 74.43 63.07 71.99 63.56 70.32C67.29 57.44 70.95 44.54 74.57 31.64C75.52 28.26 77.07 25.49 81.09 26.57C85.17 27.68 84.97 30.94 84.03 34.25C80.95 45.03 77.88 55.82 74.4 67.99C77.77 66 80.11 64.69 82.38 63.27C97.32 53.9 111.99 44.14 124.22 31.31C127.61 27.75 130.57 23.63 132.96 19.34C135.55 14.72 133.83 11.08 128.53 10.16C124.04 9.37999 119.22 9.25999 114.71 9.94999C96.26 12.75 79.01 19.52 62.87 28.47C48.85 36.26 35.49 45.33 22.36 54.57C17.28 58.14 13.63 63.71 8.90001 68.84C11.52 69.93 13.07 70.12 13.81 70.99C14.89 72.27 16.24 74.25 15.91 75.54C15.51 77.11 13.71 79.04 12.14 79.49C5.13001 81.51 -1.84999 74.95 0.440007 68.09C2.01001 63.36 4.43001 58.2 8.05001 55.02C18.1 46.2 28.4 37.4 39.66 30.25C60.91 16.75 83.69 6.11999 108.62 1.21999C115.65 -0.160009 123.26 -0.400009 130.33 0.659991C141.82 2.38999 147.08 12.66 141.92 23.06Z" fill="#073742"/>
<path d="M492.43 51.9001C487.93 48.5401 485.55 52.4201 482.93 55.0601C476.72 61.3001 470.18 67.0401 461.86 70.3201C460.47 65.2301 459.85 60.5301 457.84 56.5201C456.63 54.1001 452.82 50.8401 450.96 51.2701C444.92 52.6801 437.26 54.0401 433.84 58.3001C426.7 67.2101 421.14 77.6201 416.39 88.0801C414.1 93.1201 414.22 99.7601 414.86 105.49C415.61 112.24 421.66 116.51 428.26 114.93C433.34 113.72 439.12 111.37 442.41 107.62C448.32 100.87 452.57 92.6801 457.6 85.1401C458.62 83.6101 459.74 81.4901 461.24 81.0201C472.75 77.4401 481.71 70.2101 489.96 61.8901C494.63 57.1801 495.42 54.1301 492.43 51.9001ZM436.08 100.52C434.82 102.15 432.86 103.39 430.99 104.38C426.27 106.88 423.56 105.29 423.75 99.9901C424.1 90.8101 428.43 83.1001 432.74 75.8801C437.92 78.3201 442.64 80.5501 448.58 83.3501C444.37 89.1901 440.37 94.9601 436.08 100.52ZM440.16 69.5001C443.49 66.0101 445.92 63.4501 448.35 60.9001C448.95 61.0801 449.55 61.2601 450.15 61.4301C450.49 64.8901 450.83 68.3501 451.28 72.9701C447.34 71.7401 444.5 70.8501 440.16 69.5001Z" fill="#073742"/>
<path d="M424.01 31.7201C424 36.5201 420.64 40.2801 416.3 40.3301C412.23 40.3901 409.01 36.9601 409.02 32.5801C409.02 27.9801 412.64 24.0201 416.87 23.9701C421.07 23.9101 424.01 27.1101 424.01 31.7201Z" fill="#073742"/>
</g>
<defs>
<clipPath id="clip0_3524_134700">
<rect width="494.2" height="151.76" fill="white"/>
</clipPath>
</defs>
</svg>
