<svg width="742" height="195" viewBox="0 0 742 195" fill="none" xmlns="http://www.w3.org/2000/svg">
<g clip-path="url(#clip0_3524_134709)">
<path d="M194.42 97.5501C194.31 97.8701 194.07 98.1901 194.1 98.4801C195.47 110.8 187.42 118.71 180.72 127.27C173.62 136.35 164.14 142.95 155.96 150.9C155.17 151.67 153.96 152.42 152.92 152.45C142.52 152.76 133.27 158.22 122.88 158.92C118.92 159.18 115.08 159.65 111.16 158.93C112.63 155.06 114.33 151.26 115.51 147.31C118.47 137.47 115.7 127.92 113.67 118.35C109.28 97.7201 97.31 84.4401 76.53 79.2901C68.25 77.2401 59.81 78.4001 51.49 77.2201C48.3 76.7601 44.78 78.5601 41.29 77.8201C41 60.2001 46.46 44.7501 57.99 31.2701C64.87 23.2101 72.12 15.9001 81.43 10.5501C90.07 5.5801 98.72 1.7601 108.87 0.480102C119.68 -0.879898 130.23 1.1201 140.89 0.750103C142.8 0.690103 144.63 1.1701 145.95 2.5101C149.67 6.2501 154.47 8.1101 159.08 10.3001C162.24 11.8001 164.95 13.7801 166.92 16.7401C167.65 17.8301 168.51 18.9301 169.55 19.7101C192.73 37.2101 202.32 73.4201 194.42 97.5501Z" fill="#073742"/>
<path d="M110.7 159.51C105.38 173.61 95.05 182.43 81.24 187.68C78.48 188.72 75.8 189.95 73.16 191.33C66.19 194.97 58.64 194.33 51.22 193.17C43.96 192.02 36.96 190.02 30.24 186.8C22.29 182.99 15.72 177.86 11.84 169.87C7.42 160.79 3.1 151.63 0.620001 141.75C0.420001 140.96 -0.119999 140.11 0.0300009 139.4C1.94 129.96 -1.07 119.55 4.19 110.92C12.8 96.7799 23.25 84.2699 39.88 78.8799C39.87 83.9399 38.32 88.9099 40.03 94.0799C42.89 102.73 46.5 111.03 50.51 119.17C53.43 125.11 57.63 130.17 62.84 134.31C66.47 137.19 70.1 140.09 73.9 142.76C83.44 149.47 92.33 157.5 104.89 158.27C106.84 158.39 108.76 159.08 110.7 159.51Z" fill="#073742"/>
<path d="M115.51 147.31C114.33 151.26 112.63 155.06 111.16 158.93C110.96 159.09 110.81 159.28 110.7 159.51C108.76 159.08 106.84 158.39 104.89 158.27C92.33 157.5 83.44 149.47 73.9 142.76C70.1 140.09 66.47 137.19 62.84 134.31C57.63 130.17 53.43 125.11 50.51 119.17C46.5 111.03 42.89 102.73 40.03 94.0799C38.32 88.9099 39.87 83.9399 39.88 78.8799C40.62 78.8799 41.1 78.5399 41.29 77.8199C44.78 78.5599 48.3 76.7599 51.49 77.2199C59.81 78.3999 68.25 77.2399 76.53 79.2899C97.31 84.4399 109.28 97.7199 113.67 118.35C115.7 127.92 118.47 137.47 115.51 147.31Z" fill="#08272E"/>
<path d="M429.94 85.0498C430.51 82.1498 429.15 81.3998 426.4 81.5598C415.8 82.1798 405.23 80.4198 394.68 80.7298C378.92 81.1898 365.96 94.9598 373.35 111.44C376.9 119.36 376.99 123.77 370.33 129.36C366.14 132.87 366.88 135.92 371.84 138.67C375.71 140.81 374.21 141.81 372.2 143.94C364.2 152.4 365.5 163.69 373.16 170.26C383.06 178.77 409.36 178.42 418.17 172.6C425.7 167.62 429.5 159.29 427.94 149.14C427.05 143.31 420.74 138.59 412.36 136.49C404.42 134.5 396.11 135.44 388.31 132.9C386.78 132.41 383.46 132.86 384.31 130.72C385.13 128.65 386.77 124.98 390.23 125.92C394.03 126.95 397.77 126.67 401.51 126.53C412.65 126.13 422.47 118.98 424.17 110.2C425.4 103.87 425.47 97.8998 422.74 91.7898C424.17 91.7198 425.32 91.6098 426.47 91.6098C431.75 91.5998 429.44 87.5698 429.94 85.0498ZM391.33 144.47C396.88 144.91 402.33 145.83 407.83 146.51C411.69 146.99 413.96 149.3 414.8 152.6C415.74 156.26 414.98 159.83 411.61 162.4C408.49 164.77 405.56 165.56 397.01 165.59C394.05 165.8 390.21 165.8 386.54 163.6C381.94 160.85 379.76 157.07 381.05 152C381.91 148.58 385.99 144.04 391.33 144.47ZM411.95 106.7C411.38 111.42 406.83 115.21 401.18 115.6C399.86 115.69 398.53 115.68 397.2 115.65C389.44 115.47 384.94 110.85 384.75 103.42C384.59 97.3098 389 90.5598 397.47 91.5998C399.74 91.6398 401.91 91.6898 404.16 92.5098C410.91 94.9598 412.94 98.3898 411.95 106.7Z" fill="#073742"/>
<path d="M545.04 143.68C544.99 147.5 540.5 146.7 538 146.7C535.5 146.7 530.5 146.7 530.95 143.63C531.13 133.31 530.92 122.98 531.04 112.66C531.09 108.35 530.05 104.33 529.02 100.21C527.95 95.9401 524.86 93.6801 521.31 92.8601C510.71 90.4201 497.92 96.3001 498.96 109.5C499.82 120.41 498.96 131.46 499.08 142.45C499.11 145.47 498.65 146.74 495.13 146.7C484.87 146.56 485.05 146.74 484.82 136.35C484.58 125.76 485.77 115.13 483.99 104.56C482.89 98.0801 479.8 93.7201 474.88 92.6301C466.76 90.8301 459.45 93.4701 456.05 99.4501C454.15 102.78 452.95 106.3 452.95 110.2C452.95 120.85 452.77 131.51 452.95 142.17C453.01 145.46 452.47 146.77 448.74 146.7C438.78 146.51 438.78 146.71 438.78 136.53V114.05C438.78 104.39 438.89 94.7301 438.71 85.0801C438.66 82.1901 439.56 81.2601 442.33 81.5701C446.2 82.0101 451.37 79.8901 451.26 87.1001C451.24 88.6301 453.02 89.0201 454.58 87.5101C462.57 79.7601 472.22 79.1401 482.31 81.6901C486.5 82.7601 490.62 84.7001 492.89 88.7301C494.74 92.0101 496 91.1301 498.14 88.9901C508.23 78.8401 524.24 77.3301 535.79 85.6401C542.51 90.4801 544.75 97.9201 544.99 105.73C545.39 118.37 545.09 139.86 545.04 143.68Z" fill="#073742"/>
<path d="M305.97 55.6899C293.31 53.4599 280.44 55.31 267.68 54.7C264.28 54.54 263.57 55.72 263.61 58.9C263.77 72.87 263.68 86.85 263.68 100.83V136.28C263.68 146.7 263.68 146.58 273.88 146.67C276.98 146.69 278.16 146.11 278.07 142.67C277.8 133.36 278.18 124.03 277.88 114.72C277.75 110.76 278.48 109.23 282.87 109.48C290 109.89 297.22 110.05 304.32 109.38C321.39 107.75 329.99 99.17 330.69 83.22C331.39 67.45 323.36 58.7599 305.97 55.6899ZM302.77 97.7699C295.38 99.0399 287.85 98.03 280.39 98.33C277.82 98.43 277.88 96.92 277.89 95.15C277.93 90.83 277.9 86.51 277.9 82.19C277.9 77.87 278 73.8899 277.87 69.7399C277.79 67.3999 278.12 66.1299 281.01 66.2399C287.98 66.4999 294.97 66.1599 301.93 66.5299C310.71 66.9999 315.44 72.01 316.03 79.79C317.09 93.55 311 96.3499 302.77 97.7699Z" fill="#073742"/>
<path d="M608.04 86.43C598.39 79.3 586.98 78.79 575.84 81.75C562.84 85.22 556.28 95.07 554.24 107.83C552.85 116.54 553.82 125.19 558.85 132.82C566.13 143.87 576.48 148.26 589.69 147.73C602.56 147.22 613.87 139.53 618.03 126.52C613.86 126.52 610.04 126.59 606.22 126.49C604.71 126.46 603.76 126.95 603.02 128.26C598.96 135.42 591.89 137.19 584.83 136.31C577 135.34 571.32 130.65 568.71 122.44C567.26 117.87 568.23 117 572.58 117.04C587.06 117.2 601.54 117.13 616.01 117.04C617.48 117.03 619.73 118.26 619.97 114.98C620.85 103.38 617.43 93.37 608.04 86.43ZM569.15 105.58C571.12 96.01 577.07 91.59 587.8 91.6C597.87 91.61 603.53 96.05 605.48 105.58H569.15Z" fill="#073742"/>
<path d="M691.4 143.9C691.41 144.98 691.75 146.5 690 146.54C686.17 146.62 682.32 146.76 678.52 146.44C676.29 146.25 677.26 144.05 677.25 142.76C677.17 132.43 677.09 122.1 677.28 111.78C677.34 108.27 676.82 104.83 675.83 101.64C674.57 97.5999 672.32 94.4499 667.3 93.3099C653.03 90.0799 644.06 95.7099 643.18 110.92C642.58 121.38 642.93 131.9 643.05 142.4C643.08 145.34 642.78 146.75 639.16 146.7C628.85 146.55 628.84 146.76 628.84 136.39V113.91C628.84 104.41 628.96 94.9199 628.77 85.4299C628.71 82.4499 629.5 81.5 632.55 81.5699C634 81.5699 635 81.5 636.53 81.5499C639.587 81.6497 641.45 82.7599 641.72 85.4499C642.17 89.9999 644.36 89.5699 646.68 87.2799C656.16 77.9299 671.73 78.8799 681.05 84.7099C688.12 89.1299 690.46 96.8999 690.95 104.44C691.79 117.55 691.34 130.74 691.4 143.9Z" fill="#073742"/>
<path d="M740.88 145.11C740.9 146.13 740.35 146.65 739.37 146.57C732.71 146.02 725.96 147.79 719.38 144.84C712.34 141.68 709.36 136.2 708.96 129.02C708.67 123.7 708.91 118.36 708.91 113.03C708.91 107.7 708.7 102.35 708.98 97.0298C709.15 93.8798 708.15 92.9798 705.11 93.2098C703.5 93.3398 700.76 94.3498 700.36 92.0598C699.79 88.8698 699.81 85.3598 700.6 82.2498C700.99 80.7198 703.93 81.5798 705.67 81.6698C708.27 81.8198 710.53 81.15 709.96 78.5C709.5 74 709.96 71.5 709.96 67.1398C709.74 66.1498 710.36 65.6198 711.37 65.6198C714.87 65.6298 718.37 65.5698 721.86 65.6598C723.7 65.7098 723.17 67.2698 723.18 68.3098C723.24 71.4698 723.43 74.6598 723.15 77.7998C722.87 80.9498 723.99 81.8498 727.05 81.6898C729.26 81.5698 732.68 80.4298 733.52 82.3898C734.61 84.9298 734.13 88.2898 733.79 91.2398C733.5 93.8098 731.13 92.4998 729.75 92.5398C723.21 92.7298 723.21 92.6598 723.21 99.0098C723.21 107.51 723.17 116.01 723.22 124.51C723.26 132.86 725.63 135.23 733.91 135.62C736.17 135.73 739.61 134.49 740.42 136.29C741.55 138.8 740.82 142.13 740.88 145.11Z" fill="#073742"/>
<path d="M352.66 146.7C342.03 146.68 342.03 146.85 342.03 136.19C342.03 119.55 342.13 102.92 341.96 86.2798C341.92 82.8398 342.37 81.3698 346.41 81.4798C356.26 81.7698 356.26 81.5298 356.26 91.2598V114.21C356.26 123.7 356.17 133.18 356.32 142.66C356.36 145.45 356.01 146.7 352.66 146.7Z" fill="#073742"/>
<path d="M357.96 63.74C357.96 69.21 353.85 73.5299 348.57 73.5999C344.58 73.6599 338.91 67.71 338.97 63.54C339.03 58.99 344 54.16 348.69 54.71C355.54 55.52 358.63 58.74 357.96 63.74Z" fill="#073742"/>
</g>
<defs>
<clipPath id="clip0_3524_134709">
<rect width="741.05" height="194.08" fill="white"/>
</clipPath>
</defs>
</svg>
