<svg width="209" height="57" viewBox="0 0 209 57" fill="none" xmlns="http://www.w3.org/2000/svg">
<g clip-path="url(#clip0_3607_134656)">
<path d="M19.3998 8.00001H3.99842C3.86717 7.99951 3.73712 8.02537 3.61577 8.07609C3.49441 8.12682 3.38415 8.2014 3.29135 8.29555C3.19854 8.38969 3.12501 8.50154 3.07501 8.62465C3.02501 8.74775 2.99952 8.87967 3.00001 9.01282V47.4433C2.99952 47.5764 3.02501 47.7084 3.07501 47.8315C3.12501 47.9545 3.19854 48.0664 3.29135 48.1605C3.38415 48.2547 3.49441 48.3292 3.61577 48.38C3.73712 48.4307 3.86717 48.4566 3.99842 48.456H9.02747C9.15872 48.4566 9.28876 48.4307 9.41011 48.38C9.53148 48.3292 9.64174 48.2547 9.73454 48.1605C9.82735 48.0664 9.90088 47.9545 9.95087 47.8315C10.0009 47.7084 10.0264 47.5764 10.0259 47.4433V34.2018H19.3998C22.7862 34.2024 26.0376 32.8546 28.4545 30.4484C30.8714 28.0423 32.2609 24.7699 32.3238 21.3353V21.129C32.3272 19.4055 31.9954 17.6982 31.3473 16.105C30.6993 14.5118 29.7476 13.0639 28.5472 11.8443C27.3466 10.6247 25.9208 9.65741 24.3511 8.99774C22.7815 8.33807 21.0989 7.99902 19.3998 8.00001ZM25.2795 21.1102C25.2806 21.8914 25.1299 22.6651 24.8357 23.387C24.5416 24.1089 24.1099 24.7648 23.5654 25.3171C23.021 25.8696 22.3743 26.3074 21.6628 26.6058C20.9511 26.9041 20.1884 27.0571 19.4184 27.0558H10.0444V15.1647H19.3998C20.9379 15.1664 22.4137 15.7806 23.5098 16.875C24.606 17.9694 25.2348 19.4565 25.2609 21.0165L25.2795 21.1102Z" fill="#073742"/>
<path d="M102.86 19.9128H96.9619C96.8039 19.912 96.648 19.949 96.5067 20.0207C96.3653 20.0924 96.2426 20.1967 96.1484 20.3254L90.8235 27.8277C90.7868 27.88 90.7382 27.9225 90.6819 27.9519C90.6257 27.9813 90.5632 27.9967 90.5 27.9967C90.4367 27.9967 90.3743 27.9813 90.318 27.9519C90.2617 27.9225 90.2133 27.88 90.1765 27.8277L84.8515 20.3254C84.7589 20.1951 84.6365 20.0896 84.4948 20.0177C84.353 19.9459 84.1964 19.9099 84.038 19.9128H78.1401C77.9576 19.9135 77.7789 19.9649 77.6233 20.0614C77.4677 20.1578 77.3412 20.2957 77.2573 20.46C77.1735 20.6243 77.1356 20.8087 77.1478 20.9933C77.16 21.1779 77.2218 21.3555 77.3265 21.507L85.8869 33.5669C86.013 33.7373 86.0811 33.9446 86.0811 34.1577C86.0811 34.3708 86.013 34.5781 85.8869 34.7485L77.2894 46.8835C77.182 47.0343 77.1179 47.2124 77.1043 47.3981C77.0907 47.5836 77.1282 47.7694 77.2126 47.9346C77.2969 48.0999 77.4248 48.2381 77.5819 48.334C77.7392 48.4299 77.9195 48.4797 78.103 48.4777H84.001C84.1591 48.4784 84.3149 48.4415 84.4563 48.3698C84.5977 48.2982 84.7204 48.1938 84.8146 48.065L103.692 21.507C103.795 21.3536 103.855 21.1747 103.865 20.9894C103.875 20.8042 103.835 20.6197 103.749 20.4557C103.664 20.2917 103.536 20.1545 103.379 20.0589C103.222 19.9632 103.043 19.9127 102.86 19.9128Z" fill="#073742"/>
<path d="M41.0263 8.00001H35.9971C35.8659 7.99951 35.7359 8.02537 35.6145 8.07609C35.4931 8.12682 35.3829 8.2014 35.2901 8.29555C35.1973 8.38969 35.1238 8.50154 35.0738 8.62465C35.0238 8.74775 34.9982 8.87967 34.9988 9.01282V47.4433C34.9982 47.5764 35.0238 47.7084 35.0738 47.8315C35.1238 47.9545 35.1973 48.0664 35.2901 48.1605C35.3829 48.2547 35.4931 48.3292 35.6145 48.38C35.7359 48.4307 35.8659 48.4566 35.9971 48.456H41.0263C41.1574 48.4566 41.2874 48.4307 41.4088 48.38C41.5302 48.3292 41.6404 48.2547 41.7332 48.1605C41.826 48.0664 41.8996 47.9545 41.9496 47.8315C41.9996 47.7084 42.0252 47.5764 42.0246 47.4433V9.01282C42.0227 8.74481 41.9168 8.48834 41.7301 8.29882C41.5433 8.10931 41.2905 8.00197 41.0263 8.00001Z" fill="#073742"/>
<path d="M73.6167 19.865H69.7341C69.6028 19.8645 69.4728 19.8903 69.3514 19.9411C69.23 19.9918 69.1198 20.0664 69.027 20.1605C68.9342 20.2547 68.8607 20.3665 68.8107 20.4896C68.7607 20.6127 68.7351 20.7446 68.7357 20.8778L68.6062 22.0406V22.0594C68.3104 21.8906 67.8297 21.6093 67.6263 21.478C65.3227 20.0476 62.6727 19.2943 59.9719 19.3023C51.8735 19.3023 45.2729 25.8856 45.2729 34.1006C45.2748 36.7455 45.9707 39.3423 47.2888 41.6242C48.6071 43.9061 50.5001 45.7911 52.7738 47.0857C55.0476 48.3801 57.6198 49.0376 60.2267 48.9903C62.8336 48.9431 65.3812 48.193 67.6078 46.817L68.3288 46.3667L68.3659 46.4981V47.4358C68.3655 47.5691 68.3909 47.701 68.4409 47.824C68.4909 47.9471 68.5644 48.059 68.6572 48.1532C68.75 48.2473 68.8602 48.3218 68.9816 48.3727C69.103 48.4233 69.233 48.4492 69.3643 48.4487H73.6538C73.785 48.4492 73.9151 48.4233 74.0364 48.3727C74.1578 48.3218 74.2681 48.2473 74.3609 48.1532C74.4537 48.059 74.5271 47.9471 74.5771 47.824C74.6273 47.701 74.6527 47.5691 74.6522 47.4358V20.8778C74.6386 20.6072 74.5241 20.3519 74.3317 20.1639C74.1395 19.9758 73.8839 19.8689 73.6167 19.865ZM68.3659 36.4638C68.3445 36.5562 68.3321 36.6503 68.3288 36.7451V36.5951C68.255 36.8202 68.181 37.0452 68.0885 37.2703C67.5351 38.6583 66.6197 39.8674 65.4406 40.768C64.2616 41.6687 62.8632 42.2271 61.3953 42.3831C59.9273 42.5392 58.4452 42.2872 57.1077 41.6544C55.77 41.0214 54.6275 40.0311 53.8022 38.7898C52.977 37.5484 52.5001 36.1027 52.4229 34.6075C52.3457 33.1123 52.6708 31.6239 53.3637 30.3019C54.0566 28.9798 55.0908 27.8738 56.3559 27.1024C57.621 26.3312 59.069 25.9234 60.5449 25.9231C62.1574 25.9278 63.7326 26.4141 65.0742 27.3214C66.4157 28.2286 67.4641 29.5166 68.0885 31.0247C68.181 31.2497 68.255 31.4748 68.3288 31.6999V31.606C68.3321 31.6823 68.3446 31.7578 68.3659 31.8311C68.5798 32.5812 68.6919 33.3573 68.6986 34.138C68.7049 34.926 68.5927 35.7102 68.3659 36.4638Z" fill="#073742"/>
<path d="M122.545 8.00001H107.143C107.012 7.99951 106.882 8.02537 106.761 8.07609C106.639 8.12682 106.529 8.2014 106.436 8.29555C106.343 8.38969 106.27 8.50154 106.22 8.62465C106.17 8.74775 106.144 8.87967 106.145 9.01282V47.4433C106.144 47.5764 106.17 47.7084 106.22 47.8315C106.27 47.9545 106.343 48.0664 106.436 48.1605C106.529 48.2547 106.639 48.3292 106.761 48.38C106.882 48.4307 107.012 48.4566 107.143 48.456H112.172C112.304 48.4566 112.434 48.4307 112.555 48.38C112.676 48.3292 112.787 48.2547 112.879 48.1605C112.972 48.0664 113.046 47.9545 113.096 47.8315C113.146 47.7084 113.171 47.5764 113.171 47.4433V34.2018H122.545C125.931 34.2024 129.183 32.8546 131.599 30.4484C134.016 28.0423 135.406 24.7699 135.469 21.3353V21.129C135.47 19.406 135.137 17.6995 134.489 16.107C133.84 14.5146 132.889 13.0674 131.688 11.8482C130.488 10.6289 129.063 9.66155 127.494 9.00126C125.925 8.34098 124.243 8.00075 122.545 8.00001ZM128.406 21.1102C128.407 21.8914 128.256 22.6651 127.962 23.387C127.668 24.1089 127.236 24.7648 126.692 25.3171C126.147 25.8696 125.501 26.3074 124.789 26.6058C124.077 26.9041 123.315 27.0571 122.545 27.0558H113.171V15.1647H122.545C124.083 15.1664 125.559 15.7806 126.655 16.875C127.751 17.9694 128.38 19.4565 128.406 21.0165V21.1102Z" fill="#073742"/>
<path d="M206.01 19.9128H200.113C199.955 19.912 199.799 19.949 199.658 20.0207C199.517 20.0924 199.393 20.1967 199.3 20.3254L193.974 27.8277C193.939 27.88 193.89 27.9225 193.834 27.9519C193.776 27.9813 193.714 27.9967 193.651 27.9967C193.588 27.9967 193.525 27.9813 193.469 27.9519C193.413 27.9225 193.364 27.88 193.328 27.8277L188.002 20.3254C187.91 20.1951 187.787 20.0896 187.646 20.0177C187.504 19.9459 187.347 19.9099 187.189 19.9128H181.291C181.108 19.9135 180.93 19.9649 180.775 20.0614C180.618 20.1578 180.492 20.2957 180.408 20.46C180.325 20.6243 180.286 20.8087 180.299 20.9933C180.311 21.1779 180.373 21.3555 180.477 21.507L189.038 33.5669C189.165 33.7373 189.232 33.9446 189.232 34.1577C189.232 34.3708 189.165 34.5781 189.038 34.7485L180.404 46.8835C180.296 47.0343 180.232 47.2124 180.219 47.3981C180.204 47.5836 180.242 47.7694 180.327 47.9346C180.411 48.0999 180.539 48.2381 180.696 48.334C180.854 48.4299 181.033 48.4797 181.217 48.4777H187.115C187.273 48.4784 187.429 48.4415 187.57 48.3698C187.712 48.2982 187.834 48.1938 187.929 48.065L206.806 21.507C206.914 21.358 206.98 21.1813 206.996 20.9966C207.012 20.8119 206.976 20.6266 206.893 20.4612C206.811 20.2958 206.684 20.1569 206.529 20.0601C206.372 19.9632 206.194 19.9122 206.01 19.9128Z" fill="#073742"/>
<path d="M144.187 8.00001H139.157C139.026 7.99951 138.896 8.02537 138.775 8.07609C138.654 8.12682 138.543 8.2014 138.451 8.29555C138.358 8.38969 138.284 8.50154 138.234 8.62465C138.184 8.74775 138.159 8.87967 138.159 9.01282V47.4433C138.159 47.5764 138.184 47.7084 138.234 47.8315C138.284 47.9545 138.358 48.0664 138.451 48.1605C138.543 48.2547 138.654 48.3292 138.775 48.38C138.896 48.4307 139.026 48.4566 139.157 48.456H144.187C144.318 48.4566 144.448 48.4307 144.569 48.38C144.691 48.3292 144.801 48.2547 144.894 48.1605C144.986 48.0664 145.06 47.9545 145.11 47.8315C145.16 47.7084 145.185 47.5764 145.185 47.4433V9.01282C145.183 8.74481 145.077 8.48834 144.89 8.29882C144.704 8.10931 144.451 8.00197 144.187 8.00001Z" fill="#073742"/>
<path d="M176.746 19.865H172.864C172.732 19.8645 172.602 19.8903 172.48 19.9411C172.36 19.9918 172.249 20.0664 172.157 20.1605C172.064 20.2547 171.99 20.3665 171.94 20.4896C171.89 20.6127 171.864 20.7446 171.865 20.8778L171.736 22.0406V22.0594C171.44 21.8906 170.959 21.6093 170.756 21.478C168.452 20.0476 165.801 19.2943 163.101 19.3023C155.002 19.3023 148.403 25.8856 148.403 34.1006C148.404 36.7455 149.101 39.3423 150.418 41.6242C151.737 43.9061 153.629 45.7911 155.903 47.0857C158.177 48.3801 160.749 49.0376 163.356 48.9903C165.962 48.9431 168.511 48.193 170.738 46.817L171.459 46.3667L171.495 46.4981V47.4358C171.495 47.5691 171.521 47.701 171.571 47.824C171.62 47.9471 171.695 48.059 171.786 48.1532C171.88 48.2473 171.989 48.3218 172.111 48.3727C172.232 48.4233 172.363 48.4492 172.493 48.4487H176.783C176.915 48.4492 177.044 48.4233 177.165 48.3727C177.287 48.3218 177.398 48.2473 177.49 48.1532C177.583 48.059 177.656 47.9471 177.707 47.824C177.757 47.701 177.781 47.5691 177.781 47.4358V20.8778C177.769 20.6072 177.654 20.3519 177.461 20.1639C177.269 19.9758 177.013 19.8689 176.746 19.865ZM171.513 36.4638C171.492 36.5562 171.48 36.6503 171.476 36.7451V36.5951C171.403 36.8202 171.33 37.0452 171.236 37.2703C170.683 38.6583 169.768 39.8674 168.589 40.768C167.409 41.6687 166.011 42.227 164.543 42.3831C163.075 42.5392 161.594 42.2872 160.256 41.6544C158.919 41.0214 157.775 40.0311 156.95 38.7898C156.124 37.5484 155.647 36.1027 155.571 34.6075C155.494 33.1123 155.818 31.6239 156.512 30.3019C157.205 28.9798 158.239 27.8738 159.503 27.1024C160.769 26.3312 162.217 25.9234 163.693 25.9231C165.306 25.9278 166.88 26.4141 168.222 27.3214C169.564 28.2286 170.613 29.5166 171.236 31.0247C171.33 31.2497 171.403 31.4748 171.476 31.6999V31.606C171.48 31.6823 171.492 31.7578 171.513 31.8311C171.728 32.5812 171.84 33.3573 171.847 34.138C171.835 34.9247 171.723 35.7063 171.513 36.4638Z" fill="#073742"/>
</g>
<defs>
<clipPath id="clip0_3607_134656">
<rect width="204" height="41" fill="white" transform="translate(3 8)"/>
</clipPath>
</defs>
</svg>
