<svg width="145" height="57" viewBox="0 0 145 57" fill="none" xmlns="http://www.w3.org/2000/svg">
<path fill-rule="evenodd" clip-rule="evenodd" d="M42.161 14.37C45.4121 10.8 49.7392 9 55.0951 9C60.451 9 64.7761 10.806 67.9684 14.37C71.2118 17.934 72.8344 22.744 72.8344 28.944V29.052C72.833 35.2426 71.2112 40.12 67.9684 43.684C64.7761 47.246 60.4588 49 55.0951 49C49.7313 49 45.4062 47.246 42.161 43.684C38.9143 40.1254 37.2911 35.248 37.2911 29.052V28.944C37.2911 22.752 38.9098 17.94 42.161 14.37V14.37ZM49.7705 20.156C51.0953 17.93 52.861 16.8 55.0461 16.8C57.2312 16.8 58.9773 17.928 60.3001 20.156C61.6229 22.384 62.2853 25.396 62.2853 29.266V29.332C62.2853 33.202 61.6033 36.252 60.3001 38.478C58.9969 40.704 57.2312 41.8 55.0461 41.8C52.861 41.8 51.0953 40.704 49.7705 38.478C48.4458 36.2474 47.7834 33.1986 47.7834 29.332V29.266C47.7834 25.396 48.4458 22.382 49.7705 20.156ZM18.3563 16.734C22.2503 16.734 23.8749 18.488 23.8749 21.83C23.8749 25.284 22.2601 26.982 18.3622 26.982H13.3865V16.734H18.3563ZM28.9642 31.1C32.7367 28.9 34.7474 26.05 34.7474 21.942H34.7532C34.7532 14.7 30.146 9.722 19.9829 9.722H3V48.074H13.3865V33.996H18.9756L25.6386 48.078H37.293L28.9642 31.1V31.1ZM108.29 17.92L112.342 9.81H143V17.92H131.591V48.164H121.149V17.92H108.29V17.92ZM86.3623 48.076L86.3897 28.198L100.159 16.782L90.8226 31.024V31.334L98.6419 48.076H110.361L100.121 26.9L108.719 9.8H102.806L86.3897 21.822L86.4093 9.802H76.0229V48.076H86.3623Z" fill="#073742"/>
</svg>
