<svg width="575" height="111" viewBox="0 0 575 111" fill="none" xmlns="http://www.w3.org/2000/svg">
<path d="M180.381 73.4319L182.599 67.5611C183.002 66.5506 183.605 66.9562 184.015 67.1555L185.829 68.3652C192.078 72.4214 197.929 72.4214 199.743 72.4214C204.383 72.4214 207.394 69.9877 207.394 66.5506V66.3514C207.394 62.7079 202.959 61.2989 197.717 59.6622L196.513 59.2566C189.456 57.2285 181.791 54.2042 181.791 45.2806V45.0813C181.791 36.5776 188.649 30.4933 198.525 30.4933H199.531C205.375 30.4933 210.823 32.1158 214.854 34.7488C215.258 34.948 215.662 35.3536 215.457 35.9585L213.239 41.8293C212.835 42.8398 211.822 42.2349 211.822 42.2349C208.195 40.2068 202.754 38.7907 198.114 38.7907C193.877 38.7907 191.256 41.0181 191.256 44.0566V44.2559C191.256 47.7001 195.896 49.3083 201.139 50.945L202.145 51.1443C209.201 53.3716 216.668 56.4102 216.668 65.1203V65.3195C216.668 74.6416 210.009 80.306 199.325 80.306C194.083 80.306 189.053 79.4948 183.598 76.6626C182.592 76.0577 181.578 75.6521 180.572 74.8409C180.374 74.4353 179.97 74.236 180.374 73.4177L180.381 73.4319ZM337.657 73.4319L339.875 67.5611C340.278 66.5506 341.079 66.9562 341.292 67.1555L343.105 68.3652C349.354 72.4214 355.206 72.4214 357.019 72.4214C361.659 72.4214 364.67 69.9877 364.67 66.5506V66.3514C364.67 62.7079 360.235 61.2989 354.993 59.6622L353.789 59.2566C346.732 57.2285 339.067 54.2042 339.067 45.2806V45.0813C339.067 36.5776 345.925 30.4933 355.801 30.4933H356.807C362.651 30.4933 368.099 32.1158 372.13 34.7488C372.534 34.948 372.938 35.3536 372.733 35.9585L370.515 41.8293C370.111 42.8398 369.098 42.2349 369.098 42.2349C365.471 40.2068 360.03 38.7907 355.39 38.7907C351.153 38.7907 348.532 41.0181 348.532 44.0566V44.2559C348.532 47.7001 353.172 49.3083 358.415 50.945L359.421 51.1443C366.477 53.3716 373.944 56.4102 373.944 65.1203V65.3195C373.944 74.6416 367.285 80.306 356.601 80.306C351.359 80.306 346.329 79.4948 340.874 76.6626C339.868 76.0577 338.854 75.6521 337.848 74.8409C337.848 74.4353 337.445 74.236 337.65 73.4177L337.657 73.4319ZM454.197 45.6791C455.005 48.7177 455.614 51.9555 455.614 55.3997C455.614 58.8439 455.21 62.0888 454.197 65.1203C453.39 68.1589 451.98 70.7918 450.159 72.948C448.294 75.1963 445.951 76.9958 443.301 78.2139C440.482 79.4236 437.251 80.0356 433.624 80.0356C429.997 80.0356 426.766 79.4308 423.946 78.2139C421.127 76.9971 418.916 75.1753 417.089 72.948C415.261 70.7207 413.865 68.0877 413.05 65.1203C412.236 62.1529 411.634 58.8439 411.634 55.3997C411.634 51.9555 412.037 48.7106 413.05 45.6791C413.858 42.6405 415.268 40.0076 417.089 37.8514C418.954 35.6031 421.297 33.8036 423.946 32.5855C427 31.2525 430.294 30.5622 433.624 30.5574C437.251 30.5574 440.482 31.1623 443.301 32.5855C446.121 33.7952 448.331 35.624 450.159 37.8514C451.987 40.0787 453.383 42.7117 454.197 45.6791ZM445.129 55.2004C445.129 49.9345 444.123 45.8783 442.31 43.0461C440.496 40.2139 437.471 38.7907 433.638 38.7907C429.6 38.7907 426.78 40.2139 424.967 43.0461C423.153 45.8783 422.147 49.9345 422.147 55.2004C422.147 60.4664 423.153 64.5225 424.967 67.554C426.78 70.3862 429.607 71.8094 433.638 71.8094C437.669 71.8094 440.496 70.3862 442.31 67.554C444.329 64.7218 445.129 60.4664 445.129 55.2004ZM527.997 70.3862L530.214 76.4633C530.412 77.2746 529.81 77.4738 529.81 77.4738C526.381 78.8971 521.748 79.7012 517.108 79.7012C509.315 79.7012 503.399 77.4738 499.368 73.012C495.337 68.5503 493.318 62.4802 493.318 54.987C493.318 51.5428 493.722 48.2978 494.735 45.2664C495.748 42.2349 497.158 39.5948 499.17 37.4387C501.184 35.1786 503.661 33.3823 506.431 32.1727C509.621 30.8201 513.05 30.1302 516.513 30.1446C518.736 30.1534 520.957 30.2888 523.165 30.5503C525.184 30.9559 528.004 31.5608 529.215 32.1727C529.413 32.1727 530.023 32.5784 529.817 33.1832L527.6 39.2604C527.196 40.2709 526.594 39.8652 526.594 39.8652C523.569 38.8548 520.749 38.442 517.115 38.442C512.68 38.442 509.322 39.8652 507.232 42.8967C505.014 45.7289 503.803 49.5858 503.803 54.8518C503.803 60.5233 505.22 64.5724 507.629 67.2053C510.037 69.8383 513.473 71.048 517.901 71.048C519.715 71.048 521.33 70.8488 522.74 70.6424C524.15 70.436 525.559 70.0375 526.976 69.4326C526.778 69.8383 527.579 69.6319 527.982 70.4431L527.997 70.3862ZM573.763 43.8574C575.782 50.7458 574.768 56.6166 574.57 57.0222C574.57 57.8334 573.763 57.8334 573.763 57.8334H543.32C543.519 62.4944 544.525 65.6611 546.948 67.9596C549.165 70.1869 552.594 71.6031 557.433 71.6031C564.694 71.6031 567.705 70.1798 569.937 69.3757C569.937 69.3757 570.744 69.1765 571.141 69.9806L573.16 75.6521C573.564 76.6626 573.16 76.8619 572.962 77.0753C571.148 78.0858 566.515 80.1139 557.638 80.1139C553.402 80.1139 549.576 79.509 546.551 78.2922C543.526 77.0753 540.905 75.46 538.9 73.2398C536.895 71.0195 535.471 68.3795 534.465 65.5544C533.459 62.5158 533.048 59.278 533.048 55.8338C533.048 52.3896 533.452 49.1446 534.465 46.1132C535.272 43.0746 536.682 40.4416 538.503 38.2855C540.324 36.1293 542.739 34.2293 545.559 33.0196C548.379 31.5963 551.808 30.9915 555.64 30.9915C558.864 30.9915 561.889 31.5963 564.312 32.8132C566.125 33.6244 568.137 35.0405 570.156 37.2679C571.162 38.0791 572.976 41.1106 573.784 43.957L573.763 43.8574ZM543.512 50.333H565.084C564.886 47.5008 564.276 45.0671 563.065 43.039C561.251 40.2068 558.63 38.5843 554.599 38.5843C550.568 38.5843 547.741 40.2068 545.927 43.039C544.723 44.8608 544.114 47.2945 543.505 50.333H543.512ZM330.396 43.8574C332.415 50.7458 331.402 56.6166 331.402 57.0222C331.402 57.8334 330.594 57.8334 330.594 57.8334H300.152C300.35 62.4944 301.356 65.6611 303.779 67.9596C305.997 70.1869 309.425 71.6031 314.264 71.6031C321.526 71.6031 324.537 70.1798 326.768 69.3757C326.768 69.3757 327.576 69.1765 327.973 69.9806L329.992 75.6521C330.396 76.6626 329.992 76.8619 329.793 77.0753C327.98 78.0858 323.346 80.1139 314.47 80.1139C310.233 80.1139 306.407 79.509 303.382 78.2922C300.357 77.0753 297.736 75.46 295.731 73.2398C293.726 71.0195 292.302 68.3795 291.296 65.5544C290.29 62.5158 289.879 59.278 289.879 55.8338C289.879 52.3896 290.283 49.1446 291.296 46.1132C292.104 43.0746 293.514 40.4416 295.334 38.2855C297.155 36.1293 299.571 34.2293 302.391 33.0196C305.21 31.5963 308.639 30.9915 312.472 30.9915C315.695 30.9915 318.72 31.5963 321.143 32.8132C322.957 33.6244 324.969 35.0405 326.988 37.2679C327.796 38.0791 329.808 41.1106 330.417 43.957L330.396 43.8574ZM300.145 50.333H321.922C321.724 47.5008 321.115 45.0671 319.903 43.039C318.09 40.2068 315.469 38.5843 311.437 38.5843C307.406 38.5843 304.58 40.2068 302.766 43.039C301.349 44.8608 300.747 47.2945 300.145 50.333V50.333ZM246.713 48.7106L251.743 49.3154V48.1057C251.743 44.0495 250.936 42.0285 249.32 40.8117C247.705 39.5948 245.084 38.7836 241.86 38.7836C241.86 38.7836 234.4 38.7836 228.556 41.8222C228.357 42.0214 228.152 42.0214 228.152 42.0214C228.152 42.0214 227.344 42.2207 227.146 41.6158L224.929 35.745C224.525 34.9338 225.127 34.5353 225.127 34.5353C227.947 32.3079 234.408 31.0911 234.408 31.0911C236.625 30.6855 240.252 30.2798 242.47 30.2798C248.52 30.2798 253.153 31.7031 256.384 34.5353C259.614 37.3675 261.222 41.8293 261.222 48.1057V76.0506C261.222 76.0506 261.222 76.8619 260.62 77.0611C260.62 77.0611 259.416 77.4667 258.403 77.666L250.752 79.0892C247.726 79.6941 244.701 79.9004 241.471 79.9004C238.446 79.9004 235.824 79.7012 233.409 79.0892C230.993 78.4772 228.974 77.666 227.16 76.4562C225.545 75.2465 224.135 73.624 223.122 71.5959C222.116 69.7742 221.705 67.3405 221.705 64.7076C221.705 62.0746 222.307 59.6551 223.32 57.6199C224.333 55.5847 225.942 53.9765 227.755 52.5675C229.569 51.1585 231.793 50.3401 234.004 49.5289C236.427 48.924 238.842 48.5184 241.464 48.5184L246.706 48.7177L246.713 48.7106ZM234.613 70.1798C234.613 70.1798 237.433 72.4072 243.483 72.0016C247.918 71.8023 251.75 70.9911 251.75 70.9911V57.015C251.75 57.015 247.925 56.4102 243.483 56.4102C237.234 56.4102 234.613 58.6375 234.613 58.6375C232.799 59.8473 231.992 61.8754 231.992 64.5083C231.963 65.9238 232.31 67.3214 232.998 68.5574C233.196 68.963 233.402 69.3686 234.613 70.1798V70.1798ZM491.681 33.1192C491.483 33.9304 489.868 38.1716 489.464 39.5948C489.266 40.1997 488.862 40.4061 488.26 40.4061C488.26 40.4061 486.446 40.0005 484.831 40.0005C483.467 40.0318 482.113 40.235 480.8 40.6053C479.383 41.0109 478.178 41.815 476.974 42.8327C475.77 43.8503 474.955 45.4656 474.353 47.2873C473.751 49.1091 473.347 52.1476 473.347 55.3855V78.0645C473.347 78.6693 472.943 79.075 472.341 79.075H464.279C463.676 79.075 463.273 78.6693 463.273 78.0645V32.5285C463.273 31.9237 463.676 31.518 464.08 31.518H471.873C472.475 31.518 472.681 31.9237 472.681 32.5285V36.172C473.885 34.5495 475.904 33.1334 477.711 32.3293C479.517 31.5252 481.749 30.9061 485.504 31.1195C487.523 31.3188 490.144 31.7244 490.534 31.9308C491.341 32.13 491.738 32.3364 491.54 33.1405L491.681 33.1192ZM416.869 12.0555C417.067 12.0555 417.677 12.4611 417.471 13.066L415.048 19.5417C414.85 19.9473 414.644 20.3529 413.631 19.9473C413.433 19.9473 413.029 19.748 412.016 19.5417C411.414 19.3424 410.401 19.3424 409.593 19.3424C408.389 19.3424 407.376 19.5417 406.37 19.748C405.364 19.9544 404.556 20.5593 403.749 21.3705C402.941 22.1817 402.133 23.1922 401.531 24.6083C400.327 27.8461 399.916 31.2975 399.916 31.4967H409.593C410.401 31.4967 410.599 31.9023 410.599 32.5072L409.395 38.7836C409.196 39.7941 408.389 39.5948 408.389 39.5948H398.308L391.861 78.6836C391.053 82.7398 390.245 86.1768 389.239 89.0019C388.233 91.827 387.022 93.8622 385.201 95.8903C383.586 97.712 381.772 99.1281 379.555 99.733C377.536 100.544 374.915 100.943 372.095 100.943C370.678 100.943 369.275 100.943 367.66 100.537C366.69 100.388 365.742 100.116 364.84 99.7259C364.437 99.5266 364.238 99.121 364.437 98.5162L366.654 92.2398C367.058 91.4285 367.66 91.8341 367.66 91.8341L369.275 92.439C370.083 92.6383 370.891 92.6383 371.698 92.6383C373.115 92.6383 374.32 92.439 375.326 92.0334C376.53 91.6278 377.345 90.8237 378.145 89.8061C378.946 88.7884 379.562 87.3723 380.363 85.5506C381.107 83.0892 381.713 80.5875 382.176 78.0574L389.034 39.7727H382.375C381.567 39.7727 381.369 39.3671 381.369 38.7623L382.573 32.4859C382.771 31.4754 383.579 31.6746 383.579 31.6746H390.437L390.841 29.6465C391.847 23.5694 393.866 18.9154 396.891 15.8769C399.916 12.8383 404.351 11.2158 409.785 11.2158C411.4 11.2158 412.81 11.4151 414.021 11.6214C414.829 11.4222 415.835 11.6214 416.841 12.0271L416.869 12.0555ZM280.974 77.8795C280.974 78.4843 280.57 78.8899 280.166 78.8899H272.104C271.502 78.8899 271.297 78.4843 271.297 77.8795V12.8668C271.297 12.4611 271.7 11.8563 272.104 11.8563H280.166C280.769 11.8563 280.974 12.2619 280.974 12.8668V77.8795Z" fill="#073742"/>
<path d="M65.9354 12.0994C71.0573 6.80926 78.1937 3.46768 86.063 3.46768C96.5532 3.46768 105.642 9.30476 110.52 17.9386C114.728 16.0542 119.424 15.0201 124.364 15.0201C143.272 15.0201 158.518 30.4033 158.518 49.376C158.518 68.3486 143.21 83.7276 124.364 83.7276C122.049 83.7276 119.79 83.484 117.656 83.0588C113.387 90.6586 105.213 95.8291 95.8182 95.8291C91.9178 95.8291 88.1953 94.9168 84.9014 93.3357C80.5725 103.491 70.4465 110.663 58.6747 110.663C46.4165 110.663 35.9262 102.942 31.8994 92.0538C30.1132 92.4192 28.2944 92.6025 26.471 92.6007C11.834 92.6007 0 80.683 0 65.9065C0 56.0784 5.30621 47.421 13.2355 42.7996C11.5896 39.0906 10.6746 34.9584 10.6746 30.5785C10.6188 13.7424 24.463 4.32732e-05 41.4146 4.32732e-05C46.1611 -0.00790938 50.8449 1.08038 55.0989 3.17959C59.3528 5.2788 63.0612 8.33186 65.9333 12.0994" fill="#073742"/>
</svg>
