<svg width="100" height="27" viewBox="0 0 100 27" fill="none" xmlns="http://www.w3.org/2000/svg">
<path d="M48.9264 21.6618C48.8001 21.4089 48.6973 20.9572 48.6184 20.3068C47.5998 21.366 46.3833 21.8956 44.9689 21.8956C43.7058 21.8956 42.6694 21.538 41.86 20.8229C41.4686 20.488 41.1565 20.0701 40.9465 19.5996C40.7365 19.1291 40.6337 18.6177 40.6458 18.1025C40.6458 16.767 41.1532 15.7296 42.1681 14.9904C43.1829 14.2511 44.6104 13.8819 46.4506 13.8827H48.5879V12.8742C48.5879 12.1072 48.3592 11.4966 47.9018 11.0427C47.4444 10.5887 46.7673 10.3628 45.8705 10.3652C45.0882 10.3652 44.4329 10.5627 43.9047 10.958C43.3767 11.3532 43.1133 11.8313 43.1148 12.3921H40.9064C40.9064 11.7521 41.1322 11.1338 41.5835 10.5368C42.0687 9.915 42.7046 9.42754 43.4308 9.12068C44.2404 8.76583 45.1165 8.58832 46.0003 8.60017C47.4764 8.60017 48.6334 8.96981 49.4715 9.70901C50.3095 10.4483 50.7437 11.4646 50.7738 12.758V18.6615C50.7738 19.8389 50.9242 20.7754 51.2251 21.471V21.6607L48.9264 21.6618ZM45.2894 19.9906C45.9768 19.9903 46.6517 19.8059 47.2439 19.4565C47.8229 19.1425 48.292 18.6586 48.5879 18.0698V15.4387H46.8648C44.1797 15.4387 42.8372 16.225 42.8372 17.7977C42.8372 18.4843 43.0663 19.0213 43.5245 19.409C43.9826 19.7968 44.571 19.9906 45.2894 19.9906Z" fill="#073742"/>
<path d="M60.6449 18.2595C60.6565 17.9918 60.6015 17.7255 60.4847 17.4844C60.3678 17.2433 60.1929 17.0351 59.9757 16.8784C59.5311 16.554 58.7529 16.2713 57.6409 16.0304C56.529 15.7895 55.6488 15.5053 55.0003 15.1779C54.3481 14.8458 53.8662 14.4506 53.5547 13.9921C53.2347 13.5077 53.0712 12.9365 53.0864 12.3559C53.0864 11.302 53.5307 10.4129 54.4192 9.68866C55.3077 8.96448 56.4429 8.60165 57.8249 8.6001C59.2783 8.6001 60.4572 8.97655 61.3615 9.72938C61.7941 10.0723 62.1415 10.5109 62.3764 11.0106C62.6114 11.5104 62.7275 12.0578 62.7156 12.61H60.514C60.514 12.0078 60.2593 11.4898 59.75 11.0562C59.2407 10.6226 58.599 10.4053 57.8249 10.4046C57.0267 10.4046 56.403 10.5785 55.9538 10.9263C55.7395 11.0819 55.5659 11.2872 55.448 11.5246C55.3301 11.7619 55.2713 12.0243 55.2768 12.2893C55.2768 12.8163 55.486 13.2152 55.9043 13.4863C56.3225 13.7573 57.0812 14.0129 58.1803 14.253C59.2742 14.4984 60.1608 14.7909 60.8401 15.1304C61.5194 15.4699 62.0227 15.8787 62.35 16.3568C62.6893 16.8756 62.8611 17.4862 62.842 18.1059C62.8563 18.6427 62.7383 19.1749 62.4986 19.6553C62.259 20.1358 61.9048 20.5499 61.4675 20.8612C60.5513 21.553 59.3626 21.899 57.9016 21.899C56.9648 21.9174 56.0351 21.7313 55.1775 21.3535C54.4309 21.0267 53.7892 20.4994 53.3234 19.8302C52.886 19.2114 52.651 18.4721 52.6509 17.7141H54.8401C54.8474 18.0531 54.9304 18.3861 55.0831 18.6888C55.2358 18.9915 55.4542 19.2561 55.7225 19.4632C56.2709 19.8931 56.9954 20.1084 57.896 20.1091C58.7235 20.1091 59.3889 19.9409 59.8922 19.6044C60.3955 19.2679 60.6464 18.8196 60.6449 18.2595Z" fill="#073742"/>
<path d="M67.6353 5.72998V8.83533H70.0288V10.5292H67.6365V18.4924C67.6365 19.0074 67.7429 19.3932 67.9558 19.6499C68.1687 19.9066 68.5321 20.0353 69.0459 20.036C69.3974 20.0233 69.7466 19.9757 70.0886 19.8938V21.661C69.5409 21.8147 68.975 21.8941 68.4061 21.897C67.4281 21.897 66.6897 21.6008 66.1909 21.0083C65.6921 20.4159 65.4435 19.5739 65.445 18.4823V10.5314H63.1102V8.83757H65.4439V5.73224L67.6353 5.72998Z" fill="#073742"/>
<path d="M77.753 10.8032C77.3971 10.7461 77.0365 10.7185 76.6756 10.7208C75.2379 10.7208 74.2626 11.3332 73.7494 12.558V21.6619H71.558V8.83504H73.6908L73.7258 10.3177C74.445 9.17263 75.4636 8.6001 76.7816 8.6001C77.2082 8.6001 77.5317 8.65583 77.753 8.76723V10.8032Z" fill="#073742"/>
<path d="M81.1193 21.6628H78.9277V8.83594H81.1193V21.6628Z" fill="#073742"/>
<path d="M84.6753 21.6622V10.5315H82.65V8.83761H84.6753V7.51983C84.6753 6.14441 85.0427 5.08143 85.7769 4.33088C86.511 3.58033 87.5499 3.20392 88.8929 3.20166C89.4004 3.20349 89.9063 3.27221 90.3968 3.40605L90.2838 5.17441C89.8932 5.09887 89.4971 5.06105 89.0987 5.06149C88.3878 5.06149 87.8393 5.26964 87.4525 5.68594C87.0657 6.10225 86.8723 6.69885 86.8723 7.47578V8.8308H88.3924L89.0569 10.5246H86.8669V21.6554L84.6753 21.6622Z" fill="#073742"/>
<path d="M94.669 18.4497L97.6543 8.83545H99.9998L94.8461 23.6418C94.0501 25.7761 92.7822 26.8428 91.0439 26.842L90.6292 26.8071L89.8123 26.6523V24.8749L90.4049 24.9224C91.1475 24.9224 91.7254 24.7718 92.1393 24.4707C92.5532 24.1696 92.8936 23.6223 93.162 22.8288L93.647 21.5245L89.0774 8.83545H91.4686L94.669 18.4497Z" fill="#073742"/>
<path d="M32.8755 13.5774C30.821 12.9864 29.3254 12.2603 28.3887 11.3991C27.9383 11.0002 27.5796 10.5084 27.3372 9.95753C27.0948 9.40659 26.9747 8.80974 26.9849 8.20794C26.9849 6.77758 27.5571 5.5934 28.7013 4.65539C29.8455 3.71739 31.3325 3.24876 33.1621 3.24951C34.4102 3.24951 35.5229 3.49117 36.5001 3.97447C37.4288 4.41463 38.2155 5.10673 38.7706 5.97206C39.3019 6.80305 39.5814 7.77026 39.5752 8.75672H37.1682C37.1682 7.6546 36.8188 6.78886 36.1198 6.15951C35.4209 5.53016 34.4351 5.21473 33.1621 5.21322C31.981 5.21322 31.0598 5.47408 30.3985 5.99578C29.7372 6.51747 29.4058 7.2398 29.4043 8.16274C29.4043 8.90581 29.718 9.53323 30.3455 10.0452C30.9729 10.5571 32.0423 11.0264 33.5537 11.4533C35.0636 11.8787 36.2447 12.3472 37.0971 12.8592C37.9494 13.3711 38.5825 13.9685 38.9963 14.6512C39.4078 15.3341 39.6139 16.1373 39.6147 17.061C39.6147 18.5343 39.0403 19.7143 37.8915 20.6011C36.7427 21.4879 35.208 21.9313 33.2873 21.9313C32.0838 21.9412 30.8917 21.6965 29.7891 21.2131C28.7081 20.7343 27.8742 20.079 27.2873 19.2472C26.7017 18.4189 26.3936 17.4262 26.4071 16.4117H28.8152C28.8152 17.5116 29.2212 18.3795 30.0329 19.0157C30.8446 19.6518 31.9284 19.9703 33.284 19.971C34.5478 19.971 35.5169 19.7132 36.1909 19.1975C36.865 18.6818 37.2035 17.9779 37.2066 17.0858C37.2066 16.1961 36.8947 15.5072 36.271 15.0194C35.6474 14.5316 34.5155 14.0509 32.8755 13.5774Z" fill="#073742"/>
<path d="M78.7465 5.52059C78.7372 5.1912 78.8533 4.87058 79.0699 4.62286C79.2873 4.37819 79.6075 4.25586 80.033 4.25586C80.4577 4.25586 80.7803 4.37819 81.0008 4.62286C81.222 4.86873 81.3404 5.19003 81.3319 5.52059C81.3412 5.84796 81.2228 6.16618 81.0008 6.40702C80.7803 6.64266 80.4577 6.76047 80.033 6.76047C79.6075 6.76047 79.2873 6.64266 79.0699 6.40702C78.8525 6.16431 78.7365 5.84678 78.7465 5.52059Z" fill="#073742"/>
<path d="M8.38392 16.8174C7.25948 16.8262 6.14536 16.6024 5.11137 16.1602C4.11558 15.7337 3.21249 15.1169 2.45271 14.3444C2.01786 13.8984 1.63302 13.4061 1.30506 12.8765C1.05658 13.2655 0.839961 13.6742 0.657317 14.0983C0.21944 15.1285 -0.00329169 16.2376 0.0028075 17.3572V25.7462L8.94478 16.7971C8.75517 16.8095 8.57237 16.8174 8.38392 16.8174Z" fill="#073742"/>
<path d="M16.786 17.3574C16.792 16.2378 16.5693 15.1288 16.1314 14.0984C15.9498 13.6775 15.7359 13.2712 15.4916 12.8834L15.4825 12.8698C15.1553 12.3396 14.7703 11.8474 14.3349 11.4019L8.94985 16.7893L8.94196 16.7972L0 25.7463H8.40253C9.5268 25.7557 10.6409 25.5328 11.6751 25.0914C12.6675 24.6668 13.5695 24.0562 14.3326 23.2925C14.4263 23.1988 14.5177 23.1028 14.6057 23.0057C15.2415 22.3053 15.7563 21.5039 16.1292 20.6344C16.5713 19.5989 16.7949 18.4833 16.786 17.3574Z" fill="#073742"/>
<path d="M16.7861 0L7.84186 8.95021C8.03255 8.93775 8.22556 8.92877 8.41966 8.92877C9.54401 8.91971 10.6581 9.14312 11.6922 9.58483C12.6877 10.0118 13.5907 10.6286 14.3508 11.4006C14.7851 11.8471 15.1699 12.3393 15.4985 12.8686C15.747 12.4799 15.9643 12.0721 16.1485 11.649C16.5866 10.6187 16.8097 9.50974 16.8042 8.39014V0H16.7861Z" fill="#073742"/>
<path d="M8.38389 0.000325067C7.25959 -0.00972298 6.14535 0.213274 5.11137 0.65527C3.10818 1.51108 1.51256 3.10778 0.65732 5.11231C0.225274 6.14758 0.00280762 7.25835 0.00280762 8.38031C0.00280762 9.50216 0.225274 10.6129 0.65732 11.6482C0.841359 12.0742 1.05869 12.4851 1.30731 12.8768C1.63528 13.4065 2.02012 13.8988 2.45496 14.3448L7.83997 8.95733L7.84678 8.95052L16.791 0.000325067H8.38389Z" fill="#073742"/>
<path d="M8.94993 16.7892C8.76256 16.8016 8.57411 16.8174 8.38567 16.8174C7.26125 16.8262 6.14713 16.6024 5.11314 16.1602C4.11735 15.7337 3.21426 15.1169 2.45448 14.3444C2.01963 13.8984 1.63479 13.4061 1.30683 12.8765C1.05835 13.2655 0.841731 13.6742 0.659087 14.0983C0.221209 15.1285 -0.00152166 16.2376 0.00457752 17.3572V18.3735C5.68753 19.4835 8.94544 16.7926 8.94993 16.7892Z" fill="#073742"/>
<path d="M7.85248 8.96652C8.04093 8.95414 8.22822 8.93943 8.41674 8.93943C9.54109 8.9303 10.6552 9.15363 11.6892 9.59549C12.6825 10.0227 13.5827 10.6403 14.3389 11.4136C14.7769 11.8625 15.1644 12.3582 15.4944 12.8917C15.7452 12.4984 15.9641 12.0857 16.1489 11.6574C16.5872 10.6272 16.8103 9.51824 16.8046 8.39855V7.38222C11.116 6.27222 7.85813 8.96312 7.85248 8.96652Z" fill="#073742"/>
</svg>
