<svg width="887" height="181" viewBox="0 0 887 181" fill="none" xmlns="http://www.w3.org/2000/svg">
<g clip-path="url(#clip0_641_12)">
<g clip-path="url(#clip1_641_12)">
<path d="M844.983 110.138V128.983C844.983 133.5 843.894 136.926 841.716 139.263C839.538 141.599 836.582 142.845 833.471 142.689C830.359 142.845 827.559 141.443 825.537 139.263C823.514 136.926 822.425 133.5 822.425 128.983V66.2182C822.425 56.0947 826.159 50.9552 833.471 50.9552C837.205 50.9552 839.849 52.2011 841.561 54.5373C843.272 56.8735 844.05 60.4556 844.205 64.9722C846.383 61.0786 849.184 57.4965 852.451 54.5373C855.251 52.2011 858.985 50.9552 863.807 50.9552C868.63 50.9552 873.297 52.2011 877.653 54.5373C882.165 56.8735 884.343 59.9884 884.343 64.0377C884.499 66.6854 883.41 69.1773 881.543 70.8905C879.987 72.6037 877.653 73.5382 875.32 73.5382C873.297 73.2267 871.275 72.7595 869.408 71.9807C866.763 71.0463 863.807 70.579 861.007 70.4233C858.051 70.2675 855.251 71.202 852.917 73.0709C850.584 75.0956 848.873 77.899 848.095 80.8582C846.85 84.7518 846.072 88.8012 845.761 93.0063C845.139 97.6786 844.983 103.441 844.983 110.138ZM788.977 102.507H744.951C744.951 107.179 746.04 111.851 748.062 116.057C751.485 123.377 758.952 128.049 767.042 127.893C769.531 127.893 772.02 127.582 774.509 126.959C776.843 126.336 779.021 125.245 781.043 124C783.066 122.754 784.932 121.196 786.799 119.639C788.511 118.081 790.844 116.057 793.645 113.409C795.045 112.319 796.756 111.851 798.623 111.851C800.645 111.696 802.668 112.474 804.223 113.72C805.779 115.122 806.557 117.147 806.401 119.171C806.246 121.663 805.468 124.155 804.068 126.336C802.201 129.451 799.712 132.098 796.911 134.123C793.178 136.926 789.133 138.951 784.777 140.353C779.332 142.066 773.731 143 767.975 142.845C753.507 142.845 742.306 138.64 734.216 130.385C726.126 122.131 722.237 110.917 722.237 96.7442C722.081 90.3586 723.17 84.1288 725.193 78.2105C727.06 72.7594 730.016 67.7756 733.905 63.5705C737.794 59.3654 742.617 56.2505 747.906 54.2258C753.818 52.0454 760.041 50.9552 766.419 50.9552C775.287 50.9552 782.754 52.8241 789.133 56.562C795.045 59.9884 800.023 64.9722 803.29 71.0463C806.401 76.4973 807.957 82.7271 807.957 89.1127C807.957 94.7195 806.401 98.4574 803.134 100.171C799.245 101.572 794.734 102.507 788.977 102.507ZM744.795 89.5799H785.71C785.088 81.7927 783.066 76.0301 779.488 72.2922C775.909 68.3986 771.087 66.5297 765.175 66.5297C759.885 66.3739 754.907 68.5543 751.329 72.448C747.751 76.3416 745.573 82.1041 744.795 89.5799ZM685.211 129.918V127.737C682.566 130.852 679.61 133.656 676.188 136.148C673.232 138.328 670.12 140.041 666.542 141.131C662.964 142.222 659.075 142.845 655.341 142.845C650.207 142.845 645.073 141.754 640.406 139.418C635.739 137.082 631.694 133.811 628.427 129.606C625.004 125.09 622.36 120.106 620.804 114.655C619.093 108.581 618.159 102.351 618.159 96.1212C618.159 81.9484 621.582 71.0463 628.427 63.1033C635.272 55.1603 644.295 51.2667 655.652 51.2667C662.186 51.2667 667.631 52.3569 672.143 54.5373C677.121 57.185 681.477 60.6113 685.211 64.8165V31.4871C685.211 26.8147 686.144 23.3883 688.011 21.0521C689.878 18.716 692.834 17.3143 695.945 17.47C699.368 17.47 702.013 18.5602 703.879 20.7407C705.746 22.9211 706.68 26.1917 706.68 30.3968V129.918C706.68 134.279 705.746 137.394 703.724 139.574C701.701 141.754 698.901 142.845 696.101 142.845C693.145 142.845 690.345 141.754 688.478 139.574C686.144 137.238 685.211 133.967 685.211 129.918ZM640.873 96.7442C640.717 102.039 641.651 107.491 643.673 112.474C645.229 116.368 648.029 119.794 651.452 122.131C654.719 124.311 658.452 125.401 662.342 125.401C666.231 125.401 669.965 124.311 673.232 122.286C676.654 119.95 679.455 116.68 681.01 112.786C683.033 108.581 683.966 103.13 683.966 96.7442C684.122 91.4488 683.033 86.1535 681.01 81.3254C679.299 77.276 676.654 73.8497 673.076 71.3578C669.809 69.1773 666.075 67.9314 662.186 67.9314C658.297 67.9314 654.408 69.1773 651.141 71.5135C647.718 74.1612 645.073 77.5875 643.518 81.6369C641.651 86.3093 640.717 91.6046 640.873 96.7442ZM572.266 69.3331L582.067 59.5211L570.865 48.3075L572.421 48.619L573.043 48.7747C577.399 49.865 581.6 51.5781 585.489 53.9143C590.779 57.185 595.135 61.7016 598.557 66.9969C600.891 70.7348 604.78 78.0548 604.78 86.3093V133.656C604.469 138.951 600.113 143.156 594.668 143.156C588.756 143.156 584.089 138.951 584.089 133.656V86.3093C584.089 80.8582 578.8 73.6939 572.421 70.579L571.799 70.2675L571.488 70.1118L572.266 69.3331ZM528.861 66.9969C532.128 61.8573 536.484 57.4965 541.618 54.2258C545.663 51.7339 550.019 49.865 554.686 48.619V40.3645L573.666 59.3654L554.686 78.3663V70.1118C549.085 73.0709 544.263 78.9892 543.174 85.219C543.174 85.5305 543.018 85.9978 543.018 86.3093C542.862 87.2437 542.862 88.1782 542.862 88.9569V133.5C542.862 138.64 538.04 143.156 532.439 143.156C525.905 143.156 522.638 138.172 522.483 133.5V86.1535C522.327 80.2352 524.505 73.8497 528.861 66.9969ZM499.147 67.4641C495.88 62.3246 491.524 57.8079 486.39 54.5373C482.345 52.0454 477.989 50.1764 473.322 48.9305V40.8317L454.342 59.8326L473.322 78.8335V70.579C478.922 73.5382 483.745 79.4565 484.834 85.6863C484.834 85.9978 484.99 86.465 484.99 86.7765C485.145 87.711 485.145 88.6454 485.145 89.4242V133.967C485.145 139.107 489.968 143.623 495.569 143.623C502.103 143.623 505.37 138.64 505.525 133.967V86.6207C505.525 80.7024 503.503 74.3169 499.147 67.4641ZM455.587 69.8003L445.785 59.9884L456.987 48.7747L455.431 49.0862L454.809 49.242C450.453 50.3322 446.252 52.0454 442.518 54.3816C437.229 57.6522 432.873 62.1688 429.45 67.4641C427.117 71.202 423.228 78.522 423.228 86.7765V134.123C423.539 139.418 427.895 143.623 433.34 143.623C439.251 143.623 443.919 139.418 443.919 134.123V86.7765C443.919 81.3254 449.208 74.1612 455.587 71.0463L456.209 70.7348L456.52 70.579C456.364 70.579 455.587 69.8003 455.587 69.8003ZM389.78 102.507H345.597C345.597 107.179 346.686 111.851 348.709 116.057C352.131 123.377 359.599 128.049 367.688 127.893C370.178 127.893 372.667 127.582 375.156 126.959C377.489 126.336 379.667 125.245 381.69 124C383.712 122.754 385.579 121.196 387.446 119.639C389.157 118.081 391.491 116.057 394.291 113.409C395.691 112.319 397.403 111.851 399.269 111.851C401.292 111.696 403.314 112.474 404.87 113.72C406.426 115.122 407.204 117.147 407.048 119.171C406.892 121.663 406.115 124.155 404.714 126.336C402.848 129.451 400.358 132.098 397.558 134.123C393.824 136.926 389.78 138.951 385.424 140.353C379.979 142.066 374.378 143 368.622 142.845C354.154 142.845 342.952 138.64 334.863 130.385C326.773 122.131 322.884 110.917 322.884 96.7442C322.728 90.3586 323.817 84.1288 325.839 78.2105C327.706 72.7594 330.662 67.7756 334.551 63.5705C338.441 59.3654 343.264 56.2505 348.553 54.2258C354.465 52.0454 360.688 50.9552 367.066 50.9552C375.934 50.9552 383.401 52.8241 389.78 56.562C395.691 59.9884 400.67 64.9722 403.937 71.0463C407.048 76.4973 408.604 82.7271 408.604 89.1127C408.604 94.7195 407.048 98.4574 403.781 100.171C400.203 101.572 395.691 102.507 389.78 102.507ZM345.597 89.5799H386.513C385.89 81.7927 383.868 76.0301 380.29 72.2922C376.711 68.3986 371.889 66.5297 365.977 66.5297C360.688 66.3739 355.709 68.5543 352.131 72.448C348.553 76.3416 346.375 82.1041 345.597 89.5799ZM312.927 113.253C313.083 118.86 311.527 124.467 308.415 129.295C305.46 133.656 300.948 137.082 295.036 139.418C289.124 141.754 281.968 142.845 273.412 142.845C265.322 142.845 258.321 141.599 252.565 139.107C246.809 136.615 242.453 133.5 239.808 129.762C237.008 126.024 235.608 122.286 235.608 118.548C235.608 116.212 236.541 113.876 238.252 112.163C239.964 110.45 242.453 109.515 244.942 109.515C246.964 109.36 248.831 109.982 250.387 111.228C251.787 112.63 253.032 114.343 253.965 116.057C255.988 119.639 258.788 122.754 262.21 125.09C265.478 127.114 269.834 128.049 275.434 128.049C279.946 128.049 283.679 127.114 286.48 125.09C289.436 123.065 290.836 120.729 290.836 118.237C290.836 114.343 289.28 111.384 286.324 109.515C283.368 107.646 278.39 105.933 271.545 104.22C265.011 102.662 258.788 100.638 252.565 98.1459C248.053 96.2769 244.009 93.4735 240.897 89.7356C237.941 86.1535 236.386 81.6369 236.541 76.9646C236.541 72.448 237.941 67.9314 240.586 64.1935C243.542 59.9884 247.742 56.562 252.565 54.5373C257.854 52.2011 264.233 50.9552 271.545 50.9552C276.834 50.9552 282.124 51.5781 287.258 52.8241C291.302 53.7586 295.347 55.4718 298.925 57.6522C301.726 59.3654 304.215 61.7016 306.082 64.3492C307.638 66.5297 308.415 69.0216 308.415 71.6692C308.571 74.0054 307.482 76.3416 305.771 78.0548C304.059 79.768 301.57 80.5467 298.459 80.5467C296.281 80.5467 294.258 79.9237 292.547 78.522C290.525 76.8088 288.658 74.7841 286.946 72.6037C285.235 70.4233 283.213 68.7101 280.879 67.3084C278.546 66.0624 275.434 65.2837 271.389 65.2837C267.811 65.128 264.233 66.0624 261.277 67.9314C258.632 69.6446 257.232 71.825 257.232 74.4726C257.232 76.8088 258.321 78.9892 260.188 80.3909C262.677 82.1041 265.322 83.3501 268.122 84.1288C271.545 85.0633 276.056 86.3093 281.968 87.711C287.88 89.1127 293.636 91.1373 299.081 93.785C302.97 95.8097 306.549 98.6131 309.193 102.195C311.682 105.466 312.927 109.36 312.927 113.253ZM66.345 -25.2041C2.5605 -25.2041 -49.0894 26.5032 -49.0894 90.3586C-49.0894 154.214 2.5605 205.921 66.345 205.921C130.13 205.921 181.624 154.214 181.624 90.3586C181.624 26.5032 129.974 -25.2041 66.345 -25.2041ZM41.1423 74.9399C41.4535 75.2514 41.6091 75.5629 41.9202 75.8743C42.5425 76.6531 43.1648 77.4318 43.9427 78.2105L78.0129 112.319C81.5911 115.901 81.1244 122.442 77.3906 126.18C73.8125 129.918 67.9007 130.229 64.167 126.647C64.0114 126.491 64.0115 126.491 63.8559 126.336L27.6076 90.0471C22.3181 84.7518 19.6734 77.7433 18.1177 70.7348C15.473 59.5211 17.4954 47.6845 23.5627 37.8726L16.4064 30.7083H45.6539V59.8326L38.4976 52.6684V52.8241C35.8529 60.2999 36.7863 68.5543 41.1423 74.9399ZM94.815 156.706C90.7702 159.198 86.2586 161.067 81.7467 162.157C75.3682 163.559 68.6786 163.559 62.3002 162.157C55.6106 160.6 48.2987 157.485 43.3204 152.345L7.07208 116.057C3.6495 112.163 3.80507 106.245 7.5388 102.507C11.5837 98.4574 17.8066 98.1459 21.3847 101.728L57.633 138.017C62.3002 142.689 72.4123 143.779 79.7242 141.443L80.5021 141.131V156.239H95.7485L94.815 156.706ZM86.8808 149.853V120.573L94.0372 127.737V127.582C96.8375 120.417 95.904 112.163 91.3924 105.777C91.0813 105.466 90.9257 105.154 90.6146 104.843C89.9923 104.064 89.37 103.285 88.5921 102.507L54.5216 68.3986C50.9434 64.8165 51.4101 58.2752 55.1438 54.5373C58.722 50.7994 64.6337 50.4879 68.3675 54.0701C68.523 54.2258 68.523 54.2258 68.6786 54.3816L104.927 90.6701C110.217 95.9654 112.861 102.974 114.417 109.982C117.062 121.196 115.039 133.033 108.972 142.845L116.128 150.009H86.8808V149.853ZM125.152 78.0548C121.107 82.1041 114.884 82.4156 111.306 78.8335L75.0571 42.5449C70.3899 37.8726 60.2777 36.7824 52.9658 39.1186L52.188 39.43V24.3228H36.9419L37.7198 23.8555C47.5208 17.7815 59.1887 15.9126 70.3899 18.4045C77.0795 19.9619 84.3917 23.0768 89.37 28.2164L125.618 64.505C129.196 68.3986 128.885 74.4726 125.152 78.0548Z" fill="#073742"/>
</g>
<g clip-path="url(#clip2_641_12)">
<path d="M700.431 105.887V120.653C700.431 124.192 699.577 126.877 697.871 128.708C696.165 130.538 693.849 131.514 691.411 131.392C688.973 131.514 686.779 130.416 685.194 128.708C683.61 126.877 682.757 124.192 682.757 120.653V71.4737C682.757 63.5415 685.682 59.5144 691.411 59.5144C694.336 59.5144 696.408 60.4907 697.749 62.3212C699.09 64.1517 699.699 66.9585 699.821 70.4975C701.528 67.4466 703.722 64.6398 706.281 62.3212C708.475 60.4907 711.401 59.5144 715.179 59.5144C718.958 59.5144 722.615 60.4907 726.028 62.3212C729.562 64.1517 731.269 66.5924 731.269 69.7653C731.391 71.8398 730.537 73.7924 729.075 75.1348C727.856 76.4771 726.028 77.2093 724.199 77.2093C722.615 76.9653 721.03 76.5992 719.567 75.989C717.495 75.2568 715.179 74.8907 712.985 74.7687C710.669 74.6466 708.475 75.3788 706.647 76.8432C704.819 78.4297 703.478 80.6263 702.868 82.9449C701.893 85.9958 701.284 89.1686 701.04 92.4636C700.553 96.1246 700.431 100.64 700.431 105.887ZM656.55 99.9076H622.056C622.056 103.569 622.909 107.23 624.493 110.525C627.175 116.26 633.026 119.921 639.364 119.799C641.314 119.799 643.264 119.555 645.215 119.067C647.043 118.579 648.749 117.725 650.334 116.748C651.919 115.772 653.381 114.552 654.844 113.331C656.185 112.111 658.013 110.525 660.207 108.45C661.304 107.596 662.645 107.23 664.108 107.23C665.692 107.108 667.277 107.718 668.496 108.694C669.714 109.792 670.324 111.379 670.202 112.965C670.08 114.918 669.471 116.87 668.374 118.579C666.911 121.019 664.961 123.094 662.767 124.681C659.841 126.877 656.672 128.464 653.259 129.562C648.993 130.904 644.605 131.636 640.095 131.514C628.759 131.514 619.983 128.219 613.645 121.752C607.307 115.284 604.26 106.497 604.26 95.3924C604.138 90.389 604.991 85.5076 606.576 80.8703C608.038 76.5992 610.354 72.6941 613.401 69.3992C616.449 66.1043 620.227 63.6636 624.371 62.0771C629.003 60.3687 633.879 59.5144 638.876 59.5144C645.824 59.5144 651.675 60.9788 656.672 63.9076C661.304 66.5924 665.205 70.4975 667.764 75.2568C670.202 79.528 671.421 84.4093 671.421 89.4127C671.421 93.8059 670.202 96.7348 667.642 98.0771C664.595 99.1754 661.06 99.9076 656.55 99.9076ZM621.934 89.7788H653.991C653.503 83.6771 651.919 79.1619 649.115 76.2331C646.312 73.1822 642.533 71.7178 637.901 71.7178C633.757 71.5958 629.856 73.3042 627.053 76.3551C624.25 79.4059 622.543 83.9212 621.934 89.7788ZM575.25 121.386V119.677C573.178 122.118 570.862 124.314 568.18 126.267C565.864 127.975 563.427 129.318 560.623 130.172C557.82 131.026 554.772 131.514 551.847 131.514C547.825 131.514 543.802 130.66 540.146 128.83C536.489 126.999 533.32 124.436 530.76 121.142C528.079 117.603 526.006 113.697 524.788 109.426C523.447 104.667 522.715 99.7856 522.715 94.9042C522.715 83.7992 525.397 75.2568 530.76 69.0331C536.123 62.8093 543.193 59.7585 552.091 59.7585C557.21 59.7585 561.476 60.6127 565.011 62.3212C568.912 64.3958 572.325 67.0805 575.25 70.3754V44.2602C575.25 40.5992 575.981 37.9144 577.444 36.0839C578.907 34.2534 581.222 33.1551 583.66 33.2771C586.342 33.2771 588.414 34.1314 589.877 35.8398C591.339 37.5483 592.071 40.111 592.071 43.4059V121.386C592.071 124.803 591.339 127.243 589.755 128.952C588.17 130.66 585.976 131.514 583.782 131.514C581.466 131.514 579.272 130.66 577.81 128.952C575.981 127.121 575.25 124.558 575.25 121.386ZM540.511 95.3924C540.389 99.5415 541.121 103.813 542.705 107.718C543.924 110.769 546.118 113.453 548.8 115.284C551.359 116.992 554.285 117.847 557.332 117.847C560.379 117.847 563.305 116.992 565.864 115.406C568.546 113.575 570.74 111.013 571.959 107.962C573.543 104.667 574.275 100.396 574.275 95.3924C574.397 91.2432 573.543 87.0941 571.959 83.311C570.618 80.1381 568.546 77.4534 565.742 75.5009C563.183 73.7924 560.257 72.8161 557.21 72.8161C554.163 72.8161 551.116 73.7924 548.556 75.6229C545.874 77.6975 543.802 80.3822 542.583 83.5551C541.121 87.2161 540.389 91.3653 540.511 95.3924ZM486.758 73.9144L494.437 66.2263L485.661 57.4398L486.88 57.6839L487.367 57.8059C490.78 58.6602 494.071 60.0026 497.119 61.8331C501.263 64.3958 504.676 67.9348 507.357 72.0839C509.186 75.0127 512.233 80.7483 512.233 87.2161V124.314C511.989 128.464 508.576 131.758 504.31 131.758C499.678 131.758 496.022 128.464 496.022 124.314V87.2161C496.022 82.9449 491.877 77.3314 486.88 74.8907L486.392 74.6466L486.148 74.5246L486.758 73.9144ZM452.751 72.0839C455.31 68.0568 458.723 64.6398 462.746 62.0771C465.915 60.1246 469.328 58.6602 472.984 57.6839V51.2161L487.855 66.1042L472.984 80.9924V74.5246C468.596 76.8432 464.818 81.4805 463.965 86.3619C463.965 86.6059 463.843 86.972 463.843 87.2161C463.721 87.9483 463.721 88.6805 463.721 89.2907V124.192C463.721 128.219 459.942 131.758 455.554 131.758C450.435 131.758 447.875 127.853 447.753 124.192V87.0941C447.631 82.4568 449.338 77.4534 452.751 72.0839ZM429.47 72.45C426.91 68.4229 423.497 64.8839 419.475 62.3212C416.306 60.3687 412.893 58.9043 409.236 57.928V51.5822L394.365 66.4704L409.236 81.3585V74.8907C413.624 77.2093 417.403 81.8466 418.256 86.728C418.256 86.972 418.378 87.3381 418.378 87.5822C418.5 88.3144 418.5 89.0466 418.5 89.6568V124.558C418.5 128.586 422.278 132.125 426.666 132.125C431.786 132.125 434.345 128.219 434.467 124.558V87.4602C434.467 82.8229 432.883 77.8195 429.47 72.45ZM395.341 74.2805L387.662 66.5924L396.438 57.8059L395.219 58.05L394.731 58.172C391.318 59.0263 388.027 60.3687 385.102 62.1992C380.958 64.7619 377.545 68.3009 374.863 72.45C373.035 75.3788 369.988 81.1144 369.988 87.5822V124.681C370.231 128.83 373.644 132.125 377.91 132.125C382.542 132.125 386.199 128.83 386.199 124.681V87.5822C386.199 83.311 390.343 77.6975 395.341 75.2568L395.828 75.0127L396.072 74.8907C395.95 74.8907 395.341 74.2805 395.341 74.2805ZM343.781 99.9076H309.165C309.165 103.569 310.018 107.23 311.602 110.525C314.284 116.26 320.135 119.921 326.473 119.799C328.423 119.799 330.373 119.555 332.324 119.067C334.152 118.579 335.858 117.725 337.443 116.748C339.028 115.772 340.49 114.552 341.953 113.331C343.294 112.111 345.122 110.525 347.316 108.45C348.413 107.596 349.754 107.23 351.216 107.23C352.801 107.108 354.386 107.718 355.605 108.694C356.823 109.792 357.433 111.379 357.311 112.965C357.189 114.918 356.58 116.87 355.483 118.579C354.02 121.019 352.07 123.094 349.876 124.681C346.95 126.877 343.781 128.464 340.368 129.562C336.102 130.904 331.714 131.636 327.204 131.514C315.868 131.514 307.092 128.219 300.754 121.752C294.416 115.284 291.369 106.497 291.369 95.3924C291.247 90.389 292.1 85.5076 293.685 80.8703C295.147 76.5992 297.463 72.6941 300.51 69.3992C303.558 66.1043 307.336 63.6636 311.48 62.0771C316.112 60.3687 320.988 59.5144 325.985 59.5144C332.933 59.5144 338.784 60.9788 343.781 63.9076C348.413 66.5924 352.313 70.4975 354.873 75.2568C357.311 79.528 358.53 84.4093 358.53 89.4127C358.53 93.8059 357.311 96.7348 354.751 98.0771C351.948 99.1754 348.413 99.9076 343.781 99.9076ZM309.165 89.7788H341.222C340.734 83.6771 339.149 79.1619 336.346 76.2331C333.542 73.1822 329.764 71.7178 325.132 71.7178C320.988 71.5958 317.087 73.3042 314.284 76.3551C311.48 79.4059 309.774 83.9212 309.165 89.7788ZM283.568 108.328C283.69 112.721 282.471 117.114 280.033 120.897C277.717 124.314 274.182 126.999 269.55 128.83C264.919 130.66 259.312 131.514 252.608 131.514C246.269 131.514 240.784 130.538 236.274 128.586C231.765 126.633 228.352 124.192 226.279 121.264C224.085 118.335 222.988 115.406 222.988 112.477C222.988 110.647 223.72 108.816 225.061 107.474C226.401 106.131 228.352 105.399 230.302 105.399C231.886 105.277 233.349 105.765 234.568 106.742C235.665 107.84 236.64 109.182 237.371 110.525C238.956 113.331 241.15 115.772 243.832 117.603C246.391 119.189 249.804 119.921 254.192 119.921C257.727 119.921 260.652 119.189 262.846 117.603C265.162 116.016 266.259 114.186 266.259 112.233C266.259 109.182 265.04 106.864 262.725 105.399C260.409 103.935 256.508 102.592 251.145 101.25C246.026 100.03 241.15 98.4432 236.274 96.4907C232.74 95.0263 229.57 92.8297 227.133 89.9009C224.817 87.0941 223.598 83.5551 223.72 79.8941C223.72 76.3551 224.817 72.8161 226.889 69.8873C229.205 66.5924 232.496 63.9076 236.274 62.3212C240.419 60.4907 245.416 59.5144 251.145 59.5144C255.289 59.5144 259.433 60.0026 263.456 60.9788C266.625 61.711 269.794 63.0534 272.598 64.7619C274.792 66.1042 276.742 67.9348 278.205 70.0093C279.423 71.7178 280.033 73.6704 280.033 75.7449C280.155 77.5754 279.302 79.4059 277.961 80.7483C276.62 82.0907 274.67 82.7009 272.232 82.7009C270.525 82.7009 268.941 82.2127 267.6 81.1144C266.016 79.772 264.553 78.1856 263.212 76.4771C261.871 74.7687 260.287 73.4263 258.458 72.328C256.63 71.3517 254.192 70.7415 251.023 70.7415C248.22 70.6195 245.416 71.3517 243.1 72.8161C241.028 74.1585 239.931 75.867 239.931 77.9415C239.931 79.772 240.784 81.4805 242.247 82.5788C244.197 83.9212 246.269 84.8975 248.463 85.5076C251.145 86.2398 254.68 87.2161 259.312 88.3144C263.943 89.4127 268.453 90.9992 272.719 93.0737C275.767 94.6602 278.57 96.8568 280.642 99.6636C282.593 102.226 283.568 105.277 283.568 108.328ZM90.3721 -0.160156C40.3973 -0.160156 -0.0700684 40.3551 -0.0700684 90.389C-0.0700684 140.423 40.3973 180.938 90.3721 180.938C140.347 180.938 180.693 140.423 180.693 90.389C180.693 40.3551 140.225 -0.160156 90.3721 -0.160156ZM70.626 78.3076C70.8698 78.5517 70.9917 78.7958 71.2354 79.0398C71.723 79.65 72.2106 80.2602 72.82 80.8703L99.5139 107.596C102.317 110.403 101.952 115.528 99.0263 118.457C96.2229 121.386 91.591 121.63 88.6657 118.823C88.5438 118.701 88.5438 118.701 88.4219 118.579L60.0216 90.1449C55.8773 85.9958 53.8052 80.5043 52.5863 75.0127C50.5142 66.2263 52.0988 56.9517 56.8525 49.2636L51.2455 43.65H74.1608V66.4704L68.5539 60.8568V60.9788C66.4817 66.8365 67.2131 73.3042 70.626 78.3076ZM112.678 142.375C109.509 144.328 105.974 145.792 102.439 146.647C97.4418 147.745 92.2005 147.745 87.203 146.647C81.9618 145.426 76.2329 142.986 72.3325 138.958L43.9321 110.525C41.2506 107.474 41.3725 102.836 44.2978 99.9076C47.4669 96.7348 52.3425 96.4907 55.146 99.2975L83.5463 127.731C87.203 131.392 95.1258 132.247 100.855 130.416L101.464 130.172V142.009H113.41L112.678 142.375ZM106.462 137.006V114.064L112.069 119.677V119.555C114.263 113.942 113.531 107.474 109.997 102.47C109.753 102.226 109.631 101.982 109.387 101.738C108.9 101.128 108.412 100.518 107.803 99.9076L81.1085 73.1822C78.3051 70.3754 78.6707 65.25 81.5961 62.3212C84.3995 59.3924 89.0314 59.1483 91.9567 61.9551C92.0786 62.0771 92.0786 62.0771 92.2005 62.1992L120.601 90.6331C124.745 94.7822 126.817 100.274 128.036 105.765C130.108 114.552 128.524 123.826 123.77 131.514L129.377 137.128H106.462V137.006ZM136.447 80.7483C133.278 83.9212 128.402 84.1653 125.599 81.3585L97.198 52.9246C93.5413 49.2636 85.6184 48.4093 79.8896 50.2398L79.2802 50.4839V38.6466H67.335L67.9444 38.2805C75.6235 33.5212 84.7652 32.0568 93.5413 34.0093C98.7825 35.2297 104.512 37.6704 108.412 41.6975L136.812 70.1314C139.616 73.1822 139.372 77.9415 136.447 80.7483Z" fill="#073742"/>
</g>
</g>
<defs>
<clipPath id="clip0_641_12">
<rect width="887" height="181" fill="white"/>
</clipPath>
<clipPath id="clip1_641_12">
<rect width="666" height="231" fill="white" transform="translate(219 -25)"/>
</clipPath>
<clipPath id="clip2_641_12">
<rect width="181" height="181" fill="white"/>
</clipPath>
</defs>
</svg>
