<svg width="80" height="14" viewBox="0 0 80 14" fill="none" xmlns="http://www.w3.org/2000/svg">
<path d="M10.4566 13.2439C9.79107 13.2439 9.12555 13.2439 8.46003 13.2439C8.2636 13.2439 8.06631 13.249 7.97063 13.0295C7.86903 12.798 8.04345 12.6709 8.17469 12.5387C9.5633 11.1451 10.9553 9.75494 12.3456 8.36223C12.7427 7.96468 12.741 7.94858 12.349 7.55272C11.7351 6.93308 11.1297 6.30326 10.5032 5.69634C10.2305 5.43187 10.2161 5.2208 10.4905 4.95379C11.1365 4.32397 11.7758 3.68738 12.4032 3.03807C12.6623 2.77021 12.8655 2.74478 13.1415 3.02451C14.5445 4.44519 15.9636 5.85061 17.3708 7.2679C17.8187 7.71886 17.8094 8.20796 17.3539 8.6657C15.9153 10.1084 14.47 11.5452 13.0357 12.9922C12.8536 13.1761 12.6631 13.2515 12.4091 13.2473C11.7588 13.2354 11.1077 13.2431 10.4574 13.2439H10.4566Z" fill="#073742"/>
<path d="M0 5.37263C0.0067737 5.08442 0.104146 4.86403 0.292116 4.6767C1.76963 3.20177 3.24545 1.72684 4.71704 0.245972C4.8669 0.0950877 5.02355 0.0467707 5.22845 0.0476183C6.57557 0.0543996 7.92184 0.0518566 9.26896 0.0501612C9.451 0.0501612 9.63813 0.0408375 9.73042 0.234104C9.83626 0.457039 9.672 0.590122 9.53568 0.727443C8.1259 2.14389 6.7229 3.56711 5.30042 4.97084C5.02609 5.24209 5.00576 5.4184 5.29026 5.68965C5.94392 6.31269 6.56541 6.96878 7.21314 7.59774C7.46377 7.84102 7.51119 8.0309 7.23685 8.29706C6.57896 8.93535 5.93715 9.58975 5.29957 10.2484C5.04133 10.5154 4.83388 10.5315 4.55955 10.2535C3.1557 8.83109 1.73999 7.42058 0.323444 6.01092C0.135474 5.82359 0.0228612 5.61337 0 5.37517V5.37263Z" fill="#073742"/>
<path d="M56.5037 3.59195C56.5037 2.51797 56.5198 1.49993 56.4952 0.483579C56.4867 0.126713 56.5943 0.0105842 56.9423 0.0470336C57.3927 0.093655 57.982 -0.1403 58.2614 0.141971C58.5197 0.402203 58.3309 0.985395 58.3317 1.42618C58.3376 4.1175 58.3275 6.80968 58.3427 9.501C58.3444 9.83837 58.2547 9.94264 57.9261 9.91043C57.6332 9.8816 57.3334 9.88245 57.0405 9.91043C56.712 9.94094 56.4935 9.88415 56.5587 9.47727C54.6959 10.3546 53.0855 10.1037 52.0745 8.7966C51.0373 7.4556 51.0695 5.48563 52.1346 4.19464C53.0389 3.09862 54.7933 2.56883 56.5037 3.5928V3.59195ZM56.5037 6.53419C56.5037 5.87584 56.4574 5.49072 56.3648 5.37883C55.9271 4.84904 55.0109 4.58372 54.3462 4.79394C53.6697 5.00755 53.204 5.63312 53.1524 6.39517C53.0973 7.21486 53.469 7.89045 54.1667 8.20239C54.7967 8.48466 55.3919 8.36853 55.9838 8.04896C56.5325 7.75228 56.5401 7.27165 56.5045 6.75628C56.4994 6.68253 56.5045 6.60878 56.5045 6.53504L56.5037 6.53419Z" fill="#073742"/>
<path d="M30.2661 3.58844C32.2178 2.72976 33.6327 2.94168 34.6928 4.23352C35.7029 5.46432 35.7554 7.36817 34.8045 8.69645C34.2889 9.41697 33.5683 9.81706 32.7098 9.99253C31.8613 10.1655 31.079 9.97303 30.2873 9.49156C30.2873 10.6274 30.267 11.687 30.2975 12.7449C30.3093 13.1569 30.1899 13.3001 29.7835 13.2492C29.3635 13.1967 28.7971 13.4323 28.5558 13.1484C28.3475 12.9042 28.4855 12.3575 28.4855 11.9447C28.483 9.16267 28.4906 6.37979 28.4762 3.59777C28.4745 3.25192 28.5609 3.11799 28.9165 3.15614C29.1942 3.1858 29.4804 3.18665 29.7581 3.15614C30.0951 3.11969 30.2975 3.20361 30.2661 3.58929V3.58844ZM30.2873 6.51966C30.2873 6.78582 30.2949 7.05199 30.2848 7.31816C30.278 7.49616 30.3474 7.62501 30.4643 7.75046C31.1162 8.45063 32.2881 8.56168 33.0002 7.98611C33.7216 7.40207 33.874 6.23823 33.3312 5.45669C32.8833 4.81162 32.1331 4.57088 31.3322 4.81586C30.5142 5.06592 30.2882 5.39651 30.2882 6.3425C30.2882 6.40183 30.2882 6.46117 30.2882 6.51966H30.2873Z" fill="#073742"/>
<path d="M79.999 9.90338C79.1998 9.90338 78.5046 9.89152 77.8103 9.91016C77.5868 9.9161 77.4606 9.80845 77.3209 9.67282C76.4725 8.85144 75.6199 8.03344 74.7494 7.19595C74.6715 7.23579 74.7359 7.37057 74.7342 7.47398C74.7274 8.16991 74.719 8.86584 74.7367 9.56093C74.7435 9.83557 74.6588 9.92373 74.3853 9.90847C73.9874 9.88643 73.586 9.88897 73.1872 9.90847C72.9442 9.92034 72.8943 9.82625 72.8951 9.60246C72.9011 6.52376 72.9019 3.44505 72.8943 0.36634C72.8943 0.108651 72.9756 0.0332087 73.2237 0.0459237C73.5776 0.0645722 73.9349 0.0722008 74.288 0.044228C74.63 0.0171028 74.7452 0.117127 74.7401 0.479079C74.719 1.8845 74.7317 3.29162 74.7317 4.69704V5.23955C75.21 4.94795 75.5563 4.60295 75.8569 4.24185C76.5843 3.36876 77.4572 2.96103 78.5986 3.1526C78.8831 3.20007 79.1828 3.15939 79.6003 3.15939C78.9796 3.73664 78.4377 4.2427 77.8933 4.74536C77.4699 5.13613 77.0516 5.53369 76.6139 5.90751C76.3768 6.1101 76.3345 6.23301 76.5919 6.48137C77.624 7.47822 78.6291 8.50389 79.6426 9.52024C79.7433 9.62111 79.8382 9.72876 79.9999 9.90169L79.999 9.90338Z" fill="#073742"/>
<path d="M63.4824 6.98421C62.8169 6.98421 62.1506 6.99523 61.485 6.97913C61.1828 6.9715 61.1345 7.07067 61.2209 7.34277C61.5909 8.5117 63.0252 8.93299 64.1522 8.19467C64.5157 7.9562 64.8541 7.99378 65.1674 8.30741C65.5727 8.71316 65.534 9.07963 65.0514 9.40683C63.0946 10.7199 59.9652 10.0494 59.4369 7.25885C59.1066 5.51521 60.0338 3.72919 61.5613 3.21381C63.5332 2.5484 65.5154 3.7792 65.7948 5.84326C65.8981 6.60446 65.5716 6.98506 64.8152 6.98506C64.3715 6.98506 63.9278 6.98506 63.4833 6.98506L63.4824 6.98421ZM62.6349 5.6483V5.65253C62.9456 5.65253 63.2564 5.65338 63.5671 5.65253C63.9845 5.65084 64.0328 5.56946 63.8211 5.19734C63.5561 4.73113 63.1336 4.48446 62.6129 4.50904C62.0303 4.53701 61.5816 4.83115 61.3191 5.37789C61.2031 5.61948 61.3174 5.65423 61.524 5.65084C61.894 5.64406 62.264 5.64914 62.634 5.64914L62.6349 5.6483Z" fill="#073742"/>
<path d="M40.2953 6.98355C39.6298 6.98355 38.9634 6.99372 38.2979 6.97931C38.021 6.97337 37.9744 7.0539 38.054 7.31329C38.3216 8.18468 39.2589 8.74668 40.1395 8.54494C40.49 8.46441 40.8533 8.36439 41.0954 8.10839C41.4519 7.73288 41.678 7.88292 41.9167 8.20587C41.9252 8.21774 41.9379 8.22707 41.9481 8.23724C42.4042 8.69384 42.3505 9.10327 41.7872 9.4655C40.2394 10.4615 38.06 10.1606 36.955 8.79839C35.8568 7.44383 35.9965 5.17718 37.27 3.92264C38.1675 3.03853 39.2657 2.83 40.4291 3.1767C41.6763 3.54797 42.3638 4.48973 42.6102 5.73918C42.8549 6.97846 42.8337 6.9827 41.5814 6.9827C41.1522 6.9827 40.7237 6.9827 40.2944 6.9827L40.2953 6.98355ZM39.4316 5.65102V5.64848C39.7703 5.64848 40.1099 5.63153 40.4468 5.65272C40.8397 5.6773 40.827 5.50777 40.6814 5.23906C40.4189 4.75335 40.0032 4.50668 39.463 4.50244C38.9075 4.4982 38.3462 4.91695 38.1514 5.39927C38.0642 5.61457 38.1345 5.65526 38.3284 5.65272C38.6958 5.64763 39.0642 5.65102 39.4316 5.65102V5.65102Z" fill="#073742"/>
<path d="M45.4533 3.6717C46.3999 3.019 47.3347 2.86981 48.322 3.1987C49.5285 3.60049 50.288 4.57531 50.3329 5.84595C50.3769 7.10303 50.3465 8.36181 50.3634 9.62059C50.3668 9.8715 50.2643 9.91473 50.0493 9.9071C49.6649 9.89354 49.2788 9.88591 48.8952 9.90964C48.62 9.92659 48.5438 9.83759 48.548 9.56379C48.5633 8.52795 48.5548 7.49126 48.5531 6.45457C48.5531 6.30708 48.5531 6.15789 48.5311 6.01209C48.3787 4.9771 47.6141 4.49817 46.6065 4.79824C46.3915 4.86266 46.1976 4.96523 46.0096 5.08475C45.676 5.29751 45.5109 5.56029 45.5244 5.99429C45.56 7.16237 45.5227 8.33299 45.5464 9.50192C45.5532 9.84946 45.4431 9.93253 45.1205 9.90964C44.7378 9.88167 44.3517 9.89438 43.9673 9.90625C43.754 9.91303 43.6904 9.83335 43.6913 9.62313C43.6972 7.56501 43.6981 5.50773 43.6913 3.44961C43.6904 3.20209 43.7971 3.15039 44.0122 3.15717C44.3517 3.16819 44.6946 3.18429 45.0325 3.15378C45.3737 3.12241 45.5278 3.2343 45.4541 3.6717H45.4533Z" fill="#073742"/>
<path d="M69.6044 3.05102C70.2996 3.03577 70.9456 3.22225 71.562 3.5325C71.7695 3.63676 71.8677 3.75374 71.678 3.95972C71.6382 4.00295 71.6078 4.05466 71.5756 4.10382C71.3995 4.37677 71.2801 4.72685 71.0354 4.90401C70.7373 5.12017 70.4926 4.69888 70.187 4.64208C69.8127 4.57173 69.4563 4.53528 69.1032 4.6921C68.9364 4.76584 68.7975 4.87858 68.7958 5.08795C68.7941 5.27529 68.9051 5.39481 69.0609 5.46262C69.3445 5.58553 69.6307 5.70336 69.9228 5.80423C70.3419 5.95003 70.7602 6.09328 71.137 6.33317C72.2843 7.06131 72.3588 8.62186 71.2725 9.44578C70.4224 10.09 69.4486 10.1578 68.4453 9.95438C67.8949 9.84249 67.3767 9.62803 66.895 9.32626C66.6951 9.20166 66.6054 9.08807 66.7908 8.88633C66.8306 8.8431 66.8569 8.78885 66.8907 8.73968C67.0753 8.47182 67.2049 8.11156 67.4589 7.96153C67.7595 7.78267 67.9788 8.21583 68.2768 8.30229C68.7069 8.42689 69.1337 8.53624 69.5833 8.47691C69.8796 8.43791 70.1497 8.31331 70.1963 7.99204C70.2386 7.70299 70.0117 7.54448 69.7755 7.43089C69.1633 7.13675 68.4825 7.01299 67.8924 6.6663C66.7485 5.9941 66.6164 4.54121 67.6308 3.68592C68.0821 3.30532 68.6138 3.09086 69.2073 3.05187C69.3394 3.04339 69.4732 3.05018 69.6061 3.05018L69.6044 3.05102Z" fill="#073742"/>
<path d="M24.9335 3.04752C25.7014 3.02972 26.3602 3.22044 26.991 3.53662C27.2103 3.64682 27.2712 3.77142 27.0934 3.96893C27.0443 4.02318 27.0104 4.09099 26.9707 4.15287C26.8013 4.41226 26.6862 4.75386 26.4491 4.91153C26.1747 5.09378 25.9267 4.71996 25.6396 4.65384C25.2383 4.5606 24.8505 4.51906 24.4762 4.71996C24.1282 4.90729 24.1096 5.25144 24.4534 5.44386C24.7209 5.5939 25.0181 5.69646 25.3103 5.79649C25.7294 5.94059 26.1485 6.08215 26.5278 6.3178C27.7242 7.06205 27.7911 8.64633 26.6489 9.47873C25.8022 10.0958 24.8429 10.1577 23.8556 9.95257C23.29 9.8356 22.7591 9.61436 22.2697 9.29733C22.0953 9.18459 22.0453 9.08287 22.1918 8.91758C22.2401 8.86333 22.2731 8.79467 22.3154 8.73364C22.5 8.46577 22.6304 8.10128 22.8853 7.95803C23.1791 7.79273 23.4051 8.21995 23.7057 8.30557C24.1071 8.42 24.5033 8.52511 24.9242 8.48697C25.2349 8.45815 25.5321 8.36575 25.6049 8.02584C25.6786 7.68338 25.411 7.52233 25.146 7.41213C24.6286 7.19852 24.0961 7.01966 23.5813 6.79927C23.0648 6.57803 22.638 6.24744 22.4577 5.67866C22.1783 4.79625 22.5771 3.88925 23.4585 3.40608C23.936 3.14415 24.4432 3.01022 24.9343 3.04667L24.9335 3.04752Z" fill="#073742"/>
</svg>
