<svg width="291" height="57" viewBox="0 0 291 57" fill="none" xmlns="http://www.w3.org/2000/svg">
<path d="M40.2538 52.7221C37.883 52.7221 35.5122 52.7221 33.1414 52.7221C32.4417 52.7221 31.7389 52.7402 31.398 51.959C31.0361 51.1355 31.6574 50.6831 32.1249 50.2125C37.0716 45.2538 42.0304 40.3071 46.9831 35.3514C48.3977 33.9367 48.3917 33.8794 46.9952 32.4708C44.8084 30.2659 42.6517 28.0248 40.4197 25.8652C39.4485 24.9241 39.3972 24.173 40.3745 23.2229C42.6759 20.9818 44.9532 18.7166 47.1882 16.4061C48.1112 15.453 48.8351 15.3625 49.8184 16.3579C54.8164 21.4132 59.8717 26.4141 64.8847 31.4574C66.4803 33.062 66.4471 34.8024 64.8244 36.4312C59.6997 41.5649 54.5509 46.6775 49.4414 51.8263C48.7929 52.4808 48.1142 52.7492 47.2093 52.7342C44.8928 52.6919 42.5733 52.7191 40.2568 52.7221H40.2538Z" fill="#073742"/>
<path d="M3 24.7134C3.02413 23.6879 3.371 22.9037 4.04062 22.2371C9.30401 16.9887 14.5614 11.7404 19.8037 6.47099C20.3375 5.93409 20.8956 5.76216 21.6255 5.76518C26.4244 5.78931 31.2203 5.78026 36.0192 5.77422C36.6677 5.77422 37.3343 5.74105 37.663 6.42876C38.0401 7.22204 37.4549 7.69559 36.9693 8.18423C31.9472 13.2244 26.9492 18.2888 21.8819 23.2837C20.9046 24.2489 20.8322 24.8763 21.8457 25.8415C24.1742 28.0585 26.3882 30.3931 28.6956 32.6311C29.5885 33.4968 29.7574 34.1725 28.7801 35.1196C26.4365 37.3908 24.1501 39.7194 21.8789 42.063C20.9589 43.0132 20.2199 43.0705 19.2426 42.0811C14.2417 37.0198 9.19844 32.0007 4.15222 26.9847C3.4826 26.3181 3.08144 25.57 3 24.7225V24.7134Z" fill="#073742"/>
<path d="M204.277 18.3752C204.277 14.5536 204.334 10.931 204.247 7.31449C204.217 6.04464 204.6 5.63141 205.84 5.76111C207.444 5.92701 209.543 5.09451 210.539 6.09893C211.459 7.02493 210.786 9.10013 210.789 10.6686C210.81 20.2453 210.774 29.825 210.828 39.4016C210.834 40.6021 210.515 40.9731 209.344 40.8585C208.301 40.7559 207.233 40.7589 206.189 40.8585C205.019 40.9671 204.241 40.765 204.473 39.3172C197.837 42.439 192.1 41.5462 188.499 36.8951C184.804 32.1234 184.919 25.1135 188.713 20.5197C191.934 16.6197 198.184 14.7345 204.277 18.3782V18.3752ZM204.277 28.8447C204.277 26.502 204.112 25.1316 203.782 24.7335C202.223 22.8483 198.959 21.9042 196.592 22.6523C194.182 23.4124 192.523 25.6384 192.339 28.35C192.143 31.2667 193.467 33.6707 195.952 34.7807C198.196 35.7851 200.317 35.3719 202.425 34.2347C204.38 33.179 204.407 31.4688 204.28 29.6349C204.262 29.3725 204.28 29.1101 204.28 28.8477L204.277 28.8447Z" fill="#073742"/>
<path d="M110.8 18.3627C117.753 15.3072 122.793 16.0613 126.569 20.6581C130.168 25.0377 130.355 31.8123 126.967 36.5388C125.13 39.1026 122.564 40.5263 119.505 41.1507C116.483 41.766 113.696 41.0813 110.875 39.3681C110.875 43.4099 110.803 47.1802 110.912 50.9445C110.954 52.4104 110.529 52.9202 109.081 52.7392C107.585 52.5522 105.567 53.3907 104.707 52.3803C103.965 51.5116 104.457 49.5661 104.457 48.0972C104.448 38.1978 104.475 28.2953 104.424 18.3959C104.418 17.1653 104.725 16.6887 105.992 16.8244C106.981 16.93 108.001 16.933 108.99 16.8244C110.191 16.6947 110.912 16.9933 110.8 18.3657V18.3627ZM110.875 28.793C110.875 29.7401 110.903 30.6872 110.866 31.6343C110.842 32.2678 111.09 32.7262 111.506 33.1726C113.828 35.6641 118.003 36.0592 120.54 34.0112C123.109 31.933 123.652 27.7916 121.719 25.0106C120.123 22.7152 117.451 21.8586 114.598 22.7303C111.684 23.6201 110.878 24.7964 110.878 28.1626C110.878 28.3737 110.878 28.5849 110.878 28.793H110.875Z" fill="#073742"/>
<path d="M287.997 40.8335C285.15 40.8335 282.673 40.7913 280.2 40.8577C279.404 40.8788 278.954 40.4957 278.457 40.0131C275.434 37.0903 272.397 34.1796 269.296 31.1995C269.019 31.3413 269.248 31.8209 269.242 32.1889C269.218 34.6652 269.188 37.1416 269.251 39.615C269.275 40.5922 268.973 40.9059 267.999 40.8516C266.582 40.7732 265.152 40.7823 263.731 40.8516C262.865 40.8939 262.688 40.559 262.691 39.7627C262.712 28.8076 262.715 17.8525 262.688 6.89742C262.688 5.98047 262.977 5.71202 263.861 5.75727C265.122 5.82363 266.394 5.85077 267.652 5.75123C268.871 5.65471 269.281 6.01063 269.263 7.29858C269.188 12.2996 269.233 17.3066 269.233 22.3076V24.238C270.937 23.2004 272.171 21.9728 273.241 20.6878C275.832 17.5811 278.942 16.1302 283.008 16.8119C284.022 16.9808 285.089 16.836 286.576 16.836C284.365 18.8901 282.435 20.6908 280.496 22.4795C278.987 23.87 277.497 25.2846 275.938 26.6148C275.093 27.3357 274.943 27.7731 275.86 28.6568C279.536 32.204 283.117 35.8537 286.727 39.4702C287.086 39.8291 287.424 40.2122 288 40.8275L287.997 40.8335Z" fill="#073742"/>
<path d="M229.153 30.4474C226.782 30.4474 224.408 30.4866 222.038 30.4293C220.961 30.4022 220.789 30.7551 221.096 31.7233C222.415 35.8827 227.524 37.3818 231.539 34.7546C232.834 33.9061 234.039 34.0398 235.155 35.1558C236.599 36.5996 236.461 37.9036 234.742 39.0679C227.772 43.7401 216.623 41.3543 214.741 31.4247C213.565 25.2202 216.868 18.8649 222.309 17.031C229.334 14.6632 236.395 19.0429 237.39 26.3875C237.758 29.0961 236.595 30.4504 233.901 30.4504C232.32 30.4504 230.74 30.4504 229.156 30.4504L229.153 30.4474ZM226.134 25.6938V25.7088C227.241 25.7088 228.348 25.7119 229.455 25.7088C230.942 25.7028 231.114 25.4132 230.359 24.0891C229.415 22.4301 227.91 21.5524 226.055 21.6399C223.98 21.7394 222.381 22.7861 221.446 24.7316C221.033 25.5912 221.44 25.7149 222.176 25.7028C223.494 25.6787 224.813 25.6968 226.131 25.6968L226.134 25.6938Z" fill="#073742"/>
<path d="M146.551 30.4459C144.18 30.4459 141.806 30.4821 139.435 30.4308C138.449 30.4097 138.283 30.6962 138.567 31.6192C139.52 34.72 142.859 36.7197 145.996 36.0019C147.245 35.7153 148.539 35.3594 149.401 34.4485C150.671 33.1123 151.476 33.6462 152.327 34.7954C152.357 34.8376 152.402 34.8708 152.439 34.907C154.063 36.5317 153.872 37.9886 151.866 39.2775C146.352 42.8217 138.588 41.7509 134.652 36.9037C130.74 32.0837 131.237 24.0182 135.774 19.5541C138.971 16.4082 142.883 15.6661 147.027 16.8998C151.47 18.2209 153.92 21.572 154.797 26.018C155.669 30.4278 155.594 30.4429 151.133 30.4429C149.603 30.4429 148.077 30.4429 146.548 30.4429L146.551 30.4459ZM143.474 25.7043V25.6953C144.681 25.6953 145.89 25.6349 147.091 25.7103C148.49 25.7978 148.445 25.1946 147.926 24.2384C146.991 22.5101 145.51 21.6323 143.586 21.6173C141.607 21.6022 139.607 23.0922 138.914 24.8085C138.603 25.5746 138.853 25.7194 139.544 25.7103C140.853 25.6922 142.165 25.7043 143.474 25.7043V25.7043Z" fill="#073742"/>
<path d="M164.906 18.6593C168.278 16.3367 171.608 15.8059 175.125 16.9762C179.424 18.4059 182.129 21.8746 182.289 26.396C182.446 30.8691 182.337 35.3483 182.398 39.8275C182.41 40.7203 182.045 40.8741 181.279 40.847C179.909 40.7987 178.534 40.7716 177.167 40.856C176.187 40.9164 175.916 40.5996 175.931 39.6254C175.985 35.9395 175.955 32.2506 175.949 28.5617C175.949 28.0369 175.949 27.506 175.87 26.9872C175.328 23.3043 172.604 21.6001 169.014 22.6679C168.248 22.8971 167.558 23.2621 166.888 23.6874C165.7 24.4445 165.111 25.3795 165.16 26.9239C165.286 31.0803 165.154 35.2458 165.238 39.4052C165.262 40.6419 164.87 40.9375 163.721 40.856C162.358 40.7565 160.982 40.8017 159.613 40.844C158.853 40.8681 158.626 40.5846 158.629 39.8365C158.651 32.513 158.654 25.1925 158.629 17.869C158.626 16.9882 159.006 16.8043 159.773 16.8284C160.982 16.8676 162.204 16.9249 163.407 16.8163C164.623 16.7047 165.172 17.1029 164.909 18.6593H164.906Z" fill="#073742"/>
<path d="M250.95 16.4516C253.427 16.3973 255.728 17.0609 257.924 18.1649C258.663 18.5359 259.013 18.9521 258.337 19.6851C258.195 19.8389 258.087 20.0229 257.972 20.1978C257.345 21.1691 256.919 22.4148 256.048 23.0452C254.986 23.8143 254.114 22.3152 253.025 22.1132C251.692 21.8628 250.422 21.7331 249.165 22.2911C248.57 22.5535 248.076 22.9547 248.07 23.6997C248.064 24.3663 248.459 24.7916 249.014 25.0329C250.024 25.4703 251.044 25.8895 252.084 26.2485C253.577 26.7673 255.067 27.277 256.41 28.1306C260.497 30.7216 260.762 36.2746 256.892 39.2064C253.864 41.4988 250.395 41.7401 246.821 41.0161C244.86 40.618 243.014 39.8549 241.298 38.7811C240.586 38.3377 240.267 37.9335 240.927 37.2156C241.069 37.0618 241.162 36.8688 241.283 36.6938C241.941 35.7407 242.402 34.4588 243.307 33.9249C244.378 33.2885 245.159 34.8298 246.221 35.1374C247.753 35.5808 249.273 35.9699 250.875 35.7588C251.93 35.62 252.893 35.1766 253.059 34.0335C253.209 33.0049 252.401 32.4409 251.559 32.0367C249.379 30.9901 246.954 30.5497 244.851 29.316C240.776 26.9241 240.306 21.7542 243.919 18.7108C245.527 17.3565 247.421 16.5934 249.536 16.4546C250.006 16.4245 250.483 16.4486 250.956 16.4486L250.95 16.4516Z" fill="#073742"/>
<path d="M91.8117 16.4376C94.5474 16.3742 96.8941 17.0529 99.1412 18.178C99.9224 18.5701 100.14 19.0135 99.5062 19.7163C99.3313 19.9093 99.2106 20.1506 99.0688 20.3708C98.4656 21.2938 98.0554 22.5094 97.2108 23.0704C96.2335 23.7189 95.3498 22.3887 94.3273 22.1534C92.8975 21.8216 91.5161 21.6738 90.1829 22.3887C88.9432 23.0553 88.8768 24.2799 90.1015 24.9646C91.0546 25.4985 92.1133 25.8635 93.1539 26.2194C94.647 26.7321 96.14 27.2359 97.4913 28.0744C101.753 30.7227 101.992 36.3601 97.9227 39.3221C94.9064 41.5179 91.4889 41.7381 87.972 41.0082C85.9571 40.5919 84.0659 39.8047 82.3225 38.6766C81.7011 38.2754 81.5232 37.9135 82.045 37.3253C82.2169 37.1323 82.3345 36.8879 82.4854 36.6708C83.1429 35.7176 83.6074 34.4206 84.5153 33.9109C85.562 33.3227 86.3673 34.8429 87.4381 35.1475C88.8678 35.5547 90.2794 35.9288 91.7785 35.793C92.8855 35.6905 93.9442 35.3617 94.2036 34.1522C94.466 32.9336 93.5129 32.3605 92.5688 31.9684C90.7258 31.2083 88.8286 30.5719 86.9947 29.7876C85.1548 29.0004 83.6346 27.824 82.9921 25.8001C81.9967 22.6602 83.4174 19.4327 86.5573 17.7135C88.2585 16.7814 90.0653 16.3049 91.8147 16.4346L91.8117 16.4376Z" fill="#073742"/>
</svg>
