<svg width="150" height="57" viewBox="0 0 150 57" fill="none" xmlns="http://www.w3.org/2000/svg">
<path d="M11.2874 39.7133C11.8961 41.3287 12.7389 42.7099 13.8158 43.857C14.8928 45.0041 16.1686 45.882 17.6434 46.4907C19.1184 47.0995 20.722 47.4037 22.4544 47.4037C24.1401 47.4037 25.7202 47.0877 27.1952 46.4555C28.6701 45.8233 29.9576 44.9338 31.0579 43.7867C32.1582 42.6395 33.0127 41.2701 33.6214 39.6781C34.2302 38.0862 34.5344 36.3071 34.5344 34.3405V4H41.9088V53.1627H34.6047V48.5976C32.9659 50.3298 31.0344 51.6643 28.8104 52.6009C26.5863 53.5372 24.1869 54.0055 21.6117 54.0055C18.9895 54.0055 16.5432 53.5489 14.2722 52.6359C12.0015 51.7229 10.0348 50.4237 8.37279 48.738C6.71074 47.0524 5.39959 45.0276 4.43982 42.663C3.47989 40.2985 3 37.6649 3 34.7618V4H10.3744V34.3405C10.3744 36.3071 10.6787 38.0978 11.2874 39.7133Z" fill="#073742"/>
<path d="M54.6112 4V21.9092C56.25 20.2705 58.1464 18.9713 60.3001 18.0114C62.4539 17.0515 64.795 16.5716 67.3233 16.5716C69.9454 16.5716 72.4033 17.0631 74.6977 18.0464C76.9919 19.0296 78.9817 20.3641 80.6674 22.0497C82.353 23.7354 83.6875 25.7252 84.6707 28.0194C85.654 30.3138 86.1455 32.7485 86.1455 35.3237C86.1455 37.8988 85.654 40.3218 84.6707 42.5926C83.6875 44.8635 82.353 46.8418 80.6674 48.5272C78.9817 50.2128 76.9919 51.5473 74.6977 52.5305C72.4033 53.5138 69.9453 54.0053 67.3233 54.0053C64.7949 54.0053 62.4422 53.5254 60.265 52.5655C58.0878 51.6057 56.1797 50.3064 54.541 48.6676V53.1626H47.5178V4H54.6112ZM55.4189 40.1697C56.0509 41.6681 56.9289 42.9791 58.0527 44.1028C59.1764 45.2265 60.4874 46.1162 61.9856 46.7717C63.484 47.4272 65.0993 47.755 66.8318 47.755C68.5174 47.755 70.1092 47.4272 71.6075 46.7717C73.1057 46.1162 74.4049 45.2267 75.5055 44.1028C76.6057 42.9792 77.4836 41.6681 78.1391 40.1697C78.7946 38.6714 79.1224 37.0562 79.1224 35.3237C79.1224 33.5913 78.7946 31.9642 78.1391 30.4425C77.4836 28.9208 76.6057 27.5981 75.5055 26.4744C74.4051 25.3508 73.1059 24.4728 71.6075 23.8408C70.1091 23.2087 68.5173 22.8925 66.8318 22.8925C65.1462 22.8925 63.5543 23.2086 62.056 23.8408C60.5578 24.4729 59.2468 25.3508 58.1229 26.4744C56.9993 27.5981 56.1096 28.9208 55.4542 30.4425C54.7987 31.9642 54.4709 33.5913 54.4709 35.3237C54.4708 37.0562 54.7868 38.6714 55.4189 40.1697Z" fill="#073742"/>
<path d="M90.1693 28.0898C91.1056 25.8423 92.3934 23.8642 94.032 22.1552C95.6706 20.4462 97.6139 19.1001 99.8614 18.1169C102.109 17.1336 104.544 16.6421 107.166 16.6421C109.741 16.6421 112.129 17.1103 114.329 18.0466C116.53 18.9831 118.426 20.2824 120.018 21.9446C121.61 23.6067 122.851 25.5733 123.74 27.8441C124.63 30.115 125.075 32.5848 125.075 35.2538V37.5715H95.9284C96.1626 39.0229 96.6308 40.369 97.3331 41.6096C98.0355 42.8504 98.9133 43.9273 99.9667 44.8403C101.02 45.7535 102.214 46.4676 103.549 46.9824C104.883 47.4974 106.299 47.7551 107.798 47.7551C112.059 47.7551 115.5 45.9992 118.122 42.4875L123.249 46.28C121.47 48.6679 119.269 50.5409 116.647 51.8986C114.025 53.2564 111.075 53.9353 107.798 53.9353C105.129 53.9353 102.636 53.467 100.318 52.5306C98.0004 51.5943 95.9871 50.2832 94.2782 48.5975C92.5692 46.9119 91.2231 44.9337 90.2398 42.663C89.2566 40.3922 88.7649 37.9222 88.7649 35.2534C88.7646 32.7252 89.233 30.3372 90.1693 28.0898ZM100.037 25.3155C98.047 26.9777 96.7244 29.19 96.0689 31.9525H117.911C117.303 29.19 116.003 26.9777 114.013 25.3155C112.023 23.6535 109.694 22.8224 107.025 22.8224C104.356 22.8224 102.027 23.6535 100.037 25.3155Z" fill="#073742"/>
<path d="M138.336 26.1235C136.837 27.7623 136.088 29.9863 136.088 32.7957V53.1632H128.995V17.3446H136.018V21.7693C136.907 20.3178 138.066 19.1706 139.494 18.3278C140.922 17.4849 142.62 17.0635 144.586 17.0635H147.044V23.6654H144.095C141.754 23.6655 139.834 24.4848 138.336 26.1235Z" fill="#073742"/>
</svg>
